<svg width="698" height="351" viewBox="0 0 698 351" fill="none" xmlns="http://www.w3.org/2000/svg">
<g clip-path="url(#clip0_7_1770)">
<rect width="698" height="351" fill="black"/>
<rect x="173.641" y="34.3164" width="133" height="42.6095" fill="#141414"/>
<rect x="173.1" y="33.7762" width="134.08" height="43.69" stroke="white" stroke-opacity="0.2" stroke-width="1.08048"/>
<path d="M201.39 62.1211L201.856 59.4069H198.572L198.105 62.1211H195.356L195.823 59.4069H193.126L193.472 57.3324H196.186L196.67 54.5837H193.973L194.319 52.5092H197.033L197.517 49.674H200.266L199.782 52.5092H203.066L203.55 49.674H206.299L205.815 52.5092H208.512L208.166 54.5837H205.452L204.968 57.3324H207.665L207.319 59.4069H204.605L204.138 62.1211H201.39ZM198.935 57.3324H202.219L202.703 54.5837H199.419L198.935 57.3324ZM214.673 62.1211V52.8722L210.04 54.8257H209.763V51.9214L215.157 49.674H218.165V62.1211H214.673ZM229.636 62.1211V59.7354H220.197V56.8311L226.611 49.674H233.128V57.0731H235.514V59.7354H233.128V62.1211H229.636ZM224.069 57.1423H229.722V52.3363H228.028L224.069 56.8138V57.1423ZM240.739 62.1211V52.8722L236.106 54.8257H235.83V51.9214L241.223 49.674H244.231V62.1211H240.739ZM255.702 62.1211V59.7354H246.263V56.8311L252.677 49.674H259.195V57.0731H261.58V59.7354H259.195V62.1211H255.702ZM250.136 57.1423H255.789V52.3363H254.095L250.136 56.8138V57.1423ZM266.806 62.1211V52.8722L262.173 54.8257H261.896V51.9214L267.29 49.674H270.298V62.1211H266.806ZM281.769 62.1211V59.7354H272.33V56.8311L278.744 49.674H285.261V57.0731H287.647V59.7354H285.261V62.1211H281.769ZM276.202 57.1423H281.855V52.3363H280.161L276.202 56.8138V57.1423Z" fill="white"/>
<rect width="132.899" height="42.6095" transform="translate(173.742 89.8916)" fill="white"/>
<path d="M195.94 117.696L196.407 114.982H193.122L192.656 117.696H189.907L190.374 114.982H187.677L188.023 112.908H190.737L191.221 110.159H188.524L188.87 108.084H191.584L192.068 105.249H194.817L194.333 108.084H197.617L198.101 105.249H200.85L200.366 108.084H203.063L202.717 110.159H200.003L199.519 112.908H202.216L201.87 114.982H199.156L198.689 117.696H195.94ZM193.485 112.908H196.77L197.254 110.159H193.969L193.485 112.908ZM205.18 117.696V105.249H217.99V107.86H208.568V110.245H215.518V112.7H208.568V117.696H205.18ZM220.104 117.696V105.249H232.914V107.86H223.492V110.245H230.442V112.7H223.492V117.696H220.104ZM235.028 117.696V105.249H247.838V107.86H238.416V110.245H245.366V112.7H238.416V117.696H235.028ZM249.952 117.696V105.249H262.762V107.86H253.34V110.245H260.29V112.7H253.34V117.696H249.952ZM264.876 117.696V105.249H277.686V107.86H268.264V110.245H275.214V112.7H268.264V117.696H264.876ZM279.8 117.696V105.249H292.61V107.86H283.188V110.245H290.138V112.7H283.188V117.696H279.8Z" fill="#141414"/>
<rect width="132.899" height="42.6095" transform="translate(173.742 145.467)" fill="#02B96F"/>
<path d="M193.44 173.271L193.907 170.557H190.622L190.156 173.271H187.407L187.874 170.557H185.177L185.523 168.483H188.237L188.721 165.734H186.024L186.37 163.66H189.084L189.568 160.824H192.317L191.833 163.66H195.117L195.601 160.824H198.35L197.866 163.66H200.563L200.217 165.734H197.503L197.019 168.483H199.716L199.37 170.557H196.656L196.189 173.271H193.44ZM190.985 168.483H194.27L194.754 165.734H191.469L190.985 168.483ZM209.505 173.583C204.682 173.583 201.864 170.678 201.864 167.048C201.864 163.418 204.682 160.513 209.505 160.513C214.328 160.513 217.129 163.418 217.129 167.048C217.129 170.678 214.328 173.583 209.505 173.583ZM209.505 170.92C212.046 170.92 213.516 169.261 213.516 167.048C213.516 164.818 212.046 163.176 209.505 163.176C206.946 163.176 205.477 164.818 205.477 167.048C205.477 169.243 206.946 170.92 209.505 170.92ZM218.346 173.271V170.194L221.734 168.898C226.695 167.031 227.491 166.132 227.491 164.904C227.491 163.867 226.609 163.279 224.811 163.279C222.996 163.279 220.8 163.85 219.054 164.749H218.743V161.914C220.61 161.049 222.979 160.513 225.07 160.513C228.943 160.513 231.173 161.983 231.173 164.524C231.173 167.152 229.289 168.673 224.344 170.091L222.771 170.557V170.696L231.692 170.575V173.271H218.346ZM233.895 173.271V160.824H242.435C246.325 160.824 247.812 162.156 247.812 163.936C247.812 165.336 246.826 166.305 245.236 166.598V166.685C247.552 166.979 248.572 168.12 248.572 169.779C248.572 171.802 246.947 173.271 242.746 173.271H233.895ZM237.284 170.765H242.574C244.216 170.765 244.959 170.281 244.959 169.416C244.959 168.569 244.216 168.085 242.574 168.085H237.284V170.765ZM237.284 165.734H242.02C243.663 165.734 244.268 165.267 244.268 164.507C244.268 163.694 243.576 163.314 242.038 163.314H237.284V165.734ZM255.777 173.583C253.858 173.583 251.991 173.237 250.522 172.563V169.814H250.833C252.112 170.419 253.91 170.886 255.777 170.886C259.079 170.886 260.41 169.676 260.445 167.238H260.306C259.494 168.241 257.834 168.846 255.794 168.846C252.648 168.846 249.813 167.601 249.813 164.887C249.813 162.086 252.838 160.513 256.693 160.513C260.739 160.513 263.971 162.259 263.971 166.771C263.971 171.439 260.739 173.583 255.777 173.583ZM256.659 166.322C258.699 166.322 260.082 165.717 260.082 164.783C260.082 163.884 258.802 163.193 256.711 163.193C254.722 163.193 253.478 163.781 253.478 164.783C253.478 165.821 254.74 166.322 256.659 166.322ZM272.848 173.583C268.699 173.583 265.31 171.681 265.31 167.463C265.31 163.054 268.958 160.513 274.075 160.513C275.804 160.513 277.567 160.842 278.881 161.412V164.213H278.605C277.412 163.642 275.718 163.227 274.075 163.227C271.102 163.227 268.958 164.299 268.837 166.806H268.958C269.892 165.803 271.655 165.146 273.781 165.146C277.031 165.146 279.884 166.374 279.884 169.174C279.884 171.958 276.91 173.583 272.848 173.583ZM272.744 170.886C274.871 170.886 276.219 170.281 276.219 169.243C276.219 168.172 274.836 167.636 272.848 167.636C270.791 167.636 269.252 168.275 269.252 169.243C269.252 170.177 270.635 170.886 272.744 170.886ZM282.061 173.271V160.824H294.871V163.435H285.449V165.821H292.399V168.275H285.449V173.271H282.061Z" fill="#003922"/>
<rect x="51" y="205.364" width="255.641" height="46.2444" rx="23.1222" fill="#01B970"/>
<path d="M102.885 232.986V224.273H108.67C111.562 224.273 112.917 225.278 112.917 227.045C112.917 228.86 111.562 229.84 108.67 229.84H105.257V232.986H102.885ZM105.257 228.061H108.658C109.904 228.061 110.4 227.734 110.4 227.081C110.4 226.403 109.904 226.089 108.658 226.089H105.257V228.061ZM114.348 232.986V224.273H120.218C123.073 224.273 124.38 225.241 124.38 226.948C124.38 228.376 123.303 229.283 121.319 229.55L124.417 232.781V232.986H121.609L118.717 229.634H116.732V232.986H114.348ZM116.732 227.892H120.205C121.355 227.892 121.863 227.565 121.863 226.984C121.863 226.379 121.355 226.089 120.205 226.089H116.732V227.892ZM126.06 232.986V224.273H128.456V232.986H126.06ZM130.586 232.986V224.273H133.829L137.157 228.811H137.532L140.799 224.273H144.018V232.986H141.671L141.731 226.875H141.526L138.234 231.244H136.334L132.982 226.875H132.776L132.837 232.986H130.586ZM145.23 232.986V232.769L149.115 224.273H153.205L157.162 232.769V232.986H154.585L153.737 231.014H148.485L147.626 232.986H145.23ZM149.272 229.235H152.963L151.632 226.137H150.627L149.272 229.235ZM158.358 232.986V224.273H164.227C167.083 224.273 168.39 225.241 168.39 226.948C168.39 228.376 167.313 229.283 165.328 229.55L168.426 232.781V232.986H165.618L162.726 229.634H160.742V232.986H158.358ZM160.742 227.892H164.215C165.364 227.892 165.872 227.565 165.872 226.984C165.872 226.379 165.364 226.089 164.215 226.089H160.742V227.892ZM173.21 232.986V229.61L168.768 224.443V224.273H171.564L174.238 227.553H174.831L177.578 224.273H180.12V224.443L175.654 229.598V232.986H173.21ZM185.196 232.986V224.273H191.174C193.896 224.273 194.937 225.205 194.937 226.452C194.937 227.432 194.247 228.109 193.134 228.315V228.376C194.756 228.581 195.47 229.38 195.47 230.542C195.47 231.958 194.332 232.986 191.391 232.986H185.196ZM187.567 231.232H191.27C192.42 231.232 192.94 230.893 192.94 230.288C192.94 229.695 192.42 229.356 191.27 229.356H187.567V231.232ZM187.567 227.71H190.883C192.033 227.71 192.456 227.383 192.456 226.851C192.456 226.282 191.972 226.016 190.895 226.016H187.567V227.71ZM202.001 233.204C198.528 233.204 196.749 231.776 196.749 228.775V224.273H199.206V228.751C199.206 230.518 200.041 231.232 202.026 231.232C204.059 231.232 204.869 230.518 204.869 228.751V224.273L207.253 224.261V228.775C207.253 231.788 205.535 233.204 202.001 233.204ZM212.343 232.986V226.149H208.555V224.273H218.551V226.149H214.763V232.974L212.343 232.986ZM223.133 232.986V226.149H219.345V224.273H229.341V226.149H225.553V232.974L223.133 232.986ZM236.046 233.204C232.367 233.204 229.935 231.232 229.935 228.63C229.935 226.016 232.367 224.056 236.046 224.056C239.713 224.056 242.145 226.016 242.145 228.63C242.145 231.232 239.713 233.204 236.046 233.204ZM236.046 231.316C238.152 231.316 239.519 230.227 239.519 228.63C239.519 227.02 238.152 225.943 236.046 225.943C233.929 225.943 232.561 227.02 232.561 228.63C232.561 230.227 233.929 231.316 236.046 231.316ZM243.67 232.986V224.273H246.901L251.56 229.695H251.778L251.669 224.273H253.932V232.986H251.572L246.09 226.669H245.884L245.945 232.986H243.67Z" fill="white"/>
<rect x="51" y="268.896" width="255.641" height="46.2444" rx="23.1222" fill="#343434"/>
<path d="M98.7901 296.736C97.0959 296.736 95.2081 296.325 93.9738 295.708V293.699H94.1916C95.4986 294.425 97.3622 294.897 98.899 294.897C100.303 294.897 101.114 294.619 101.114 294.086C101.114 293.735 100.787 293.493 99.5041 293.287L97.4227 292.937C94.8935 292.525 93.9254 291.678 93.9254 290.359C93.9254 288.653 95.668 287.588 98.6086 287.588C100.194 287.588 101.924 287.951 103.147 288.495V290.468H102.929C101.67 289.827 99.9155 289.415 98.5239 289.415C97.1201 289.415 96.4062 289.657 96.4062 290.165C96.4062 290.54 96.7208 290.758 97.8825 290.952L100 291.303C102.711 291.726 103.606 292.574 103.606 293.868C103.606 295.623 101.876 296.736 98.7901 296.736ZM105.139 296.519V287.806H114.421V289.609H107.535V291.182H112.4V292.888H107.535V294.703H114.59V296.519H105.139ZM121.506 296.736C117.67 296.736 115.395 294.715 115.395 292.15C115.395 289.597 117.67 287.588 121.482 287.588C122.982 287.588 124.616 288.036 125.62 288.665V290.819H125.415C124.374 290.02 122.898 289.572 121.591 289.572C119.352 289.572 118.021 290.589 118.021 292.138C118.021 293.699 119.364 294.715 121.603 294.715C123.031 294.715 124.422 294.256 125.439 293.493H125.645V295.635C124.592 296.325 123.006 296.736 121.506 296.736ZM132.851 296.736C129.172 296.736 126.74 294.764 126.74 292.162C126.74 289.548 129.172 287.588 132.851 287.588C136.518 287.588 138.95 289.548 138.95 292.162C138.95 294.764 136.518 296.736 132.851 296.736ZM132.851 294.849C134.957 294.849 136.324 293.759 136.324 292.162C136.324 290.553 134.957 289.476 132.851 289.476C130.733 289.476 129.366 290.553 129.366 292.162C129.366 293.759 130.733 294.849 132.851 294.849ZM140.474 296.519V287.806H143.705L148.364 293.227H148.582L148.473 287.806H150.736V296.519H148.376L142.895 290.202H142.689L142.749 296.519H140.474ZM152.871 296.519V287.806H157.228C161.995 287.806 163.956 289.645 163.956 292.162C163.956 294.703 161.995 296.519 157.228 296.519H152.871ZM155.279 294.691H157.131C160.096 294.691 161.354 293.82 161.354 292.162C161.354 290.589 160.096 289.621 157.131 289.621H155.279V294.691ZM164.384 296.519V296.301L168.268 287.806H172.358L176.316 296.301V296.519H173.738L172.891 294.546H167.639L166.78 296.519H164.384ZM168.425 292.767H172.116L170.785 289.669H169.781L168.425 292.767ZM177.511 296.519V287.806H183.38C186.236 287.806 187.543 288.774 187.543 290.48C187.543 291.908 186.466 292.816 184.481 293.082L187.579 296.313V296.519H184.772L181.88 293.166H179.895V296.519H177.511ZM179.895 291.424H183.368C184.518 291.424 185.026 291.097 185.026 290.516C185.026 289.911 184.518 289.621 183.368 289.621H179.895V291.424ZM192.363 296.519V293.142L187.922 287.975V287.806H190.717L193.392 291.085H193.985L196.732 287.806H199.273V287.975L194.808 293.13V296.519H192.363ZM204.349 296.519V287.806H210.327C213.05 287.806 214.091 288.737 214.091 289.984C214.091 290.964 213.401 291.642 212.287 291.847V291.908C213.909 292.114 214.623 292.912 214.623 294.074C214.623 295.49 213.486 296.519 210.545 296.519H204.349ZM206.721 294.764H210.424C211.574 294.764 212.094 294.425 212.094 293.82C212.094 293.227 211.574 292.888 210.424 292.888H206.721V294.764ZM206.721 291.242H210.037C211.186 291.242 211.61 290.916 211.61 290.383C211.61 289.814 211.126 289.548 210.049 289.548H206.721V291.242ZM221.155 296.736C217.682 296.736 215.903 295.308 215.903 292.307V287.806H218.359V292.283C218.359 294.05 219.194 294.764 221.179 294.764C223.212 294.764 224.023 294.05 224.023 292.283V287.806L226.407 287.793V292.307C226.407 295.321 224.688 296.736 221.155 296.736ZM231.497 296.519V289.681H227.709V287.806H237.705V289.681H233.917V296.506L231.497 296.519ZM244.41 296.736C240.731 296.736 238.299 294.764 238.299 292.162C238.299 289.548 240.731 287.588 244.41 287.588C248.077 287.588 250.509 289.548 250.509 292.162C250.509 294.764 248.077 296.736 244.41 296.736ZM244.41 294.849C246.516 294.849 247.883 293.759 247.883 292.162C247.883 290.553 246.516 289.476 244.41 289.476C242.292 289.476 240.925 290.553 240.925 292.162C240.925 293.759 242.292 294.849 244.41 294.849ZM252.033 296.519V287.806H255.265L259.924 293.227H260.141L260.032 287.806H262.295V296.519H259.936L254.454 290.202H254.248L254.309 296.519H252.033Z" fill="#B7B7B7"/>
<path d="M326.589 77.3164V76.5903L341.519 60.7527V60.2535L326.771 45.3235V44.6428H341.066L349.506 54.3087H349.915L357.947 44.6428H371.289V45.3235L356.359 60.7981V61.2519L371.652 76.5903V77.3164H357.357L348.372 67.242H347.963L339.931 77.3164H326.589ZM374.879 77.3164V44.6428H386.224V68.7396H408.369V77.3164H374.879ZM427.704 77.3164V44.6428H445.221C463.418 44.6428 470.634 51.5406 470.634 60.9796C470.634 70.5094 463.418 77.3164 445.221 77.3164H427.704ZM439.14 69.1934H444.767C454.115 69.1934 458.336 66.6067 458.336 60.9796C458.336 55.7155 454.115 52.6751 444.767 52.6751H439.14V69.1934ZM474.307 77.3164V52.9927H485.198V77.3164H474.307ZM479.753 51.359C476.122 51.359 473.535 49.5892 473.535 47.1387C473.535 44.6428 476.122 42.9184 479.753 42.9184C483.428 42.9184 485.97 44.6428 485.97 47.1387C485.97 49.5892 483.428 51.359 479.753 51.359ZM504.562 78.224C499.207 78.224 493.308 77.0895 489.632 75.4104V67.8774H490.539C493.308 69.5564 499.661 71.2809 505.424 71.2809C508.056 71.2809 508.782 71.0086 508.782 70.4186C508.782 69.8741 508.147 69.511 504.925 69.0572L500.568 68.4219C492.219 67.1967 488.951 64.5192 488.951 60.3443C488.951 55.3525 493.852 52.0851 503.337 52.0851C508.192 52.0851 513.774 52.9927 517.858 54.6264V61.9326H516.951C513.139 60.1628 507.194 58.9375 502.384 58.9375C500.069 58.9375 499.525 59.2098 499.525 59.709C499.525 60.2535 500.069 60.6166 503.246 61.1157L507.375 61.7511C515.589 63.0217 519.401 65.4722 519.401 69.7379C519.401 74.9566 514.273 78.224 504.562 78.224ZM522.744 86.3016V52.9927H533.317V55.897H533.953C535.904 53.7188 539.262 52.0851 543.8 52.0851C552.377 52.0851 558.004 57.2584 558.004 65.1092C558.004 73.0053 552.241 78.224 543.528 78.224C539.081 78.224 536.085 76.7718 534.406 74.8205H533.635V86.3016H522.744ZM539.988 70.3733C543.845 70.3733 546.568 68.2858 546.568 65.1546C546.568 62.0687 543.982 59.9359 540.124 59.9359C536.176 59.9359 533.317 62.0687 533.317 65.1546C533.317 68.3765 536.04 70.3733 539.988 70.3733ZM561.432 77.3164V44.6428H572.323V77.3164H561.432ZM586.652 78.1786C579.618 78.1786 575.942 75.2743 575.942 71.0086C575.942 66.1983 580.299 63.3394 590.509 62.5679C592.824 62.3864 595.274 62.2502 597.407 62.2049C596.726 60.435 595.002 59.709 591.099 59.709C587.287 59.709 582.25 60.7981 578.483 62.341H577.621V54.7625C581.751 53.2196 587.469 52.0851 592.96 52.0851C603.216 52.0851 608.298 55.2163 608.298 63.2486V77.3164H598.042V74.5482H597.362C595.41 76.4088 591.78 78.1786 586.652 78.1786ZM586.697 69.9195C586.697 70.8271 587.696 71.2355 590.055 71.2355C593.323 71.2355 597.543 70.4186 597.77 67.6958C595.909 67.7866 593.686 67.9227 591.734 68.1043C587.514 68.5127 586.697 69.0119 586.697 69.9195ZM618.275 86.3016V85.4848L623.313 75.4558H620.68L609.063 53.8096V52.9927H620.726L626.852 67.4689H628.44L634.385 52.9927H645.004V53.8096L628.804 86.3016H618.275Z" fill="white"/>
<path d="M329.206 132.483V110.701H340.097C352.017 110.701 356.918 115.299 356.918 121.592C356.918 127.945 352.017 132.483 340.097 132.483H329.206ZM335.227 127.915H339.855C347.267 127.915 350.414 125.737 350.414 121.592C350.414 117.659 347.267 115.239 339.855 115.239H335.227V127.915ZM360.246 132.483V116.389H365.994V132.483H360.246ZM363.12 114.876C361.123 114.876 359.671 113.817 359.671 112.425C359.671 110.973 361.123 109.945 363.12 109.945C365.147 109.945 366.539 110.973 366.539 112.425C366.539 113.817 365.147 114.876 363.12 114.876ZM379.368 133.028C375.828 133.028 372.016 132.241 369.687 131.122V126.826H370.201C372.198 128.006 376.07 129.035 379.761 129.035C382.212 129.035 383.149 128.702 383.149 128.006C383.149 127.431 382.575 127.129 380.003 126.735L376.524 126.191C371.411 125.404 369.354 123.77 369.354 121.108C369.354 117.901 372.682 115.844 378.49 115.844C381.637 115.844 385.146 116.479 387.778 117.599V121.774H387.234C384.723 120.564 381.153 119.807 378.067 119.807C375.919 119.807 375.011 120.14 375.011 120.806C375.011 121.35 375.526 121.653 377.916 122.046L381.425 122.591C386.538 123.407 388.807 124.92 388.807 127.643C388.807 130.971 385.479 133.028 379.368 133.028ZM391.917 138.474V116.389H397.514V118.567H397.846C399.238 116.994 401.689 115.844 404.835 115.844C410.583 115.844 414.425 119.293 414.425 124.406C414.425 129.549 410.492 133.028 404.714 133.028C401.537 133.028 399.299 131.939 398.088 130.547H397.665V138.474H391.917ZM403.05 128.641C406.227 128.641 408.405 126.977 408.405 124.436C408.405 121.925 406.287 120.261 403.11 120.261C399.843 120.261 397.483 121.985 397.483 124.436C397.483 126.947 399.783 128.641 403.05 128.641ZM417.65 132.483V110.701H423.398V132.483H417.65ZM433.957 133.028C429.389 133.028 426.817 131.213 426.817 128.339C426.817 125.132 429.722 123.347 436.226 122.833C438.041 122.681 440.008 122.591 441.702 122.53C441.309 120.866 440.008 120.201 436.801 120.201C434.23 120.201 430.902 120.957 428.421 122.016H427.907V117.69C430.599 116.631 434.23 115.844 437.678 115.844C444.183 115.844 447.42 117.932 447.42 123.105V132.483H441.974V130.396H441.642C440.28 131.788 437.406 133.028 433.957 133.028ZM432.566 127.794C432.566 128.611 433.443 128.974 435.44 128.974C438.526 128.974 441.732 128.066 441.823 125.858C440.401 125.918 438.495 126.039 436.862 126.16C433.594 126.493 432.566 126.887 432.566 127.794ZM454.825 138.474V137.99L458.183 131.425H456.58L448.835 116.873V116.389H455.037L459.908 126.947H460.997L465.746 116.389H471.434V116.873L460.482 138.474H454.825Z" fill="white"/>
<path d="M328.636 177.649V160.535H333.39V166.929H344.134V160.535H348.888V177.649H344.134V170.566H333.39V177.649H328.636ZM361.09 178.077C354.72 178.077 351.843 175.058 351.843 171.35C351.843 167.785 354.981 164.576 360.543 164.576C365.939 164.576 368.839 167.761 368.53 172.372H356.407C356.835 173.965 358.356 174.773 361.233 174.773C363.562 174.773 365.749 174.298 367.365 173.49H367.77V176.746C366.106 177.578 363.586 178.077 361.09 178.077ZM356.502 169.805H363.99C363.752 168.593 362.397 167.713 360.401 167.713C358.309 167.713 357.002 168.474 356.502 169.805ZM375.958 178.077C372.368 178.077 370.348 176.651 370.348 174.393C370.348 171.873 372.63 170.471 377.74 170.067C379.167 169.948 380.712 169.876 382.043 169.829C381.734 168.522 380.712 167.999 378.192 167.999C376.172 167.999 373.557 168.593 371.608 169.425H371.203V166.026C373.319 165.194 376.172 164.576 378.881 164.576C383.992 164.576 386.535 166.216 386.535 170.281V177.649H382.257V176.009H381.995C380.926 177.103 378.667 178.077 375.958 178.077ZM374.864 173.965C374.864 174.607 375.553 174.892 377.122 174.892C379.547 174.892 382.067 174.179 382.138 172.444C381.021 172.491 379.523 172.586 378.24 172.681C375.672 172.943 374.864 173.252 374.864 173.965ZM396.475 178.077C391.958 178.077 388.892 175.344 388.892 171.35C388.892 167.357 392.03 164.576 396.594 164.576C398.923 164.576 400.801 165.431 401.799 166.549H402.084V160.535H406.601V177.649H402.203V175.914H401.918C400.825 177.222 398.947 178.077 396.475 178.077ZM397.782 174.631C400.349 174.631 402.203 173.276 402.203 171.35C402.203 169.377 400.397 168.046 397.853 168.046C395.31 168.046 393.622 169.354 393.622 171.326C393.622 173.323 395.262 174.631 397.782 174.631ZM418.357 178.077C411.987 178.077 409.111 175.058 409.111 171.35C409.111 167.785 412.248 164.576 417.811 164.576C423.207 164.576 426.107 167.761 425.798 172.372H413.675C414.103 173.965 415.624 174.773 418.5 174.773C420.83 174.773 423.016 174.298 424.633 173.49H425.037V176.746C423.373 177.578 420.853 178.077 418.357 178.077ZM413.77 169.805H421.257C421.02 168.593 419.665 167.713 417.668 167.713C415.576 167.713 414.269 168.474 413.77 169.805ZM428.304 177.649V165.004H432.678V167.285H433.011C434.152 165.645 436.196 164.576 438.716 164.576C439.31 164.576 440 164.671 440.427 164.79V168.783H440.047C439.572 168.664 438.906 168.569 438.336 168.569C435.127 168.569 432.868 170.281 432.868 174.013V177.649H428.304ZM456.275 177.649V164.932L449.905 167.618H449.525V163.625L456.941 160.535H461.077V177.649H456.275Z" fill="white"/>
<path d="M328.065 215.816V203.369H331.523V208.02H339.337V203.369H342.794V215.816H339.337V210.665H331.523V215.816H328.065ZM351.668 216.128C347.035 216.128 344.944 213.932 344.944 211.235C344.944 208.642 347.225 206.308 351.271 206.308C355.195 206.308 357.304 208.625 357.079 211.979H348.263C348.574 213.137 349.68 213.725 351.772 213.725C353.466 213.725 355.057 213.379 356.232 212.791H356.526V215.159C355.316 215.765 353.484 216.128 351.668 216.128ZM348.332 210.111H353.777C353.605 209.23 352.619 208.59 351.167 208.59C349.646 208.59 348.695 209.143 348.332 210.111ZM362.481 216.128C359.871 216.128 358.401 215.09 358.401 213.448C358.401 211.616 360.061 210.596 363.778 210.302C364.815 210.215 365.939 210.163 366.907 210.129C366.682 209.178 365.939 208.798 364.106 208.798C362.637 208.798 360.735 209.23 359.317 209.835H359.024V207.363C360.562 206.758 362.637 206.308 364.608 206.308C368.324 206.308 370.174 207.501 370.174 210.457V215.816H367.062V214.624H366.872C366.094 215.419 364.452 216.128 362.481 216.128ZM361.686 213.137C361.686 213.604 362.187 213.811 363.328 213.811C365.092 213.811 366.924 213.292 366.976 212.03C366.163 212.065 365.074 212.134 364.141 212.203C362.274 212.393 361.686 212.618 361.686 213.137ZM377.403 216.128C374.118 216.128 371.888 214.14 371.888 211.235C371.888 208.331 374.17 206.308 377.489 206.308C379.183 206.308 380.549 206.931 381.275 207.743H381.483V203.369H384.767V215.816H381.569V214.554H381.362C380.566 215.505 379.201 216.128 377.403 216.128ZM378.353 213.621C380.221 213.621 381.569 212.635 381.569 211.235C381.569 209.8 380.255 208.832 378.405 208.832C376.556 208.832 375.328 209.783 375.328 211.218C375.328 212.67 376.521 213.621 378.353 213.621ZM393.317 216.128C388.684 216.128 386.593 213.932 386.593 211.235C386.593 208.642 388.874 206.308 392.92 206.308C396.844 206.308 398.953 208.625 398.728 211.979H389.912C390.223 213.137 391.329 213.725 393.421 213.725C395.115 213.725 396.706 213.379 397.881 212.791H398.175V215.159C396.965 215.765 395.133 216.128 393.317 216.128ZM389.981 210.111H395.426C395.254 209.23 394.268 208.59 392.816 208.59C391.295 208.59 390.344 209.143 389.981 210.111ZM400.552 215.816V206.619H403.733V208.279H403.975C404.804 207.086 406.291 206.308 408.124 206.308C408.556 206.308 409.057 206.377 409.368 206.464V209.368H409.092C408.746 209.282 408.262 209.213 407.847 209.213C405.513 209.213 403.871 210.457 403.871 213.171V215.816H400.552ZM416.14 215.816V212.739L419.528 211.443C424.49 209.576 425.285 208.677 425.285 207.449C425.285 206.412 424.404 205.824 422.606 205.824C420.79 205.824 418.595 206.395 416.849 207.294H416.538V204.458C418.405 203.594 420.773 203.058 422.865 203.058C426.737 203.058 428.967 204.528 428.967 207.069C428.967 209.697 427.083 211.218 422.139 212.635L420.566 213.102V213.241L429.486 213.12V215.816H416.14Z" fill="white"/>
<path d="M327.953 249.983V238.564H329.994V243.312H335.55V238.564H337.583V249.983H335.55V245.029H329.994V249.983H327.953ZM343.906 250.157C343.047 250.157 342.308 249.975 341.691 249.611C341.079 249.247 340.606 248.73 340.274 248.06C339.942 247.39 339.776 246.596 339.776 245.678V245.67C339.776 244.763 339.939 243.972 340.266 243.296C340.599 242.621 341.068 242.099 341.675 241.729C342.282 241.355 342.994 241.168 343.812 241.168C344.635 241.168 345.341 241.35 345.932 241.714C346.529 242.072 346.988 242.576 347.309 243.225C347.631 243.874 347.792 244.634 347.792 245.504V246.153H340.765V244.832H346.827L345.893 246.066V245.283C345.893 244.708 345.806 244.23 345.632 243.85C345.458 243.47 345.215 243.186 344.904 242.996C344.598 242.806 344.241 242.711 343.835 242.711C343.429 242.711 343.068 242.811 342.751 243.011C342.44 243.207 342.192 243.497 342.007 243.882C341.828 244.262 341.738 244.729 341.738 245.283V246.074C341.738 246.607 341.828 247.063 342.007 247.443C342.187 247.818 342.44 248.108 342.767 248.314C343.099 248.514 343.492 248.614 343.946 248.614C344.3 248.614 344.603 248.564 344.856 248.464C345.115 248.358 345.323 248.234 345.481 248.092C345.64 247.944 345.75 247.805 345.814 247.673L345.837 247.617H347.705L347.689 247.688C347.621 247.968 347.494 248.253 347.309 248.543C347.13 248.828 346.885 249.094 346.573 249.342C346.267 249.585 345.893 249.783 345.45 249.936C345.006 250.084 344.492 250.157 343.906 250.157ZM352.121 250.126C351.577 250.126 351.089 250.02 350.657 249.809C350.229 249.598 349.892 249.3 349.644 248.915C349.401 248.525 349.28 248.066 349.28 247.538V247.522C349.28 247.011 349.406 246.57 349.66 246.201C349.913 245.826 350.285 245.533 350.776 245.322C351.266 245.111 351.862 244.987 352.564 244.95L355.761 244.752V246.05L352.841 246.24C352.287 246.272 351.878 246.388 351.614 246.588C351.351 246.789 351.219 247.069 351.219 247.427V247.443C351.219 247.812 351.359 248.1 351.638 248.306C351.923 248.511 352.284 248.614 352.722 248.614C353.118 248.614 353.471 248.535 353.783 248.377C354.094 248.219 354.339 248.005 354.519 247.736C354.698 247.462 354.788 247.153 354.788 246.81V244.072C354.788 243.639 354.651 243.31 354.376 243.083C354.102 242.851 353.696 242.734 353.158 242.734C352.709 242.734 352.342 242.814 352.058 242.972C351.773 243.125 351.58 243.344 351.48 243.629L351.472 243.66H349.612L349.62 243.589C349.683 243.104 349.873 242.679 350.19 242.315C350.506 241.951 350.926 241.669 351.448 241.468C351.97 241.268 352.572 241.168 353.252 241.168C354.002 241.168 354.635 241.284 355.152 241.516C355.669 241.743 356.062 242.075 356.331 242.513C356.6 242.946 356.735 243.465 356.735 244.072V249.983H354.788V248.796H354.653C354.495 249.071 354.289 249.308 354.036 249.509C353.788 249.709 353.503 249.862 353.181 249.968C352.859 250.073 352.506 250.126 352.121 250.126ZM362.219 250.126C361.501 250.126 360.876 249.946 360.343 249.588C359.81 249.224 359.399 248.707 359.109 248.037C358.818 247.367 358.673 246.578 358.673 245.67V245.655C358.673 244.737 358.816 243.945 359.101 243.281C359.391 242.611 359.8 242.096 360.327 241.737C360.86 241.373 361.491 241.191 362.219 241.191C362.614 241.191 362.984 241.255 363.327 241.381C363.669 241.503 363.97 241.677 364.229 241.904C364.493 242.13 364.698 242.399 364.846 242.711H364.988V237.986H366.951V249.983H364.988V248.63H364.846C364.688 248.941 364.479 249.21 364.221 249.437C363.968 249.659 363.672 249.83 363.334 249.952C362.997 250.068 362.625 250.126 362.219 250.126ZM362.836 248.464C363.284 248.464 363.669 248.353 363.991 248.132C364.318 247.905 364.569 247.583 364.743 247.166C364.922 246.744 365.012 246.246 365.012 245.67V245.655C365.012 245.074 364.922 244.576 364.743 244.159C364.569 243.742 364.318 243.42 363.991 243.193C363.669 242.967 363.284 242.853 362.836 242.853C362.393 242.853 362.008 242.967 361.681 243.193C361.359 243.415 361.111 243.737 360.937 244.159C360.763 244.576 360.675 245.074 360.675 245.655V245.67C360.675 246.251 360.763 246.749 360.937 247.166C361.111 247.583 361.359 247.905 361.681 248.132C362.002 248.353 362.387 248.464 362.836 248.464ZM373.139 250.157C372.28 250.157 371.541 249.975 370.924 249.611C370.312 249.247 369.839 248.73 369.507 248.06C369.175 247.39 369.009 246.596 369.009 245.678V245.67C369.009 244.763 369.172 243.972 369.499 243.296C369.832 242.621 370.301 242.099 370.908 241.729C371.515 241.355 372.227 241.168 373.045 241.168C373.868 241.168 374.574 241.35 375.165 241.714C375.762 242.072 376.221 242.576 376.542 243.225C376.864 243.874 377.025 244.634 377.025 245.504V246.153H369.998V244.832H376.06L375.126 246.066V245.283C375.126 244.708 375.039 244.23 374.865 243.85C374.691 243.47 374.448 243.186 374.137 242.996C373.831 242.806 373.474 242.711 373.068 242.711C372.662 242.711 372.301 242.811 371.984 243.011C371.673 243.207 371.425 243.497 371.24 243.882C371.061 244.262 370.971 244.729 370.971 245.283V246.074C370.971 246.607 371.061 247.063 371.24 247.443C371.42 247.818 371.673 248.108 372 248.314C372.332 248.514 372.725 248.614 373.179 248.614C373.533 248.614 373.836 248.564 374.089 248.464C374.348 248.358 374.556 248.234 374.714 248.092C374.873 247.944 374.983 247.805 375.047 247.673L375.07 247.617H376.938L376.922 247.688C376.854 247.968 376.727 248.253 376.542 248.543C376.363 248.828 376.118 249.094 375.806 249.342C375.5 249.585 375.126 249.783 374.683 249.936C374.239 250.084 373.725 250.157 373.139 250.157ZM378.996 249.983V241.334H380.966V242.663H381.101C381.248 242.199 381.512 241.838 381.892 241.579C382.277 241.321 382.755 241.191 383.324 241.191C383.472 241.191 383.617 241.202 383.76 241.223C383.907 241.239 384.029 241.26 384.124 241.286V243.051C383.965 243.014 383.804 242.988 383.641 242.972C383.483 242.951 383.316 242.94 383.142 242.94C382.704 242.94 382.322 243.022 381.995 243.186C381.668 243.349 381.415 243.584 381.235 243.89C381.056 244.191 380.966 244.547 380.966 244.958V249.983H378.996ZM394.166 250.213C393.332 250.213 392.602 250.073 391.974 249.793C391.351 249.514 390.858 249.126 390.494 248.63C390.135 248.129 389.93 247.551 389.877 246.897L389.869 246.802H391.816L391.824 246.889C391.861 247.211 391.979 247.499 392.18 247.752C392.38 248 392.649 248.195 392.987 248.337C393.325 248.475 393.718 248.543 394.166 248.543C394.604 248.543 394.986 248.467 395.314 248.314C395.646 248.161 395.904 247.95 396.089 247.681C396.274 247.411 396.366 247.1 396.366 246.747V246.731C396.366 246.129 396.158 245.668 395.741 245.346C395.324 245.024 394.749 244.863 394.016 244.863H392.662V243.344H393.976C394.393 243.344 394.76 243.27 395.076 243.122C395.393 242.975 395.638 242.774 395.812 242.521C395.986 242.262 396.073 241.967 396.073 241.635V241.619C396.073 241.265 395.997 240.964 395.844 240.717C395.696 240.469 395.477 240.279 395.187 240.147C394.902 240.015 394.556 239.949 394.15 239.949C393.749 239.949 393.393 240.017 393.082 240.155C392.776 240.292 392.531 240.487 392.346 240.74C392.161 240.988 392.05 241.281 392.014 241.619L392.006 241.698H390.114L390.122 241.603C390.18 240.943 390.381 240.371 390.724 239.886C391.072 239.395 391.536 239.015 392.116 238.746C392.702 238.472 393.38 238.335 394.15 238.335C394.936 238.335 395.62 238.464 396.2 238.722C396.78 238.976 397.229 239.326 397.545 239.775C397.867 240.223 398.028 240.748 398.028 241.35V241.365C398.028 241.835 397.922 242.252 397.711 242.616C397.506 242.975 397.221 243.273 396.857 243.51C396.498 243.747 396.089 243.914 395.63 244.009V244.048C396.474 244.127 397.152 244.407 397.664 244.887C398.176 245.362 398.432 245.995 398.432 246.786V246.802C398.432 247.467 398.252 248.058 397.893 248.575C397.535 249.087 397.033 249.487 396.39 249.778C395.751 250.068 395.01 250.213 394.166 250.213Z" fill="white"/>
<path d="M328.279 282.149V281.143H331.102C331.79 281.143 332.311 281.006 332.666 280.731C333.02 280.457 333.198 280.058 333.198 279.535V279.522C333.198 279.172 333.115 278.878 332.951 278.642C332.786 278.406 332.539 278.228 332.21 278.11C331.885 277.992 331.48 277.933 330.995 277.933H328.279V276.952H330.672C331.364 276.952 331.883 276.829 332.229 276.585C332.579 276.34 332.755 275.977 332.755 275.496V275.483C332.755 275.019 332.596 274.66 332.28 274.407C331.967 274.149 331.528 274.021 330.963 274.021H328.279V273.014H331.203C331.765 273.014 332.246 273.107 332.647 273.292C333.052 273.478 333.362 273.742 333.578 274.084C333.797 274.421 333.907 274.822 333.907 275.287V275.299C333.907 275.616 333.835 275.913 333.692 276.192C333.552 276.471 333.364 276.705 333.128 276.895C332.892 277.085 332.626 277.207 332.33 277.262V277.363C332.748 277.414 333.109 277.538 333.413 277.737C333.717 277.935 333.951 278.193 334.116 278.509C334.285 278.821 334.369 279.178 334.369 279.579V279.592C334.369 280.124 334.244 280.581 333.995 280.966C333.751 281.345 333.398 281.639 332.938 281.846C332.478 282.048 331.923 282.149 331.273 282.149H328.279ZM327.709 282.149V273.014H328.848V282.149H327.709ZM338.896 282.27C338.25 282.27 337.691 282.128 337.218 281.846C336.749 281.559 336.386 281.151 336.129 280.624C335.876 280.096 335.749 279.469 335.749 278.743V278.731C335.749 278.001 335.876 277.372 336.129 276.844C336.386 276.317 336.749 275.911 337.218 275.629C337.691 275.346 338.25 275.204 338.896 275.204C339.546 275.204 340.105 275.346 340.573 275.629C341.042 275.911 341.403 276.317 341.656 276.844C341.913 277.372 342.042 278.001 342.042 278.731V278.743C342.042 279.469 341.913 280.096 341.656 280.624C341.403 281.151 341.042 281.559 340.573 281.846C340.105 282.128 339.546 282.27 338.896 282.27ZM338.896 281.295C339.326 281.295 339.691 281.193 339.991 280.991C340.29 280.788 340.518 280.497 340.675 280.117C340.835 279.737 340.915 279.279 340.915 278.743V278.731C340.915 278.19 340.835 277.73 340.675 277.351C340.518 276.971 340.29 276.682 339.991 276.483C339.691 276.281 339.326 276.179 338.896 276.179C338.465 276.179 338.1 276.281 337.8 276.483C337.501 276.682 337.271 276.971 337.11 277.351C336.954 277.73 336.876 278.19 336.876 278.731V278.743C336.876 279.279 336.954 279.737 337.11 280.117C337.271 280.497 337.501 280.788 337.8 280.991C338.1 281.193 338.465 281.295 338.896 281.295ZM346.271 282.27C345.697 282.27 345.195 282.124 344.764 281.833C344.334 281.542 344 281.132 343.764 280.605C343.528 280.073 343.41 279.452 343.41 278.743V278.731C343.41 278.017 343.528 277.397 343.764 276.869C344 276.342 344.332 275.932 344.758 275.641C345.188 275.35 345.693 275.204 346.271 275.204C346.583 275.204 346.877 275.255 347.151 275.356C347.43 275.453 347.677 275.591 347.892 275.768C348.107 275.945 348.276 276.156 348.398 276.401H348.5V272.615H349.601V282.149H348.5V281.06H348.398C348.259 281.314 348.084 281.531 347.873 281.713C347.662 281.89 347.421 282.027 347.151 282.124C346.881 282.221 346.588 282.27 346.271 282.27ZM346.524 281.295C346.938 281.295 347.295 281.191 347.594 280.985C347.894 280.778 348.124 280.484 348.284 280.105C348.445 279.72 348.525 279.267 348.525 278.743V278.731C348.525 278.203 348.445 277.749 348.284 277.37C348.124 276.99 347.894 276.696 347.594 276.49C347.295 276.283 346.938 276.179 346.524 276.179C346.111 276.179 345.754 276.283 345.454 276.49C345.159 276.692 344.931 276.983 344.771 277.363C344.614 277.743 344.536 278.199 344.536 278.731V278.743C344.536 279.271 344.614 279.727 344.771 280.111C344.931 280.491 345.159 280.784 345.454 280.991C345.754 281.193 346.111 281.295 346.524 281.295ZM352.298 284.543C352.226 284.543 352.146 284.538 352.058 284.53C351.969 284.526 351.887 284.517 351.811 284.505V283.599C351.878 283.612 351.952 283.62 352.032 283.625C352.112 283.629 352.19 283.631 352.266 283.631C352.579 283.631 352.834 283.551 353.033 283.39C353.235 283.23 353.398 282.953 353.52 282.561L353.647 282.156L351.121 275.325H352.298L354.4 281.63L353.963 280.94H354.482L354.045 281.63L356.141 275.325H357.3L354.634 282.567C354.449 283.078 354.252 283.477 354.045 283.764C353.839 284.051 353.596 284.251 353.317 284.365C353.043 284.483 352.703 284.543 352.298 284.543ZM364.631 282.149V274.28H364.529L362.206 275.964V274.761L364.637 273.014H365.77V282.149H364.631Z" fill="white"/>
<path d="M327.99 310.316V309.478H330.342C330.916 309.478 331.35 309.363 331.646 309.135C331.941 308.906 332.089 308.574 332.089 308.138V308.127C332.089 307.835 332.02 307.591 331.883 307.394C331.746 307.197 331.54 307.049 331.266 306.95C330.995 306.852 330.657 306.803 330.253 306.803H327.99V305.985H329.984C330.561 305.985 330.993 305.883 331.282 305.679C331.574 305.475 331.719 305.173 331.719 304.772V304.761C331.719 304.374 331.588 304.075 331.324 303.864C331.064 303.65 330.698 303.542 330.226 303.542H327.99V302.703H330.427C330.895 302.703 331.296 302.781 331.63 302.936C331.967 303.09 332.226 303.31 332.405 303.595C332.588 303.876 332.68 304.211 332.68 304.597V304.608C332.68 304.872 332.62 305.12 332.5 305.352C332.384 305.584 332.228 305.779 332.031 305.938C331.834 306.096 331.612 306.198 331.366 306.244V306.328C331.714 306.37 332.015 306.474 332.268 306.639C332.521 306.805 332.717 307.019 332.854 307.283C332.994 307.543 333.065 307.84 333.065 308.174V308.185C333.065 308.628 332.961 309.01 332.754 309.33C332.55 309.646 332.256 309.891 331.872 310.063C331.489 310.232 331.027 310.316 330.485 310.316H327.99ZM327.515 310.316V302.703H328.464V310.316H327.515ZM336.837 310.417C336.299 310.417 335.833 310.299 335.439 310.063C335.048 309.824 334.746 309.485 334.531 309.045C334.32 308.605 334.215 308.083 334.215 307.478V307.467C334.215 306.859 334.32 306.335 334.531 305.895C334.746 305.456 335.048 305.118 335.439 304.882C335.833 304.647 336.299 304.529 336.837 304.529C337.379 304.529 337.845 304.647 338.235 304.882C338.625 305.118 338.926 305.456 339.137 305.895C339.352 306.335 339.459 306.859 339.459 307.467V307.478C339.459 308.083 339.352 308.605 339.137 309.045C338.926 309.485 338.625 309.824 338.235 310.063C337.845 310.299 337.379 310.417 336.837 310.417ZM336.837 309.604C337.196 309.604 337.5 309.52 337.75 309.351C337.999 309.182 338.189 308.939 338.319 308.623C338.453 308.306 338.52 307.925 338.52 307.478V307.467C338.52 307.017 338.453 306.634 338.319 306.317C338.189 306.001 337.999 305.76 337.75 305.595C337.5 305.426 337.196 305.341 336.837 305.341C336.478 305.341 336.174 305.426 335.924 305.595C335.675 305.76 335.483 306.001 335.349 306.317C335.219 306.634 335.154 307.017 335.154 307.467V307.478C335.154 307.925 335.219 308.306 335.349 308.623C335.483 308.939 335.675 309.182 335.924 309.351C336.174 309.52 336.478 309.604 336.837 309.604ZM342.983 310.417C342.505 310.417 342.086 310.295 341.728 310.053C341.369 309.81 341.091 309.469 340.894 309.029C340.697 308.586 340.599 308.069 340.599 307.478V307.467C340.599 306.873 340.697 306.356 340.894 305.916C341.091 305.477 341.367 305.136 341.722 304.893C342.081 304.65 342.501 304.529 342.983 304.529C343.243 304.529 343.488 304.571 343.717 304.656C343.949 304.736 344.154 304.851 344.334 304.998C344.513 305.146 344.654 305.322 344.756 305.526H344.84V302.371H345.758V310.316H344.84V309.409H344.756C344.64 309.62 344.494 309.801 344.318 309.952C344.142 310.1 343.942 310.214 343.717 310.295C343.491 310.376 343.247 310.417 342.983 310.417ZM343.194 309.604C343.539 309.604 343.836 309.518 344.086 309.346C344.336 309.173 344.527 308.929 344.661 308.612C344.795 308.292 344.861 307.914 344.861 307.478V307.467C344.861 307.028 344.795 306.65 344.661 306.333C344.527 306.017 344.336 305.772 344.086 305.6C343.836 305.428 343.539 305.341 343.194 305.341C342.85 305.341 342.552 305.428 342.303 305.6C342.056 305.769 341.867 306.011 341.733 306.328C341.603 306.644 341.538 307.024 341.538 307.467V307.478C341.538 307.918 341.603 308.298 341.733 308.618C341.867 308.934 342.056 309.179 342.303 309.351C342.552 309.52 342.85 309.604 343.194 309.604ZM348.006 312.311C347.946 312.311 347.879 312.307 347.805 312.3C347.731 312.297 347.663 312.29 347.6 312.279V311.525C347.656 311.535 347.717 311.542 347.784 311.546C347.851 311.549 347.916 311.551 347.979 311.551C348.24 311.551 348.452 311.484 348.618 311.35C348.787 311.217 348.922 310.986 349.024 310.659L349.129 310.322L347.024 304.629H348.006L349.757 309.884L349.393 309.309H349.826L349.462 309.884L351.208 304.629H352.174L349.953 310.665C349.798 311.09 349.634 311.423 349.462 311.662C349.29 311.901 349.087 312.068 348.855 312.163C348.627 312.261 348.343 312.311 348.006 312.311ZM356.421 310.316V309.662L358.995 306.877C359.319 306.525 359.572 306.235 359.755 306.006C359.938 305.774 360.066 305.565 360.14 305.378C360.214 305.192 360.251 304.988 360.251 304.766V304.756C360.251 304.488 360.193 304.249 360.077 304.038C359.961 303.827 359.795 303.66 359.581 303.537C359.366 303.414 359.109 303.352 358.811 303.352C358.508 303.352 358.242 303.416 358.014 303.542C357.785 303.665 357.608 303.84 357.481 304.065C357.354 304.286 357.291 304.546 357.291 304.845L357.286 304.856L356.378 304.851L356.368 304.845C356.371 304.395 356.48 303.996 356.695 303.648C356.909 303.296 357.205 303.022 357.581 302.825C357.958 302.624 358.388 302.524 358.874 302.524C359.317 302.524 359.716 302.617 360.071 302.804C360.427 302.987 360.706 303.238 360.91 303.558C361.118 303.878 361.222 304.244 361.222 304.656V304.666C361.222 304.954 361.171 305.232 361.069 305.5C360.97 305.767 360.794 306.064 360.541 306.391C360.288 306.715 359.931 307.114 359.47 307.589L357.502 309.62L357.74 309.182V309.62L357.507 309.462H361.348V310.316H356.421Z" fill="white"/>
</g>
<defs>
<clipPath id="clip0_7_1770">
<rect width="698" height="351" fill="white"/>
</clipPath>
</defs>
</svg>
