<?xml version="1.0" encoding="utf-8"?>
<!-- Generator: Adobe Illustrator 22.0.1, SVG Export Plug-In . SVG Version: 6.00 Build 0)  -->
<svg version="1.1" id="Layer_1" xmlns="http://www.w3.org/2000/svg" xmlns:xlink="http://www.w3.org/1999/xlink" x="0px" y="0px"
	 viewBox="0 0 193 215.4" style="enable-background:new 0 0 193 215.4;" xml:space="preserve">
<style type="text/css">
	.st0{fill:#4B2E83;}
	.st1{fill:#FFFFFF;}
	.st2{fill:#B7A57A;}
</style>
<path class="st0" d="M0,0h192.9v216.2H0V0z"/>
<g>
	<path class="st1" d="M21.2,18.9h30.5c24.6,0,41.6,17.2,41.6,39.6v0.2c0,22.4-17,39.8-41.6,39.8H21.2V18.9z M51.7,82.7
		c14.1,0,23.6-9.7,23.6-23.8v-0.2c0-14.1-9.5-24-23.6-24H38.4v48H51.7z M128.8,116.3h15.9l33.6,80.2h-18l-7.2-17.9H120l-7.2,17.9
		H95.2L128.8,116.3L128.8,116.3z M146.9,163.1l-10.4-25.8l-10.4,25.8H146.9z M110.5,18.1h61.1v16.1h-43.5v17.1h38.3v16.1h-38.3v31.1
		h-17.7L110.5,18.1L110.5,18.1z"/>
</g>
<path class="st2" d="M57,108.2l10.8,34.1l35.8-0.2l-29.1,20.8l11.3,33.9L57,175.6l-28.8,21.2l11.3-33.9l-29-20.8l35.7,0.2L57,108.2z
	"/>
</svg>
