<svg width="698" height="318" viewBox="0 0 698 318" fill="none" xmlns="http://www.w3.org/2000/svg">
<rect x="1" y="1" width="696" height="316" stroke="#EEEEEE" stroke-width="2" stroke-dasharray="7 7"/>
<path d="M279.163 26.2041V25.2139H280.953C281.292 25.2139 281.592 25.1398 281.854 24.9917C282.121 24.8436 282.328 24.6341 282.477 24.3633C282.629 24.0924 282.705 23.7751 282.705 23.4111C282.705 22.8652 282.536 22.4421 282.197 22.1416C281.859 21.8369 281.423 21.6846 280.89 21.6846H279.163V20.6436H281.067C281.584 20.6436 282.051 20.7515 282.47 20.9673C282.893 21.1789 283.228 21.4857 283.473 21.8877C283.723 22.2855 283.848 22.7637 283.848 23.3223C283.848 23.8555 283.725 24.34 283.479 24.7759C283.234 25.2118 282.887 25.5588 282.438 25.8169C281.994 26.075 281.469 26.2041 280.864 26.2041H279.163ZM278.414 30V20.6436H279.557V30H278.414ZM283.086 30L280.788 26.0264L281.639 25.3408L284.381 30H283.086ZM285.537 30V20.6436H290.691V21.6846H286.679V24.7188H290.069V25.7598H286.679V28.959H290.691V30H285.537ZM294.817 30.1016C294.348 30.1016 293.905 30.0106 293.491 29.8286C293.076 29.6466 292.716 29.397 292.412 29.0796C292.107 28.758 291.885 28.3877 291.745 27.9688L292.812 27.5244C292.922 27.8376 293.08 28.1105 293.288 28.3433C293.495 28.5718 293.732 28.7495 293.999 28.8765C294.265 28.9992 294.542 29.0605 294.83 29.0605C295.135 29.0605 295.41 28.995 295.655 28.8638C295.905 28.7284 296.102 28.5422 296.246 28.3052C296.394 28.0682 296.468 27.7952 296.468 27.4863C296.468 27.1478 296.387 26.8685 296.227 26.6484C296.066 26.4284 295.852 26.2443 295.585 26.0962C295.323 25.9438 295.033 25.8084 294.716 25.6899C294.398 25.5672 294.081 25.4382 293.764 25.3027C293.446 25.1631 293.154 24.998 292.888 24.8076C292.625 24.613 292.414 24.3696 292.253 24.0776C292.092 23.7856 292.012 23.4196 292.012 22.9795C292.012 22.4674 292.126 22.0295 292.355 21.6655C292.587 21.3016 292.903 21.0244 293.3 20.834C293.698 20.6393 294.145 20.542 294.64 20.542C295.071 20.542 295.465 20.6139 295.82 20.7578C296.176 20.9017 296.483 21.0985 296.741 21.3481C296.999 21.5978 297.196 21.8835 297.331 22.2051L296.29 22.624C296.172 22.3997 296.026 22.2114 295.852 22.0591C295.683 21.9025 295.492 21.784 295.281 21.7036C295.069 21.6232 294.847 21.583 294.614 21.583C294.242 21.583 293.905 21.6951 293.605 21.9194C293.305 22.1437 293.154 22.4844 293.154 22.9414C293.154 23.2757 293.235 23.5508 293.396 23.7666C293.556 23.9782 293.768 24.1559 294.03 24.2998C294.297 24.4437 294.589 24.5749 294.906 24.6934C295.224 24.8076 295.541 24.9303 295.858 25.0615C296.176 25.1927 296.466 25.3556 296.728 25.5503C296.995 25.7407 297.208 25.984 297.369 26.2803C297.53 26.5765 297.61 26.9489 297.61 27.3975C297.61 27.9307 297.488 28.4004 297.242 28.8066C297.001 29.2129 296.669 29.5303 296.246 29.7588C295.827 29.9873 295.351 30.1016 294.817 30.1016ZM301.534 30.1016C300.941 30.1016 300.429 29.9704 299.998 29.708C299.57 29.4456 299.24 29.0732 299.007 28.5908C298.779 28.1042 298.665 27.5244 298.665 26.8516V20.6436H299.807V26.8516C299.807 27.5371 299.96 28.0767 300.264 28.4702C300.573 28.8638 300.996 29.0605 301.534 29.0605C302.075 29.0605 302.499 28.8638 302.803 28.4702C303.108 28.0767 303.26 27.5371 303.26 26.8516V20.6436H304.403V26.8516C304.403 27.5244 304.287 28.1042 304.054 28.5908C303.825 29.0732 303.497 29.4456 303.07 29.708C302.642 29.9704 302.13 30.1016 301.534 30.1016ZM306.066 30V20.6436H307.209V28.959H311.297V30H306.066ZM314.547 30V21.4688H315.69V30H314.547ZM312.021 21.6846V20.6436H318.216V21.6846H312.021ZM326.444 30V20.6436H331.763V21.6846H327.587V24.8584H331.192V25.8994H327.587V30H326.444ZM333.503 26.2041V25.2139H335.293C335.632 25.2139 335.932 25.1398 336.194 24.9917C336.461 24.8436 336.668 24.6341 336.817 24.3633C336.969 24.0924 337.045 23.7751 337.045 23.4111C337.045 22.8652 336.876 22.4421 336.537 22.1416C336.199 21.8369 335.763 21.6846 335.23 21.6846H333.503V20.6436H335.407C335.924 20.6436 336.391 20.7515 336.81 20.9673C337.233 21.1789 337.568 21.4857 337.813 21.8877C338.063 22.2855 338.188 22.7637 338.188 23.3223C338.188 23.8555 338.065 24.34 337.819 24.7759C337.574 25.2118 337.227 25.5588 336.778 25.8169C336.334 26.075 335.809 26.2041 335.204 26.2041H333.503ZM332.754 30V20.6436H333.897V30H332.754ZM337.426 30L335.128 26.0264L335.979 25.3408L338.721 30H337.426ZM342.276 30.1016C341.612 30.1016 341.038 29.9069 340.556 29.5176C340.078 29.1283 339.709 28.576 339.451 27.8608C339.193 27.1457 339.064 26.2972 339.064 25.3154C339.064 24.3379 339.193 23.4915 339.451 22.7764C339.709 22.0612 340.078 21.5111 340.556 21.126C341.038 20.7367 341.612 20.542 342.276 20.542C342.945 20.542 343.52 20.7367 344.003 21.126C344.489 21.5111 344.862 22.0612 345.12 22.7764C345.382 23.4915 345.513 24.3379 345.513 25.3154C345.513 26.2972 345.382 27.1457 345.12 27.8608C344.862 28.576 344.489 29.1283 344.003 29.5176C343.52 29.9069 342.945 30.1016 342.276 30.1016ZM342.276 29.0605C342.725 29.0605 343.105 28.9103 343.419 28.6099C343.732 28.3094 343.969 27.8799 344.13 27.3213C344.295 26.7627 344.375 26.0941 344.371 25.3154C344.367 24.5326 344.28 23.8639 344.111 23.3096C343.945 22.751 343.706 22.3236 343.393 22.0273C343.084 21.7311 342.712 21.583 342.276 21.583C341.84 21.583 341.468 21.7375 341.159 22.0464C340.85 22.3511 340.613 22.7827 340.448 23.3413C340.287 23.8999 340.207 24.5579 340.207 25.3154C340.207 26.0771 340.287 26.7394 340.448 27.3022C340.613 27.8608 340.85 28.2946 341.159 28.6035C341.468 28.9082 341.84 29.0605 342.276 29.0605ZM346.009 30V20.6436H346.847L349.056 24.96H349.107L351.316 20.6436H352.154V30H351.036V25.1885L351.062 23.2969H351.011L349.272 26.7119H348.891L347.152 23.2969H347.101L347.126 25.1885V30H346.009ZM359.086 30L362.095 20.6436H363.238L366.246 30H365.04L364.19 27.207L364.075 26.8008L362.692 22.2051H362.641L361.257 26.8008L361.143 27.207L360.292 30H359.086ZM360.622 27.5498V26.5088H364.71V27.5498H360.622ZM366.59 30V20.6436H367.427L370.563 26.2549L371.185 27.334H371.236L371.211 25.5439V20.6436H372.328V30H371.503L368.354 24.3887L367.732 23.2715H367.681L367.707 25.0615V30H366.59ZM372.671 30L375.68 20.6436H376.823L379.831 30H378.625L377.775 27.207L377.66 26.8008L376.277 22.2051H376.226L374.842 26.8008L374.728 27.207L373.877 30H372.671ZM374.207 27.5498V26.5088H378.295V27.5498H374.207ZM380.784 30V20.6436H381.927V28.959H386.014V30H380.784ZM386.827 30V29.7461L391.042 21.71V21.6846H387.081V20.6436H392.756V20.8975L388.554 28.9336V28.959H392.832V30H386.827ZM396.057 30V25.9756L393.125 20.6436H394.42L395.639 22.9795L396.603 24.8457H396.654L397.619 22.9795L398.838 20.6436H400.133L397.2 25.9756V30H396.057ZM402.85 30V20.6436H403.993V30H402.85ZM400.908 30V28.9844H405.935V30H400.908ZM400.908 21.6592V20.6436H405.935V21.6592H400.908ZM407.345 30V20.6436H408.182L411.318 26.2549L411.94 27.334H411.991L411.966 25.5439V20.6436H413.083V30H412.258L409.109 24.3887L408.487 23.2715H408.436L408.462 25.0615V30H407.345ZM417.438 30.1016C416.714 30.1016 416.075 29.9006 415.521 29.4985C414.971 29.0965 414.539 28.54 414.226 27.8291C413.913 27.1182 413.756 26.2972 413.756 25.3662C413.756 24.3971 413.921 23.5508 414.251 22.8271C414.586 22.1035 415.041 21.5428 415.616 21.145C416.192 20.743 416.845 20.542 417.578 20.542C418.035 20.542 418.477 20.6203 418.904 20.7769C419.332 20.9292 419.706 21.1429 420.028 21.418L419.609 22.4336C419.418 22.2051 419.152 22.0062 418.809 21.8369C418.466 21.6676 418.085 21.583 417.666 21.583C417.116 21.583 416.634 21.7396 416.219 22.0527C415.804 22.3659 415.481 22.8039 415.248 23.3667C415.015 23.9295 414.899 24.5876 414.899 25.3408C414.899 26.0729 415.009 26.7183 415.229 27.2769C415.453 27.8354 415.762 28.2734 416.156 28.5908C416.553 28.904 417.015 29.0605 417.539 29.0605C417.916 29.0605 418.225 28.9865 418.466 28.8384C418.712 28.6903 418.906 28.5146 419.05 28.3115L418.911 28.6162V25.9502H416.994V24.9092H420.053V28.8828C419.782 29.251 419.414 29.5472 418.949 29.7715C418.483 29.9915 417.98 30.1016 417.438 30.1016Z" fill="#ACACAC"/>
<path d="M523.972 269.135C522.712 269.135 521.707 268.825 520.957 268.205C520.217 267.585 519.782 266.7 519.652 265.55H520.852C520.962 266.38 521.277 267.005 521.797 267.425C522.317 267.845 523.037 268.055 523.957 268.055C524.737 268.055 525.322 267.91 525.712 267.62C526.112 267.32 526.312 266.885 526.312 266.315C526.312 265.825 526.177 265.435 525.907 265.145C525.637 264.855 525.217 264.615 524.647 264.425L522.832 263.795C521.912 263.475 521.232 263.09 520.792 262.64C520.352 262.18 520.132 261.6 520.132 260.9C520.132 260.32 520.277 259.82 520.567 259.4C520.857 258.97 521.267 258.635 521.797 258.395C522.327 258.155 522.942 258.035 523.642 258.035C524.722 258.035 525.587 258.32 526.237 258.89C526.887 259.45 527.262 260.25 527.362 261.29H526.162C526.032 260.54 525.762 259.99 525.352 259.64C524.952 259.29 524.372 259.115 523.612 259.115C522.892 259.115 522.332 259.26 521.932 259.55C521.532 259.84 521.332 260.25 521.332 260.78C521.332 261.23 521.472 261.59 521.752 261.86C522.032 262.13 522.467 262.365 523.057 262.565L524.992 263.24C525.832 263.53 526.462 263.925 526.882 264.425C527.302 264.915 527.512 265.54 527.512 266.3C527.512 267.2 527.202 267.9 526.582 268.4C525.972 268.89 525.102 269.135 523.972 269.135ZM532.243 269.135C531.393 269.135 530.773 268.945 530.383 268.565C530.003 268.175 529.813 267.615 529.813 266.885V259.565L531.013 259.115V266.87C531.013 267.3 531.123 267.615 531.343 267.815C531.563 268.015 531.923 268.115 532.423 268.115C532.623 268.115 532.793 268.105 532.933 268.085C533.083 268.055 533.203 268.02 533.293 267.98V269C533.193 269.04 533.048 269.07 532.858 269.09C532.678 269.12 532.473 269.135 532.243 269.135ZM528.238 262.37V261.35H533.293V262.37H528.238ZM534.672 269V261.35H535.872V269H534.672ZM534.582 259.61V258.2H535.962V259.61H534.582ZM538.11 269V258.2H539.31V269H538.11ZM541.549 269V258.2H542.749V269H541.549ZM547.825 269V261.35H549.025V269H547.825ZM547.735 259.61V258.2H549.115V259.61H547.735ZM551.264 269V261.35H552.389V263.15H552.464V269H551.264ZM556.739 269V263.99C556.739 263.41 556.594 262.975 556.304 262.685C556.014 262.395 555.584 262.25 555.014 262.25C554.514 262.25 554.069 262.36 553.679 262.58C553.299 262.8 552.999 263.105 552.779 263.495C552.569 263.885 552.464 264.34 552.464 264.86L552.269 263.045C552.529 262.475 552.924 262.025 553.454 261.695C553.994 261.365 554.604 261.2 555.284 261.2C556.084 261.2 556.724 261.43 557.204 261.89C557.694 262.34 557.939 262.935 557.939 263.675V269H556.739ZM565.976 269.135C565.126 269.135 564.506 268.945 564.116 268.565C563.736 268.175 563.546 267.615 563.546 266.885V259.565L564.746 259.115V266.87C564.746 267.3 564.856 267.615 565.076 267.815C565.296 268.015 565.656 268.115 566.156 268.115C566.356 268.115 566.526 268.105 566.666 268.085C566.816 268.055 566.936 268.02 567.026 267.98V269C566.926 269.04 566.781 269.07 566.591 269.09C566.411 269.12 566.206 269.135 565.976 269.135ZM561.971 262.37V261.35H567.026V262.37H561.971ZM568.406 269V258.2H569.606V269H568.406ZM573.881 269V263.99C573.881 263.41 573.736 262.975 573.446 262.685C573.156 262.395 572.726 262.25 572.156 262.25C571.656 262.25 571.211 262.36 570.821 262.58C570.441 262.8 570.141 263.105 569.921 263.495C569.711 263.885 569.606 264.34 569.606 264.86L569.411 263.045C569.671 262.475 570.066 262.025 570.596 261.695C571.136 261.365 571.746 261.2 572.426 261.2C573.226 261.2 573.866 261.43 574.346 261.89C574.836 262.34 575.081 262.935 575.081 263.675V269H573.881ZM580.355 269.15C579.625 269.15 578.98 268.98 578.42 268.64C577.86 268.29 577.42 267.815 577.1 267.215C576.78 266.615 576.62 265.925 576.62 265.145C576.62 264.365 576.775 263.68 577.085 263.09C577.405 262.49 577.85 262.025 578.42 261.695C578.99 261.365 579.645 261.2 580.385 261.2C581.095 261.2 581.71 261.355 582.23 261.665C582.76 261.975 583.165 262.41 583.445 262.97C583.735 263.53 583.88 264.19 583.88 264.95C583.88 265.05 583.875 265.145 583.865 265.235C583.865 265.325 583.855 265.425 583.835 265.535H577.52V264.53H583.1L582.71 265.085C582.71 264.165 582.505 263.46 582.095 262.97C581.695 262.47 581.125 262.22 580.385 262.22C579.625 262.22 579.01 262.485 578.54 263.015C578.08 263.535 577.85 264.24 577.85 265.13C577.85 266.04 578.08 266.77 578.54 267.32C579.01 267.86 579.635 268.13 580.415 268.13C580.905 268.13 581.335 268.025 581.705 267.815C582.075 267.595 582.345 267.285 582.515 266.885H583.655C583.405 267.585 582.985 268.14 582.395 268.55C581.815 268.95 581.135 269.15 580.355 269.15ZM592.14 269.135C591.42 269.135 590.815 268.96 590.325 268.61C589.835 268.26 589.5 267.765 589.32 267.125L589.56 267.095V272.075H588.36V261.35H589.485V263.135L589.32 263.09C589.51 262.5 589.87 262.04 590.4 261.71C590.93 261.37 591.545 261.2 592.245 261.2C592.925 261.2 593.515 261.365 594.015 261.695C594.525 262.025 594.92 262.485 595.2 263.075C595.48 263.665 595.62 264.355 595.62 265.145C595.62 265.945 595.475 266.645 595.185 267.245C594.895 267.845 594.49 268.31 593.97 268.64C593.45 268.97 592.84 269.135 592.14 269.135ZM591.96 268.085C592.72 268.085 593.315 267.825 593.745 267.305C594.175 266.775 594.39 266.055 594.39 265.145C594.39 264.245 594.175 263.54 593.745 263.03C593.315 262.51 592.72 262.25 591.96 262.25C591.2 262.25 590.6 262.515 590.16 263.045C589.72 263.565 589.5 264.28 589.5 265.19C589.5 266.08 589.72 266.785 590.16 267.305C590.6 267.825 591.2 268.085 591.96 268.085ZM597.291 269V261.35H598.416V263.3H598.491V269H597.291ZM598.491 265.01L598.296 263.195C598.476 262.545 598.796 262.05 599.256 261.71C599.716 261.37 600.246 261.2 600.846 261.2C601.096 261.2 601.266 261.22 601.356 261.26V262.415C601.306 262.395 601.236 262.385 601.146 262.385C601.056 262.375 600.946 262.37 600.816 262.37C600.056 262.37 599.476 262.6 599.076 263.06C598.686 263.51 598.491 264.16 598.491 265.01ZM605.931 269.15C605.181 269.15 604.521 268.975 603.951 268.625C603.381 268.275 602.936 267.8 602.616 267.2C602.306 266.59 602.151 265.905 602.151 265.145C602.151 264.375 602.311 263.695 602.631 263.105C602.951 262.515 603.391 262.05 603.951 261.71C604.521 261.37 605.181 261.2 605.931 261.2C606.691 261.2 607.351 261.37 607.911 261.71C608.481 262.05 608.921 262.515 609.231 263.105C609.551 263.695 609.711 264.375 609.711 265.145C609.711 265.905 609.551 266.59 609.231 267.2C608.921 267.8 608.481 268.275 607.911 268.625C607.351 268.975 606.691 269.15 605.931 269.15ZM605.931 268.13C606.451 268.13 606.901 268.005 607.281 267.755C607.661 267.495 607.956 267.14 608.166 266.69C608.376 266.24 608.481 265.72 608.481 265.13C608.481 264.25 608.246 263.545 607.776 263.015C607.316 262.485 606.701 262.22 605.931 262.22C605.171 262.22 604.556 262.485 604.086 263.015C603.616 263.545 603.381 264.25 603.381 265.13C603.381 265.72 603.486 266.24 603.696 266.69C603.906 267.14 604.201 267.495 604.581 267.755C604.971 268.005 605.421 268.13 605.931 268.13ZM614.376 269.15C613.676 269.15 613.051 268.98 612.501 268.64C611.961 268.29 611.531 267.815 611.211 267.215C610.901 266.605 610.746 265.915 610.746 265.145C610.746 264.375 610.901 263.695 611.211 263.105C611.531 262.515 611.961 262.05 612.501 261.71C613.051 261.37 613.671 261.2 614.361 261.2C614.931 261.2 615.441 261.31 615.891 261.53C616.351 261.75 616.726 262.065 617.016 262.475C617.316 262.875 617.506 263.345 617.586 263.885H616.476C616.376 263.395 616.146 262.995 615.786 262.685C615.426 262.375 614.961 262.22 614.391 262.22C613.901 262.22 613.476 262.34 613.116 262.58C612.756 262.82 612.476 263.16 612.276 263.6C612.076 264.04 611.976 264.555 611.976 265.145C611.976 265.735 612.076 266.255 612.276 266.705C612.476 267.155 612.756 267.505 613.116 267.755C613.486 268.005 613.916 268.13 614.406 268.13C614.956 268.13 615.416 267.98 615.786 267.68C616.156 267.37 616.391 266.97 616.491 266.48H617.601C617.511 267.01 617.311 267.48 617.001 267.89C616.701 268.29 616.326 268.6 615.876 268.82C615.426 269.04 614.926 269.15 614.376 269.15ZM622.285 269.15C621.555 269.15 620.91 268.98 620.35 268.64C619.79 268.29 619.35 267.815 619.03 267.215C618.71 266.615 618.55 265.925 618.55 265.145C618.55 264.365 618.705 263.68 619.015 263.09C619.335 262.49 619.78 262.025 620.35 261.695C620.92 261.365 621.575 261.2 622.315 261.2C623.025 261.2 623.64 261.355 624.16 261.665C624.69 261.975 625.095 262.41 625.375 262.97C625.665 263.53 625.81 264.19 625.81 264.95C625.81 265.05 625.805 265.145 625.795 265.235C625.795 265.325 625.785 265.425 625.765 265.535H619.45V264.53H625.03L624.64 265.085C624.64 264.165 624.435 263.46 624.025 262.97C623.625 262.47 623.055 262.22 622.315 262.22C621.555 262.22 620.94 262.485 620.47 263.015C620.01 263.535 619.78 264.24 619.78 265.13C619.78 266.04 620.01 266.77 620.47 267.32C620.94 267.86 621.565 268.13 622.345 268.13C622.835 268.13 623.265 268.025 623.635 267.815C624.005 267.595 624.275 267.285 624.445 266.885H625.585C625.335 267.585 624.915 268.14 624.325 268.55C623.745 268.95 623.065 269.15 622.285 269.15ZM630.047 269.15C629.107 269.15 628.357 268.935 627.797 268.505C627.237 268.065 626.917 267.445 626.837 266.645H627.992C628.062 267.135 628.277 267.51 628.637 267.77C628.997 268.03 629.477 268.16 630.077 268.16C630.607 268.16 631.022 268.06 631.322 267.86C631.622 267.66 631.772 267.375 631.772 267.005C631.772 266.745 631.687 266.52 631.517 266.33C631.347 266.13 631.007 265.965 630.497 265.835L629.267 265.52C628.567 265.34 628.042 265.065 627.692 264.695C627.342 264.315 627.167 263.865 627.167 263.345C627.167 262.685 627.412 262.165 627.902 261.785C628.392 261.395 629.057 261.2 629.897 261.2C630.727 261.2 631.402 261.4 631.922 261.8C632.442 262.2 632.737 262.755 632.807 263.465H631.652C631.582 263.055 631.392 262.74 631.082 262.52C630.772 262.3 630.362 262.19 629.852 262.19C629.362 262.19 628.982 262.285 628.712 262.475C628.442 262.655 628.307 262.915 628.307 263.255C628.307 263.515 628.402 263.74 628.592 263.93C628.792 264.12 629.122 264.28 629.582 264.41L630.782 264.74C631.492 264.93 632.027 265.22 632.387 265.61C632.747 266 632.927 266.47 632.927 267.02C632.927 267.69 632.672 268.215 632.162 268.595C631.652 268.965 630.947 269.15 630.047 269.15ZM637.118 269.15C636.178 269.15 635.428 268.935 634.868 268.505C634.308 268.065 633.988 267.445 633.908 266.645H635.063C635.133 267.135 635.348 267.51 635.708 267.77C636.068 268.03 636.548 268.16 637.148 268.16C637.678 268.16 638.093 268.06 638.393 267.86C638.693 267.66 638.843 267.375 638.843 267.005C638.843 266.745 638.758 266.52 638.588 266.33C638.418 266.13 638.078 265.965 637.568 265.835L636.338 265.52C635.638 265.34 635.113 265.065 634.763 264.695C634.413 264.315 634.238 263.865 634.238 263.345C634.238 262.685 634.483 262.165 634.973 261.785C635.463 261.395 636.128 261.2 636.968 261.2C637.798 261.2 638.473 261.4 638.993 261.8C639.513 262.2 639.808 262.755 639.878 263.465H638.723C638.653 263.055 638.463 262.74 638.153 262.52C637.843 262.3 637.433 262.19 636.923 262.19C636.433 262.19 636.053 262.285 635.783 262.475C635.513 262.655 635.378 262.915 635.378 263.255C635.378 263.515 635.473 263.74 635.663 263.93C635.863 264.12 636.193 264.28 636.653 264.41L637.853 264.74C638.563 264.93 639.098 265.22 639.458 265.61C639.818 266 639.998 266.47 639.998 267.02C639.998 267.69 639.743 268.215 639.233 268.595C638.723 268.965 638.018 269.15 637.118 269.15ZM515.288 292.15C514.538 292.15 513.878 291.975 513.308 291.625C512.738 291.275 512.293 290.8 511.973 290.2C511.663 289.59 511.508 288.905 511.508 288.145C511.508 287.375 511.668 286.695 511.988 286.105C512.308 285.515 512.748 285.05 513.308 284.71C513.878 284.37 514.538 284.2 515.288 284.2C516.048 284.2 516.708 284.37 517.268 284.71C517.838 285.05 518.278 285.515 518.588 286.105C518.908 286.695 519.068 287.375 519.068 288.145C519.068 288.905 518.908 289.59 518.588 290.2C518.278 290.8 517.838 291.275 517.268 291.625C516.708 291.975 516.048 292.15 515.288 292.15ZM515.288 291.13C515.808 291.13 516.258 291.005 516.638 290.755C517.018 290.495 517.313 290.14 517.523 289.69C517.733 289.24 517.838 288.72 517.838 288.13C517.838 287.25 517.603 286.545 517.133 286.015C516.673 285.485 516.058 285.22 515.288 285.22C514.528 285.22 513.913 285.485 513.443 286.015C512.973 286.545 512.738 287.25 512.738 288.13C512.738 288.72 512.843 289.24 513.053 289.69C513.263 290.14 513.558 290.495 513.938 290.755C514.328 291.005 514.778 291.13 515.288 291.13ZM521.26 292V283.27C521.26 282.57 521.46 282.025 521.86 281.635C522.27 281.245 522.89 281.05 523.72 281.05C523.92 281.05 524.075 281.06 524.185 281.08C524.305 281.1 524.405 281.125 524.485 281.155V282.1C524.415 282.08 524.315 282.06 524.185 282.04C524.065 282.02 523.935 282.01 523.795 282.01C523.335 282.01 522.995 282.125 522.775 282.355C522.565 282.585 522.46 282.91 522.46 283.33V292H521.26ZM519.685 285.37V284.35H524.32V285.37H519.685ZM529.235 292V283.27C529.235 282.57 529.435 282.025 529.835 281.635C530.245 281.245 530.865 281.05 531.695 281.05C531.895 281.05 532.05 281.06 532.16 281.08C532.28 281.1 532.38 281.125 532.46 281.155V282.1C532.39 282.08 532.29 282.06 532.16 282.04C532.04 282.02 531.91 282.01 531.77 282.01C531.31 282.01 530.97 282.125 530.75 282.355C530.54 282.585 530.435 282.91 530.435 283.33V292H529.235ZM534.065 292V284.35H535.265V292H534.065ZM527.66 285.37V284.35H534.74V285.37H527.66ZM533.975 282.61V281.2H535.355V282.61H533.975ZM537.361 292V284.35H538.486V286.15H538.561V292H537.361ZM542.836 292V286.99C542.836 286.41 542.691 285.975 542.401 285.685C542.111 285.395 541.681 285.25 541.111 285.25C540.611 285.25 540.166 285.36 539.776 285.58C539.396 285.8 539.096 286.105 538.876 286.495C538.666 286.885 538.561 287.34 538.561 287.86L538.366 286.045C538.626 285.475 539.021 285.025 539.551 284.695C540.091 284.365 540.701 284.2 541.381 284.2C542.181 284.2 542.821 284.43 543.301 284.89C543.791 285.34 544.036 285.935 544.036 286.675V292H542.836ZM551.741 292V290.215L551.891 290.26C551.701 290.84 551.351 291.3 550.841 291.64C550.341 291.98 549.741 292.15 549.041 292.15C548.351 292.15 547.746 291.985 547.226 291.655C546.716 291.325 546.316 290.865 546.026 290.275C545.746 289.685 545.606 288.995 545.606 288.205C545.606 287.405 545.751 286.705 546.041 286.105C546.331 285.505 546.736 285.04 547.256 284.71C547.776 284.38 548.386 284.215 549.086 284.215C549.806 284.215 550.411 284.39 550.901 284.74C551.391 285.09 551.726 285.585 551.906 286.225L551.666 286.255V281.2H552.866V292H551.741ZM549.266 291.1C550.036 291.1 550.636 290.84 551.066 290.32C551.506 289.79 551.726 289.07 551.726 288.16C551.726 287.27 551.506 286.565 551.066 286.045C550.626 285.525 550.026 285.265 549.266 285.265C548.506 285.265 547.911 285.525 547.481 286.045C547.051 286.565 546.836 287.285 546.836 288.205C546.836 289.105 547.051 289.815 547.481 290.335C547.911 290.845 548.506 291.1 549.266 291.1ZM555.108 292V284.35H556.308V292H555.108ZM555.018 282.61V281.2H556.398V282.61H555.018ZM558.546 292V284.35H559.671V286.15H559.746V292H558.546ZM564.021 292V286.99C564.021 286.41 563.876 285.975 563.586 285.685C563.296 285.395 562.866 285.25 562.296 285.25C561.796 285.25 561.351 285.36 560.961 285.58C560.581 285.8 560.281 286.105 560.061 286.495C559.851 286.885 559.746 287.34 559.746 287.86L559.551 286.045C559.811 285.475 560.206 285.025 560.736 284.695C561.276 284.365 561.886 284.2 562.566 284.2C563.366 284.2 564.006 284.43 564.486 284.89C564.976 285.34 565.221 285.935 565.221 286.675V292H564.021ZM570.406 295.225C569.496 295.225 568.736 295.01 568.126 294.58C567.526 294.16 567.161 293.6 567.031 292.9H568.171C568.281 293.3 568.526 293.615 568.906 293.845C569.296 294.085 569.821 294.205 570.481 294.205C571.261 294.205 571.851 293.99 572.251 293.56C572.651 293.14 572.851 292.52 572.851 291.7V290.065L573.001 290.095C572.831 290.675 572.491 291.14 571.981 291.49C571.471 291.83 570.866 292 570.166 292C569.496 292 568.906 291.84 568.396 291.52C567.886 291.19 567.491 290.735 567.211 290.155C566.931 289.575 566.791 288.9 566.791 288.13C566.791 287.35 566.936 286.665 567.226 286.075C567.516 285.485 567.921 285.03 568.441 284.71C568.971 284.38 569.586 284.215 570.286 284.215C571.006 284.215 571.606 284.39 572.086 284.74C572.576 285.09 572.901 285.59 573.061 286.24L572.926 286.255V284.35H574.051V291.7C574.051 292.79 573.726 293.65 573.076 294.28C572.426 294.91 571.536 295.225 570.406 295.225ZM570.466 290.965C571.216 290.965 571.811 290.705 572.251 290.185C572.691 289.665 572.911 288.96 572.911 288.07C572.911 287.2 572.691 286.515 572.251 286.015C571.811 285.505 571.216 285.25 570.466 285.25C569.706 285.25 569.106 285.505 568.666 286.015C568.236 286.525 568.021 287.225 568.021 288.115C568.021 288.985 568.241 289.68 568.681 290.2C569.121 290.71 569.716 290.965 570.466 290.965ZM582.19 292.135C581.34 292.135 580.72 291.945 580.33 291.565C579.95 291.175 579.76 290.615 579.76 289.885V282.565L580.96 282.115V289.87C580.96 290.3 581.07 290.615 581.29 290.815C581.51 291.015 581.87 291.115 582.37 291.115C582.57 291.115 582.74 291.105 582.88 291.085C583.03 291.055 583.15 291.02 583.24 290.98V292C583.14 292.04 582.995 292.07 582.805 292.09C582.625 292.12 582.42 292.135 582.19 292.135ZM578.185 285.37V284.35H583.24V285.37H578.185ZM584.619 292V281.2H585.819V292H584.619ZM590.094 292V286.99C590.094 286.41 589.949 285.975 589.659 285.685C589.369 285.395 588.939 285.25 588.369 285.25C587.869 285.25 587.424 285.36 587.034 285.58C586.654 285.8 586.354 286.105 586.134 286.495C585.924 286.885 585.819 287.34 585.819 287.86L585.624 286.045C585.884 285.475 586.279 285.025 586.809 284.695C587.349 284.365 587.959 284.2 588.639 284.2C589.439 284.2 590.079 284.43 590.559 284.89C591.049 285.34 591.294 285.935 591.294 286.675V292H590.094ZM596.569 292.15C595.839 292.15 595.194 291.98 594.634 291.64C594.074 291.29 593.634 290.815 593.314 290.215C592.994 289.615 592.834 288.925 592.834 288.145C592.834 287.365 592.989 286.68 593.299 286.09C593.619 285.49 594.064 285.025 594.634 284.695C595.204 284.365 595.859 284.2 596.599 284.2C597.309 284.2 597.924 284.355 598.444 284.665C598.974 284.975 599.379 285.41 599.659 285.97C599.949 286.53 600.094 287.19 600.094 287.95C600.094 288.05 600.089 288.145 600.079 288.235C600.079 288.325 600.069 288.425 600.049 288.535H593.734V287.53H599.314L598.924 288.085C598.924 287.165 598.719 286.46 598.309 285.97C597.909 285.47 597.339 285.22 596.599 285.22C595.839 285.22 595.224 285.485 594.754 286.015C594.294 286.535 594.064 287.24 594.064 288.13C594.064 289.04 594.294 289.77 594.754 290.32C595.224 290.86 595.849 291.13 596.629 291.13C597.119 291.13 597.549 291.025 597.919 290.815C598.289 290.595 598.559 290.285 598.729 289.885H599.869C599.619 290.585 599.199 291.14 598.609 291.55C598.029 291.95 597.349 292.15 596.569 292.15ZM601.736 292V284.35H602.936V292H601.736ZM601.646 282.61V281.2H603.026V282.61H601.646ZM605.174 292V284.35H606.299V286.3H606.374V292H605.174ZM606.374 288.01L606.179 286.195C606.359 285.545 606.679 285.05 607.139 284.71C607.599 284.37 608.129 284.2 608.729 284.2C608.979 284.2 609.149 284.22 609.239 284.26V285.415C609.189 285.395 609.119 285.385 609.029 285.385C608.939 285.375 608.829 285.37 608.699 285.37C607.939 285.37 607.359 285.6 606.959 286.06C606.569 286.51 606.374 287.16 606.374 288.01ZM616.067 292.15C615.127 292.15 614.377 291.935 613.817 291.505C613.257 291.065 612.937 290.445 612.857 289.645H614.012C614.082 290.135 614.297 290.51 614.657 290.77C615.017 291.03 615.497 291.16 616.097 291.16C616.627 291.16 617.042 291.06 617.342 290.86C617.642 290.66 617.792 290.375 617.792 290.005C617.792 289.745 617.707 289.52 617.537 289.33C617.367 289.13 617.027 288.965 616.517 288.835L615.287 288.52C614.587 288.34 614.062 288.065 613.712 287.695C613.362 287.315 613.187 286.865 613.187 286.345C613.187 285.685 613.432 285.165 613.922 284.785C614.412 284.395 615.077 284.2 615.917 284.2C616.747 284.2 617.422 284.4 617.942 284.8C618.462 285.2 618.757 285.755 618.827 286.465H617.672C617.602 286.055 617.412 285.74 617.102 285.52C616.792 285.3 616.382 285.19 615.872 285.19C615.382 285.19 615.002 285.285 614.732 285.475C614.462 285.655 614.327 285.915 614.327 286.255C614.327 286.515 614.422 286.74 614.612 286.93C614.812 287.12 615.142 287.28 615.602 287.41L616.802 287.74C617.512 287.93 618.047 288.22 618.407 288.61C618.767 289 618.947 289.47 618.947 290.02C618.947 290.69 618.692 291.215 618.182 291.595C617.672 291.965 616.967 292.15 616.067 292.15ZM623.457 292.135C622.607 292.135 621.987 291.945 621.597 291.565C621.217 291.175 621.027 290.615 621.027 289.885V282.565L622.227 282.115V289.87C622.227 290.3 622.337 290.615 622.557 290.815C622.777 291.015 623.137 291.115 623.637 291.115C623.837 291.115 624.007 291.105 624.147 291.085C624.297 291.055 624.417 291.02 624.507 290.98V292C624.407 292.04 624.262 292.07 624.072 292.09C623.892 292.12 623.687 292.135 623.457 292.135ZM619.452 285.37V284.35H624.507V285.37H619.452ZM626.707 295.075L628.417 291.1L628.687 290.68L631.192 284.35H632.422L627.982 295.075H626.707ZM628.552 292.075L625.117 284.35H626.437L629.392 291.265L628.552 292.075ZM633.734 292V281.2H634.934V292H633.734ZM640.308 292.15C639.578 292.15 638.933 291.98 638.373 291.64C637.813 291.29 637.373 290.815 637.053 290.215C636.733 289.615 636.573 288.925 636.573 288.145C636.573 287.365 636.728 286.68 637.038 286.09C637.358 285.49 637.803 285.025 638.373 284.695C638.943 284.365 639.598 284.2 640.338 284.2C641.048 284.2 641.663 284.355 642.183 284.665C642.713 284.975 643.118 285.41 643.398 285.97C643.688 286.53 643.833 287.19 643.833 287.95C643.833 288.05 643.828 288.145 643.818 288.235C643.818 288.325 643.808 288.425 643.788 288.535H637.473V287.53H643.053L642.663 288.085C642.663 287.165 642.458 286.46 642.048 285.97C641.648 285.47 641.078 285.22 640.338 285.22C639.578 285.22 638.963 285.485 638.493 286.015C638.033 286.535 637.803 287.24 637.803 288.13C637.803 289.04 638.033 289.77 638.493 290.32C638.963 290.86 639.588 291.13 640.368 291.13C640.858 291.13 641.288 291.025 641.658 290.815C642.028 290.595 642.298 290.285 642.468 289.885H643.608C643.358 290.585 642.938 291.14 642.348 291.55C641.768 291.95 641.088 292.15 640.308 292.15ZM648.069 292.15C647.129 292.15 646.379 291.935 645.819 291.505C645.259 291.065 644.939 290.445 644.859 289.645H646.014C646.084 290.135 646.299 290.51 646.659 290.77C647.019 291.03 647.499 291.16 648.099 291.16C648.629 291.16 649.044 291.06 649.344 290.86C649.644 290.66 649.794 290.375 649.794 290.005C649.794 289.745 649.709 289.52 649.539 289.33C649.369 289.13 649.029 288.965 648.519 288.835L647.289 288.52C646.589 288.34 646.064 288.065 645.714 287.695C645.364 287.315 645.189 286.865 645.189 286.345C645.189 285.685 645.434 285.165 645.924 284.785C646.414 284.395 647.079 284.2 647.919 284.2C648.749 284.2 649.424 284.4 649.944 284.8C650.464 285.2 650.759 285.755 650.829 286.465H649.674C649.604 286.055 649.414 285.74 649.104 285.52C648.794 285.3 648.384 285.19 647.874 285.19C647.384 285.19 647.004 285.285 646.734 285.475C646.464 285.655 646.329 285.915 646.329 286.255C646.329 286.515 646.424 286.74 646.614 286.93C646.814 287.12 647.144 287.28 647.604 287.41L648.804 287.74C649.514 287.93 650.049 288.22 650.409 288.61C650.769 289 650.949 289.47 650.949 290.02C650.949 290.69 650.694 291.215 650.184 291.595C649.674 291.965 648.969 292.15 648.069 292.15Z" fill="#1E1E1E"/>
<path d="M647.035 103.737C648.691 103.737 650.041 105.081 649.969 106.736C649.5 117.458 646.523 127.936 641.258 137.324C635.503 147.585 627.208 156.2 617.166 162.345C607.124 168.49 595.67 171.96 583.902 172.421C572.133 172.883 560.443 170.322 549.949 164.982C539.455 159.643 530.508 151.704 523.965 141.925C517.422 132.147 513.5 120.855 512.576 109.13C511.652 97.4056 513.756 85.6403 518.687 74.9597C523.199 65.1864 529.94 56.6206 538.353 49.9392C539.649 48.9098 541.528 49.2117 542.502 50.5502L580.301 102.502C580.865 103.278 581.767 103.737 582.727 103.737H647.035Z" fill="#DDE8FC"/>
<rect x="550.364" y="209" width="62" height="25" rx="2" fill="#DDE8FC"/>
<path d="M573.597 227.117C572.899 227.117 572.274 226.961 571.722 226.648C571.176 226.336 570.743 225.918 570.426 225.396C570.109 224.874 569.95 224.297 569.95 223.667C569.95 223.335 569.994 223.001 570.082 222.664C570.175 222.327 570.297 222 570.448 221.683C570.604 221.365 570.778 221.067 570.968 220.789L574.125 216.204H575.861L572.726 220.694L572.433 220.621C572.599 220.464 572.806 220.347 573.055 220.269C573.309 220.191 573.573 220.152 573.846 220.152C574.447 220.152 575.004 220.301 575.516 220.599C576.029 220.892 576.442 221.299 576.754 221.822C577.067 222.339 577.223 222.935 577.223 223.609C577.223 224.283 577.062 224.886 576.74 225.418C576.422 225.945 575.99 226.36 575.443 226.663C574.896 226.966 574.281 227.117 573.597 227.117ZM573.597 225.733C573.998 225.733 574.357 225.64 574.674 225.455C574.996 225.264 575.25 225.008 575.436 224.686C575.626 224.363 575.721 224 575.721 223.594C575.721 223.184 575.629 222.823 575.443 222.51C575.258 222.193 575.004 221.946 574.681 221.771C574.364 221.59 574.003 221.5 573.597 221.5C573.197 221.5 572.836 221.587 572.513 221.763C572.191 221.934 571.932 222.178 571.737 222.496C571.547 222.808 571.451 223.174 571.451 223.594C571.451 224.004 571.544 224.371 571.73 224.693C571.92 225.015 572.177 225.269 572.499 225.455C572.821 225.64 573.187 225.733 573.597 225.733ZM581.226 227.117C580.748 227.117 580.284 227.032 579.835 226.861C579.385 226.685 578.985 226.436 578.634 226.114C578.287 225.787 578.023 225.396 577.843 224.942L579.227 224.334C579.339 224.612 579.498 224.856 579.703 225.066C579.913 225.271 580.152 225.433 580.421 225.55C580.689 225.667 580.972 225.726 581.27 225.726C581.656 225.726 581.995 225.633 582.288 225.447C582.586 225.257 582.818 225.003 582.984 224.686C583.15 224.363 583.233 223.997 583.233 223.587C583.233 223.182 583.148 222.823 582.977 222.51C582.806 222.198 582.569 221.951 582.266 221.771C581.964 221.585 581.619 221.492 581.234 221.492C581.004 221.492 580.78 221.524 580.56 221.587C580.34 221.651 580.142 221.739 579.967 221.851C579.791 221.963 579.659 222.095 579.571 222.247L578.377 222.056V216.204H583.929V217.603H579.864V221.397L579.505 220.833C579.637 220.677 579.874 220.525 580.216 220.379C580.557 220.228 580.96 220.152 581.424 220.152C582.049 220.152 582.611 220.301 583.109 220.599C583.607 220.896 584 221.307 584.288 221.829C584.576 222.347 584.72 222.938 584.72 223.602C584.72 224.3 584.561 224.913 584.244 225.44C583.931 225.967 583.511 226.38 582.984 226.678C582.457 226.971 581.871 227.117 581.226 227.117ZM587.229 220.848C586.814 220.848 586.436 220.743 586.094 220.533C585.752 220.318 585.481 220.03 585.281 219.668C585.081 219.307 584.981 218.907 584.981 218.467C584.981 218.008 585.081 217.601 585.281 217.244C585.481 216.883 585.752 216.6 586.094 216.395C586.436 216.189 586.814 216.087 587.229 216.087C587.649 216.087 588.028 216.189 588.365 216.395C588.706 216.6 588.975 216.883 589.17 217.244C589.37 217.601 589.47 218.008 589.47 218.467C589.47 218.907 589.37 219.307 589.17 219.668C588.975 220.03 588.706 220.318 588.365 220.533C588.028 220.743 587.649 220.848 587.229 220.848ZM587.229 219.83C587.571 219.83 587.852 219.7 588.072 219.441C588.291 219.183 588.401 218.858 588.401 218.467C588.401 218.062 588.291 217.737 588.072 217.493C587.852 217.244 587.571 217.12 587.229 217.12C587.014 217.12 586.817 217.176 586.636 217.288C586.46 217.396 586.319 217.552 586.211 217.757C586.109 217.957 586.057 218.194 586.057 218.467C586.057 218.726 586.109 218.958 586.211 219.163C586.319 219.368 586.46 219.532 586.636 219.654C586.817 219.771 587.014 219.83 587.229 219.83ZM590.686 227.117C590.271 227.117 589.893 227.012 589.551 226.802C589.214 226.587 588.946 226.299 588.745 225.938C588.545 225.577 588.445 225.176 588.445 224.737C588.445 224.278 588.545 223.87 588.745 223.514C588.946 223.152 589.214 222.869 589.551 222.664C589.893 222.454 590.271 222.349 590.686 222.349C591.111 222.349 591.492 222.454 591.829 222.664C592.171 222.869 592.439 223.152 592.635 223.514C592.835 223.87 592.935 224.278 592.935 224.737C592.935 225.176 592.835 225.577 592.635 225.938C592.439 226.299 592.171 226.587 591.829 226.802C591.492 227.012 591.111 227.117 590.686 227.117ZM590.686 226.099C591.028 226.099 591.309 225.97 591.529 225.711C591.748 225.452 591.858 225.127 591.858 224.737C591.858 224.332 591.748 224.007 591.529 223.763C591.309 223.514 591.028 223.389 590.686 223.389C590.471 223.389 590.274 223.445 590.093 223.558C589.917 223.665 589.776 223.821 589.668 224.026C589.566 224.227 589.514 224.463 589.514 224.737C589.514 224.996 589.566 225.228 589.668 225.433C589.776 225.638 589.917 225.801 590.093 225.923C590.274 226.041 590.471 226.099 590.686 226.099ZM585.501 224.268L584.915 223.375L588.745 221.243L592.415 218.929L593.001 219.83L589.207 221.939L585.501 224.268Z" fill="#5E5E5E"/>
<path d="M59.9733 269V258.2H63.9633C64.7333 258.2 65.3883 258.325 65.9283 258.575C66.4683 258.825 66.8783 259.175 67.1583 259.625C67.4483 260.065 67.5933 260.59 67.5933 261.2C67.5933 261.81 67.4483 262.345 67.1583 262.805C66.8783 263.255 66.4683 263.61 65.9283 263.87C65.3883 264.12 64.7333 264.245 63.9633 264.245H60.8733V263.165H63.9183C64.7183 263.165 65.3233 262.99 65.7333 262.64C66.1533 262.29 66.3633 261.81 66.3633 261.2C66.3633 260.6 66.1583 260.13 65.7483 259.79C65.3383 259.45 64.7283 259.28 63.9183 259.28H61.2033V269H59.9733ZM66.3033 269L60.5583 263.645H62.2383L68.1633 269H66.3033ZM72.2429 269.15C71.5129 269.15 70.8679 268.98 70.3079 268.64C69.7479 268.29 69.3079 267.815 68.9879 267.215C68.6679 266.615 68.5079 265.925 68.5079 265.145C68.5079 264.365 68.6629 263.68 68.9729 263.09C69.2929 262.49 69.7379 262.025 70.3079 261.695C70.8779 261.365 71.5329 261.2 72.2729 261.2C72.9829 261.2 73.5979 261.355 74.1179 261.665C74.6479 261.975 75.0529 262.41 75.3329 262.97C75.6229 263.53 75.7679 264.19 75.7679 264.95C75.7679 265.05 75.7629 265.145 75.7529 265.235C75.7529 265.325 75.7429 265.425 75.7229 265.535H69.4079V264.53H74.9879L74.5979 265.085C74.5979 264.165 74.3929 263.46 73.9829 262.97C73.5829 262.47 73.0129 262.22 72.2729 262.22C71.5129 262.22 70.8979 262.485 70.4279 263.015C69.9679 263.535 69.7379 264.24 69.7379 265.13C69.7379 266.04 69.9679 266.77 70.4279 267.32C70.8979 267.86 71.5229 268.13 72.3029 268.13C72.7929 268.13 73.2229 268.025 73.5929 267.815C73.9629 267.595 74.2329 267.285 74.4029 266.885H75.5429C75.2929 267.585 74.8729 268.14 74.2829 268.55C73.7029 268.95 73.0229 269.15 72.2429 269.15ZM80.5897 269.15C79.8397 269.15 79.1797 268.975 78.6097 268.625C78.0397 268.275 77.5947 267.8 77.2747 267.2C76.9647 266.59 76.8097 265.905 76.8097 265.145C76.8097 264.375 76.9697 263.695 77.2897 263.105C77.6097 262.515 78.0497 262.05 78.6097 261.71C79.1797 261.37 79.8397 261.2 80.5897 261.2C81.3497 261.2 82.0097 261.37 82.5697 261.71C83.1397 262.05 83.5797 262.515 83.8897 263.105C84.2097 263.695 84.3697 264.375 84.3697 265.145C84.3697 265.905 84.2097 266.59 83.8897 267.2C83.5797 267.8 83.1397 268.275 82.5697 268.625C82.0097 268.975 81.3497 269.15 80.5897 269.15ZM80.5897 268.13C81.1097 268.13 81.5597 268.005 81.9397 267.755C82.3197 267.495 82.6147 267.14 82.8247 266.69C83.0347 266.24 83.1397 265.72 83.1397 265.13C83.1397 264.25 82.9047 263.545 82.4347 263.015C81.9747 262.485 81.3597 262.22 80.5897 262.22C79.8297 262.22 79.2147 262.485 78.7447 263.015C78.2747 263.545 78.0397 264.25 78.0397 265.13C78.0397 265.72 78.1447 266.24 78.3547 266.69C78.5647 267.14 78.8597 267.495 79.2397 267.755C79.6297 268.005 80.0797 268.13 80.5897 268.13ZM86.0045 269V261.35H87.1295V263.3H87.2045V269H86.0045ZM87.2045 265.01L87.0095 263.195C87.1895 262.545 87.5095 262.05 87.9695 261.71C88.4295 261.37 88.9595 261.2 89.5595 261.2C89.8095 261.2 89.9795 261.22 90.0695 261.26V262.415C90.0195 262.395 89.9495 262.385 89.8595 262.385C89.7695 262.375 89.6595 262.37 89.5295 262.37C88.7695 262.37 88.1895 262.6 87.7895 263.06C87.3995 263.51 87.2045 264.16 87.2045 265.01ZM94.2605 272.225C93.3505 272.225 92.5905 272.01 91.9805 271.58C91.3805 271.16 91.0155 270.6 90.8855 269.9H92.0255C92.1355 270.3 92.3805 270.615 92.7605 270.845C93.1505 271.085 93.6755 271.205 94.3355 271.205C95.1155 271.205 95.7055 270.99 96.1055 270.56C96.5055 270.14 96.7055 269.52 96.7055 268.7V267.065L96.8555 267.095C96.6855 267.675 96.3455 268.14 95.8355 268.49C95.3255 268.83 94.7205 269 94.0205 269C93.3505 269 92.7605 268.84 92.2505 268.52C91.7405 268.19 91.3455 267.735 91.0655 267.155C90.7855 266.575 90.6455 265.9 90.6455 265.13C90.6455 264.35 90.7905 263.665 91.0805 263.075C91.3705 262.485 91.7755 262.03 92.2955 261.71C92.8255 261.38 93.4405 261.215 94.1405 261.215C94.8605 261.215 95.4605 261.39 95.9405 261.74C96.4305 262.09 96.7555 262.59 96.9155 263.24L96.7805 263.255V261.35H97.9055V268.7C97.9055 269.79 97.5805 270.65 96.9305 271.28C96.2805 271.91 95.3905 272.225 94.2605 272.225ZM94.3205 267.965C95.0705 267.965 95.6655 267.705 96.1055 267.185C96.5455 266.665 96.7655 265.96 96.7655 265.07C96.7655 264.2 96.5455 263.515 96.1055 263.015C95.6655 262.505 95.0705 262.25 94.3205 262.25C93.5605 262.25 92.9605 262.505 92.5205 263.015C92.0905 263.525 91.8755 264.225 91.8755 265.115C91.8755 265.985 92.0955 266.68 92.5355 267.2C92.9755 267.71 93.5705 267.965 94.3205 267.965ZM104.842 269C104.802 268.83 104.772 268.635 104.752 268.415C104.742 268.195 104.737 267.915 104.737 267.575H104.662V263.915C104.662 263.335 104.527 262.91 104.257 262.64C103.997 262.36 103.572 262.22 102.982 262.22C102.402 262.22 101.937 262.34 101.587 262.58C101.247 262.81 101.057 263.14 101.017 263.57H99.8621C99.9121 262.83 100.222 262.25 100.792 261.83C101.362 261.41 102.107 261.2 103.027 261.2C103.977 261.2 104.682 261.425 105.142 261.875C105.602 262.325 105.832 263 105.832 263.9V267.575C105.832 267.795 105.847 268.025 105.877 268.265C105.907 268.495 105.947 268.74 105.997 269H104.842ZM102.217 269.15C101.427 269.15 100.797 268.96 100.327 268.58C99.8671 268.19 99.6371 267.66 99.6371 266.99C99.6371 266.32 99.8671 265.8 100.327 265.43C100.787 265.06 101.457 264.8 102.337 264.65L105.007 264.2V265.19L102.517 265.58C101.957 265.67 101.532 265.82 101.242 266.03C100.952 266.24 100.807 266.545 100.807 266.945C100.807 267.335 100.937 267.63 101.197 267.83C101.467 268.03 101.862 268.13 102.382 268.13C103.052 268.13 103.597 267.98 104.017 267.68C104.447 267.37 104.662 266.97 104.662 266.48L104.857 267.545C104.697 268.055 104.382 268.45 103.912 268.73C103.452 269.01 102.887 269.15 102.217 269.15ZM107.98 269V261.35H109.105V263.15H109.18V269H107.98ZM113.455 269V263.99C113.455 263.41 113.31 262.975 113.02 262.685C112.73 262.395 112.3 262.25 111.73 262.25C111.23 262.25 110.785 262.36 110.395 262.58C110.015 262.8 109.715 263.105 109.495 263.495C109.285 263.885 109.18 264.34 109.18 264.86L108.985 263.045C109.245 262.475 109.64 262.025 110.17 261.695C110.71 261.365 111.32 261.2 112 261.2C112.8 261.2 113.44 261.43 113.92 261.89C114.41 262.34 114.655 262.935 114.655 263.675V269H113.455ZM116.795 269V261.35H117.995V269H116.795ZM116.705 259.61V258.2H118.085V259.61H116.705ZM119.638 269V268.13L124.288 261.815L124.738 262.37H119.788V261.35H125.428V262.22L120.778 268.535L120.328 267.98H125.578V269H119.638ZM130.088 269.15C129.358 269.15 128.713 268.98 128.153 268.64C127.593 268.29 127.153 267.815 126.833 267.215C126.513 266.615 126.353 265.925 126.353 265.145C126.353 264.365 126.508 263.68 126.818 263.09C127.138 262.49 127.583 262.025 128.153 261.695C128.723 261.365 129.378 261.2 130.118 261.2C130.828 261.2 131.443 261.355 131.963 261.665C132.493 261.975 132.898 262.41 133.178 262.97C133.468 263.53 133.613 264.19 133.613 264.95C133.613 265.05 133.608 265.145 133.598 265.235C133.598 265.325 133.588 265.425 133.568 265.535H127.253V264.53H132.833L132.443 265.085C132.443 264.165 132.238 263.46 131.828 262.97C131.428 262.47 130.858 262.22 130.118 262.22C129.358 262.22 128.743 262.485 128.273 263.015C127.813 263.535 127.583 264.24 127.583 265.13C127.583 266.04 127.813 266.77 128.273 267.32C128.743 267.86 129.368 268.13 130.148 268.13C130.638 268.13 131.068 268.025 131.438 267.815C131.808 267.595 132.078 267.285 132.248 266.885H133.388C133.138 267.585 132.718 268.14 132.128 268.55C131.548 268.95 130.868 269.15 130.088 269.15ZM141.153 269.135C140.303 269.135 139.683 268.945 139.293 268.565C138.913 268.175 138.723 267.615 138.723 266.885V259.565L139.923 259.115V266.87C139.923 267.3 140.033 267.615 140.253 267.815C140.473 268.015 140.833 268.115 141.333 268.115C141.533 268.115 141.703 268.105 141.843 268.085C141.993 268.055 142.113 268.02 142.203 267.98V269C142.103 269.04 141.958 269.07 141.768 269.09C141.588 269.12 141.383 269.135 141.153 269.135ZM137.148 262.37V261.35H142.203V262.37H137.148ZM143.582 269V258.2H144.782V269H143.582ZM149.057 269V263.99C149.057 263.41 148.912 262.975 148.622 262.685C148.332 262.395 147.902 262.25 147.332 262.25C146.832 262.25 146.387 262.36 145.997 262.58C145.617 262.8 145.317 263.105 145.097 263.495C144.887 263.885 144.782 264.34 144.782 264.86L144.587 263.045C144.847 262.475 145.242 262.025 145.772 261.695C146.312 261.365 146.922 261.2 147.602 261.2C148.402 261.2 149.042 261.43 149.522 261.89C150.012 262.34 150.257 262.935 150.257 263.675V269H149.057ZM155.531 269.15C154.801 269.15 154.156 268.98 153.596 268.64C153.036 268.29 152.596 267.815 152.276 267.215C151.956 266.615 151.796 265.925 151.796 265.145C151.796 264.365 151.951 263.68 152.261 263.09C152.581 262.49 153.026 262.025 153.596 261.695C154.166 261.365 154.821 261.2 155.561 261.2C156.271 261.2 156.886 261.355 157.406 261.665C157.936 261.975 158.341 262.41 158.621 262.97C158.911 263.53 159.056 264.19 159.056 264.95C159.056 265.05 159.051 265.145 159.041 265.235C159.041 265.325 159.031 265.425 159.011 265.535H152.696V264.53H158.276L157.886 265.085C157.886 264.165 157.681 263.46 157.271 262.97C156.871 262.47 156.301 262.22 155.561 262.22C154.801 262.22 154.186 262.485 153.716 263.015C153.256 263.535 153.026 264.24 153.026 265.13C153.026 266.04 153.256 266.77 153.716 267.32C154.186 267.86 154.811 268.13 155.591 268.13C156.081 268.13 156.511 268.025 156.881 267.815C157.251 267.595 157.521 267.285 157.691 266.885H158.831C158.581 267.585 158.161 268.14 157.571 268.55C156.991 268.95 156.311 269.15 155.531 269.15ZM160.698 269V261.35H161.898V269H160.698ZM160.608 259.61V258.2H161.988V259.61H160.608ZM164.137 269V261.35H165.262V263.3H165.337V269H164.137ZM165.337 265.01L165.142 263.195C165.322 262.545 165.642 262.05 166.102 261.71C166.562 261.37 167.092 261.2 167.692 261.2C167.942 261.2 168.112 261.22 168.202 261.26V262.415C168.152 262.395 168.082 262.385 167.992 262.385C167.902 262.375 167.792 262.37 167.662 262.37C166.902 262.37 166.322 262.6 165.922 263.06C165.532 263.51 165.337 264.16 165.337 265.01ZM64.2937 292.15C63.5937 292.15 62.9687 291.98 62.4187 291.64C61.8787 291.29 61.4487 290.815 61.1287 290.215C60.8187 289.605 60.6637 288.915 60.6637 288.145C60.6637 287.375 60.8187 286.695 61.1287 286.105C61.4487 285.515 61.8787 285.05 62.4187 284.71C62.9687 284.37 63.5887 284.2 64.2787 284.2C64.8487 284.2 65.3587 284.31 65.8087 284.53C66.2687 284.75 66.6437 285.065 66.9337 285.475C67.2337 285.875 67.4237 286.345 67.5037 286.885H66.3937C66.2937 286.395 66.0637 285.995 65.7037 285.685C65.3437 285.375 64.8787 285.22 64.3087 285.22C63.8187 285.22 63.3937 285.34 63.0337 285.58C62.6737 285.82 62.3937 286.16 62.1937 286.6C61.9937 287.04 61.8937 287.555 61.8937 288.145C61.8937 288.735 61.9937 289.255 62.1937 289.705C62.3937 290.155 62.6737 290.505 63.0337 290.755C63.4037 291.005 63.8337 291.13 64.3237 291.13C64.8737 291.13 65.3337 290.98 65.7037 290.68C66.0737 290.37 66.3087 289.97 66.4087 289.48H67.5187C67.4287 290.01 67.2287 290.48 66.9187 290.89C66.6187 291.29 66.2437 291.6 65.7937 291.82C65.3437 292.04 64.8437 292.15 64.2937 292.15ZM69.0967 292V281.2H70.2967V292H69.0967ZM75.7153 292.15C74.9653 292.15 74.3053 291.975 73.7353 291.625C73.1653 291.275 72.7203 290.8 72.4003 290.2C72.0903 289.59 71.9353 288.905 71.9353 288.145C71.9353 287.375 72.0953 286.695 72.4153 286.105C72.7353 285.515 73.1753 285.05 73.7353 284.71C74.3053 284.37 74.9653 284.2 75.7153 284.2C76.4753 284.2 77.1353 284.37 77.6953 284.71C78.2653 285.05 78.7053 285.515 79.0153 286.105C79.3353 286.695 79.4953 287.375 79.4953 288.145C79.4953 288.905 79.3353 289.59 79.0153 290.2C78.7053 290.8 78.2653 291.275 77.6953 291.625C77.1353 291.975 76.4753 292.15 75.7153 292.15ZM75.7153 291.13C76.2353 291.13 76.6853 291.005 77.0653 290.755C77.4453 290.495 77.7403 290.14 77.9503 289.69C78.1603 289.24 78.2653 288.72 78.2653 288.13C78.2653 287.25 78.0303 286.545 77.5603 286.015C77.1003 285.485 76.4853 285.22 75.7153 285.22C74.9553 285.22 74.3403 285.485 73.8703 286.015C73.4003 286.545 73.1653 287.25 73.1653 288.13C73.1653 288.72 73.2703 289.24 73.4803 289.69C73.6903 290.14 73.9853 290.495 74.3653 290.755C74.7553 291.005 75.2053 291.13 75.7153 291.13ZM83.725 292.15C82.785 292.15 82.035 291.935 81.475 291.505C80.915 291.065 80.595 290.445 80.515 289.645H81.67C81.74 290.135 81.955 290.51 82.315 290.77C82.675 291.03 83.155 291.16 83.755 291.16C84.285 291.16 84.7 291.06 85 290.86C85.3 290.66 85.45 290.375 85.45 290.005C85.45 289.745 85.365 289.52 85.195 289.33C85.025 289.13 84.685 288.965 84.175 288.835L82.945 288.52C82.245 288.34 81.72 288.065 81.37 287.695C81.02 287.315 80.845 286.865 80.845 286.345C80.845 285.685 81.09 285.165 81.58 284.785C82.07 284.395 82.735 284.2 83.575 284.2C84.405 284.2 85.08 284.4 85.6 284.8C86.12 285.2 86.415 285.755 86.485 286.465H85.33C85.26 286.055 85.07 285.74 84.76 285.52C84.45 285.3 84.04 285.19 83.53 285.19C83.04 285.19 82.66 285.285 82.39 285.475C82.12 285.655 81.985 285.915 81.985 286.255C81.985 286.515 82.08 286.74 82.27 286.93C82.47 287.12 82.8 287.28 83.26 287.41L84.46 287.74C85.17 287.93 85.705 288.22 86.065 288.61C86.425 289 86.605 289.47 86.605 290.02C86.605 290.69 86.35 291.215 85.84 291.595C85.33 291.965 84.625 292.15 83.725 292.15ZM91.4535 292.15C90.7235 292.15 90.0785 291.98 89.5185 291.64C88.9585 291.29 88.5185 290.815 88.1985 290.215C87.8785 289.615 87.7185 288.925 87.7185 288.145C87.7185 287.365 87.8735 286.68 88.1835 286.09C88.5035 285.49 88.9485 285.025 89.5185 284.695C90.0885 284.365 90.7435 284.2 91.4835 284.2C92.1935 284.2 92.8085 284.355 93.3285 284.665C93.8585 284.975 94.2635 285.41 94.5435 285.97C94.8335 286.53 94.9785 287.19 94.9785 287.95C94.9785 288.05 94.9735 288.145 94.9635 288.235C94.9635 288.325 94.9535 288.425 94.9335 288.535H88.6185V287.53H94.1985L93.8085 288.085C93.8085 287.165 93.6035 286.46 93.1935 285.97C92.7935 285.47 92.2235 285.22 91.4835 285.22C90.7235 285.22 90.1085 285.485 89.6385 286.015C89.1785 286.535 88.9485 287.24 88.9485 288.13C88.9485 289.04 89.1785 289.77 89.6385 290.32C90.1085 290.86 90.7335 291.13 91.5135 291.13C92.0035 291.13 92.4335 291.025 92.8035 290.815C93.1735 290.595 93.4435 290.285 93.6135 289.885H94.7535C94.5035 290.585 94.0835 291.14 93.4935 291.55C92.9135 291.95 92.2335 292.15 91.4535 292.15ZM99.5924 292.135C98.7424 292.135 98.1224 291.945 97.7324 291.565C97.3524 291.175 97.1624 290.615 97.1624 289.885V282.565L98.3624 282.115V289.87C98.3624 290.3 98.4724 290.615 98.6924 290.815C98.9124 291.015 99.2724 291.115 99.7724 291.115C99.9724 291.115 100.142 291.105 100.282 291.085C100.432 291.055 100.552 291.02 100.642 290.98V292C100.542 292.04 100.397 292.07 100.207 292.09C100.027 292.12 99.8224 292.135 99.5924 292.135ZM95.5874 285.37V284.35H100.642V285.37H95.5874ZM104.587 292.15C103.647 292.15 102.897 291.935 102.337 291.505C101.777 291.065 101.457 290.445 101.377 289.645H102.532C102.602 290.135 102.817 290.51 103.177 290.77C103.537 291.03 104.017 291.16 104.617 291.16C105.147 291.16 105.562 291.06 105.862 290.86C106.162 290.66 106.312 290.375 106.312 290.005C106.312 289.745 106.227 289.52 106.057 289.33C105.887 289.13 105.547 288.965 105.037 288.835L103.807 288.52C103.107 288.34 102.582 288.065 102.232 287.695C101.882 287.315 101.707 286.865 101.707 286.345C101.707 285.685 101.952 285.165 102.442 284.785C102.932 284.395 103.597 284.2 104.437 284.2C105.267 284.2 105.942 284.4 106.462 284.8C106.982 285.2 107.277 285.755 107.347 286.465H106.192C106.122 286.055 105.932 285.74 105.622 285.52C105.312 285.3 104.902 285.19 104.392 285.19C103.902 285.19 103.522 285.285 103.252 285.475C102.982 285.655 102.847 285.915 102.847 286.255C102.847 286.515 102.942 286.74 103.132 286.93C103.332 287.12 103.662 287.28 104.122 287.41L105.322 287.74C106.032 287.93 106.567 288.22 106.927 288.61C107.287 289 107.467 289.47 107.467 290.02C107.467 290.69 107.212 291.215 106.702 291.595C106.192 291.965 105.487 292.15 104.587 292.15ZM111.755 292V284.35H112.88V286.15H112.955V292H111.755ZM116.915 292V286.93C116.915 286.35 116.785 285.925 116.525 285.655C116.265 285.385 115.89 285.25 115.4 285.25C114.94 285.25 114.525 285.36 114.155 285.58C113.785 285.8 113.49 286.105 113.27 286.495C113.06 286.885 112.955 287.34 112.955 287.86L112.76 286.045C113.02 285.475 113.41 285.025 113.93 284.695C114.45 284.365 115.015 284.2 115.625 284.2C116.365 284.2 116.965 284.42 117.425 284.86C117.885 285.29 118.115 285.875 118.115 286.615V292H116.915ZM122.075 292V286.93C122.075 286.35 121.945 285.925 121.685 285.655C121.425 285.385 121.05 285.25 120.56 285.25C120.1 285.25 119.685 285.36 119.315 285.58C118.945 285.8 118.65 286.105 118.43 286.495C118.22 286.885 118.115 287.34 118.115 287.86L117.815 286.045C118.075 285.475 118.475 285.025 119.015 284.695C119.555 284.365 120.135 284.2 120.755 284.2C121.495 284.2 122.1 284.42 122.57 284.86C123.04 285.29 123.275 285.875 123.275 286.615V292H122.075ZM128.598 292.15C127.848 292.15 127.188 291.975 126.618 291.625C126.048 291.275 125.603 290.8 125.283 290.2C124.973 289.59 124.818 288.905 124.818 288.145C124.818 287.375 124.978 286.695 125.298 286.105C125.618 285.515 126.058 285.05 126.618 284.71C127.188 284.37 127.848 284.2 128.598 284.2C129.358 284.2 130.018 284.37 130.578 284.71C131.148 285.05 131.588 285.515 131.898 286.105C132.218 286.695 132.378 287.375 132.378 288.145C132.378 288.905 132.218 289.59 131.898 290.2C131.588 290.8 131.148 291.275 130.578 291.625C130.018 291.975 129.358 292.15 128.598 292.15ZM128.598 291.13C129.118 291.13 129.568 291.005 129.948 290.755C130.328 290.495 130.623 290.14 130.833 289.69C131.043 289.24 131.148 288.72 131.148 288.13C131.148 287.25 130.913 286.545 130.443 286.015C129.983 285.485 129.368 285.22 128.598 285.22C127.838 285.22 127.223 285.485 126.753 286.015C126.283 286.545 126.048 287.25 126.048 288.13C126.048 288.72 126.153 289.24 126.363 289.69C126.573 290.14 126.868 290.495 127.248 290.755C127.638 291.005 128.088 291.13 128.598 291.13ZM134.013 292V284.35H135.138V286.15H135.213V292H134.013ZM139.488 292V286.99C139.488 286.41 139.343 285.975 139.053 285.685C138.763 285.395 138.333 285.25 137.763 285.25C137.263 285.25 136.818 285.36 136.428 285.58C136.048 285.8 135.748 286.105 135.528 286.495C135.318 286.885 135.213 287.34 135.213 287.86L135.018 286.045C135.278 285.475 135.673 285.025 136.203 284.695C136.743 284.365 137.353 284.2 138.033 284.2C138.833 284.2 139.473 284.43 139.953 284.89C140.443 285.34 140.688 285.935 140.688 286.675V292H139.488ZM145.683 292.135C144.833 292.135 144.213 291.945 143.823 291.565C143.443 291.175 143.253 290.615 143.253 289.885V282.565L144.453 282.115V289.87C144.453 290.3 144.563 290.615 144.783 290.815C145.003 291.015 145.363 291.115 145.863 291.115C146.063 291.115 146.233 291.105 146.373 291.085C146.523 291.055 146.643 291.02 146.733 290.98V292C146.633 292.04 146.488 292.07 146.298 292.09C146.118 292.12 145.913 292.135 145.683 292.135ZM141.678 285.37V284.35H146.733V285.37H141.678ZM148.112 292V281.2H149.312V292H148.112ZM153.587 292V286.99C153.587 286.41 153.442 285.975 153.152 285.685C152.862 285.395 152.432 285.25 151.862 285.25C151.362 285.25 150.917 285.36 150.527 285.58C150.147 285.8 149.847 286.105 149.627 286.495C149.417 286.885 149.312 287.34 149.312 287.86L149.117 286.045C149.377 285.475 149.772 285.025 150.302 284.695C150.842 284.365 151.452 284.2 152.132 284.2C152.932 284.2 153.572 284.43 154.052 284.89C154.542 285.34 154.787 285.935 154.787 286.675V292H153.587ZM156.926 292V281.2H158.126V292H156.926ZM161.025 295.075L162.735 291.1L163.005 290.68L165.51 284.35H166.74L162.3 295.075H161.025ZM162.87 292.075L159.435 284.35H160.755L163.71 291.265L162.87 292.075Z" fill="#1E1E1E"/>
<rect x="76.358" y="209" width="62" height="25" rx="2" fill="#DDE8FC"/>
<path d="M91.1593 227V217.662L91.4596 217.977L88.9401 219.134V217.596L92.17 216.204H92.6681V227H91.1593ZM88.735 227V225.623H94.653V227H88.735ZM100.341 227V220.438L100.4 218.584H100.348L99.4767 219.976L97.2721 223.309V223.36H103.124V224.678H95.4337V223.799L100.509 216.204H101.857V227H100.341ZM106.952 227.117C106.63 227.117 106.354 227.005 106.124 226.78C105.9 226.556 105.787 226.277 105.787 225.945C105.787 225.618 105.897 225.345 106.117 225.125C106.341 224.9 106.62 224.788 106.952 224.788C107.279 224.788 107.555 224.9 107.779 225.125C108.004 225.345 108.116 225.618 108.116 225.945C108.116 226.277 108.004 226.556 107.779 226.78C107.555 227.005 107.279 227.117 106.952 227.117ZM114.639 227.117C114 227.117 113.411 226.985 112.874 226.722C112.342 226.458 111.917 226.089 111.6 225.616C111.282 225.142 111.124 224.59 111.124 223.96L112.654 223.931C112.654 224.292 112.745 224.61 112.925 224.883C113.111 225.157 113.353 225.369 113.651 225.521C113.953 225.667 114.285 225.74 114.647 225.74C115.018 225.74 115.352 225.66 115.65 225.499C115.953 225.337 116.19 225.118 116.36 224.839C116.536 224.556 116.624 224.236 116.624 223.88C116.624 223.528 116.534 223.216 116.353 222.942C116.172 222.664 115.906 222.444 115.555 222.283C115.208 222.117 114.781 222.034 114.273 222.034H113.812L113.826 220.745H114.354C114.734 220.745 115.064 220.665 115.342 220.503C115.621 220.342 115.836 220.13 115.987 219.866C116.143 219.598 116.221 219.302 116.221 218.98C116.221 218.663 116.155 218.392 116.024 218.167C115.892 217.942 115.706 217.769 115.467 217.647C115.228 217.525 114.952 217.464 114.639 217.464C114.317 217.464 114.031 217.527 113.782 217.654C113.538 217.776 113.345 217.952 113.204 218.182C113.062 218.411 112.991 218.677 112.991 218.98H111.512C111.507 218.433 111.636 217.942 111.9 217.508C112.164 217.068 112.53 216.722 112.999 216.468C113.467 216.214 114.009 216.087 114.625 216.087C115.225 216.087 115.76 216.207 116.229 216.446C116.702 216.68 117.076 217.007 117.349 217.427C117.623 217.842 117.759 218.321 117.759 218.863C117.759 219.395 117.628 219.866 117.364 220.276C117.105 220.687 116.758 221.006 116.324 221.236C115.889 221.46 115.408 221.565 114.881 221.551V221.177C115.506 221.158 116.065 221.265 116.558 221.5C117.051 221.734 117.44 222.066 117.723 222.496C118.011 222.925 118.155 223.421 118.155 223.982C118.155 224.573 117.999 225.105 117.686 225.579C117.379 226.048 116.959 226.421 116.426 226.7C115.894 226.978 115.298 227.117 114.639 227.117ZM120.598 220.848C120.183 220.848 119.805 220.743 119.463 220.533C119.121 220.318 118.85 220.03 118.65 219.668C118.45 219.307 118.35 218.907 118.35 218.467C118.35 218.008 118.45 217.601 118.65 217.244C118.85 216.883 119.121 216.6 119.463 216.395C119.805 216.189 120.183 216.087 120.598 216.087C121.018 216.087 121.397 216.189 121.734 216.395C122.075 216.6 122.344 216.883 122.539 217.244C122.739 217.601 122.839 218.008 122.839 218.467C122.839 218.907 122.739 219.307 122.539 219.668C122.344 220.03 122.075 220.318 121.734 220.533C121.397 220.743 121.018 220.848 120.598 220.848ZM120.598 219.83C120.94 219.83 121.221 219.7 121.441 219.441C121.66 219.183 121.77 218.858 121.77 218.467C121.77 218.062 121.66 217.737 121.441 217.493C121.221 217.244 120.94 217.12 120.598 217.12C120.383 217.12 120.186 217.176 120.005 217.288C119.829 217.396 119.688 217.552 119.58 217.757C119.478 217.957 119.426 218.194 119.426 218.467C119.426 218.726 119.478 218.958 119.58 219.163C119.688 219.368 119.829 219.532 120.005 219.654C120.186 219.771 120.383 219.83 120.598 219.83ZM124.055 227.117C123.64 227.117 123.262 227.012 122.92 226.802C122.583 226.587 122.315 226.299 122.114 225.938C121.914 225.577 121.814 225.176 121.814 224.737C121.814 224.278 121.914 223.87 122.114 223.514C122.315 223.152 122.583 222.869 122.92 222.664C123.262 222.454 123.64 222.349 124.055 222.349C124.48 222.349 124.861 222.454 125.198 222.664C125.54 222.869 125.808 223.152 126.004 223.514C126.204 223.87 126.304 224.278 126.304 224.737C126.304 225.176 126.204 225.577 126.004 225.938C125.808 226.299 125.54 226.587 125.198 226.802C124.861 227.012 124.48 227.117 124.055 227.117ZM124.055 226.099C124.397 226.099 124.678 225.97 124.898 225.711C125.117 225.452 125.227 225.127 125.227 224.737C125.227 224.332 125.117 224.007 124.898 223.763C124.678 223.514 124.397 223.389 124.055 223.389C123.84 223.389 123.643 223.445 123.462 223.558C123.286 223.665 123.145 223.821 123.037 224.026C122.935 224.227 122.883 224.463 122.883 224.737C122.883 224.996 122.935 225.228 123.037 225.433C123.145 225.638 123.286 225.801 123.462 225.923C123.643 226.041 123.84 226.099 124.055 226.099ZM118.87 224.268L118.284 223.375L122.114 221.243L125.784 218.929L126.37 219.83L122.576 221.939L118.87 224.268Z" fill="#5E5E5E"/>
<path d="M180.669 103.555C181.774 103.555 182.672 104.45 182.64 105.555C182.359 115.178 180.051 124.642 175.857 133.327C171.663 142.014 165.684 149.713 158.318 155.926C157.474 156.638 156.216 156.493 155.528 155.63L116.605 106.801C115.56 105.491 116.493 103.555 118.169 103.555H180.669Z" fill="#DDE8FC"/>
<rect x="314.636" y="209" width="63" height="25" rx="2" fill="#DDE8FC"/>
<path d="M338.37 227.117C337.671 227.117 337.046 226.961 336.495 226.648C335.948 226.336 335.516 225.918 335.198 225.396C334.881 224.874 334.722 224.297 334.722 223.667C334.722 223.335 334.766 223.001 334.854 222.664C334.947 222.327 335.069 222 335.22 221.683C335.376 221.365 335.55 221.067 335.74 220.789L338.897 216.204H340.633L337.498 220.694L337.205 220.621C337.371 220.464 337.579 220.347 337.828 220.269C338.082 220.191 338.345 220.152 338.619 220.152C339.219 220.152 339.776 220.301 340.289 220.599C340.801 220.892 341.214 221.299 341.526 221.822C341.839 222.339 341.995 222.935 341.995 223.609C341.995 224.283 341.834 224.886 341.512 225.418C341.194 225.945 340.762 226.36 340.215 226.663C339.668 226.966 339.053 227.117 338.37 227.117ZM338.37 225.733C338.77 225.733 339.129 225.64 339.446 225.455C339.769 225.264 340.022 225.008 340.208 224.686C340.398 224.363 340.494 224 340.494 223.594C340.494 223.184 340.401 222.823 340.215 222.51C340.03 222.193 339.776 221.946 339.454 221.771C339.136 221.59 338.775 221.5 338.37 221.5C337.969 221.5 337.608 221.587 337.286 221.763C336.963 221.934 336.705 222.178 336.509 222.496C336.319 222.808 336.224 223.174 336.224 223.594C336.224 224.004 336.316 224.371 336.502 224.693C336.692 225.015 336.949 225.269 337.271 225.455C337.593 225.64 337.959 225.733 338.37 225.733ZM342.651 227V226.583L345.632 222.84C346.013 222.366 346.367 221.922 346.694 221.507C347.021 221.087 347.285 220.684 347.485 220.298C347.686 219.913 347.786 219.532 347.786 219.156C347.786 218.833 347.71 218.545 347.559 218.292C347.407 218.038 347.202 217.84 346.943 217.698C346.685 217.557 346.389 217.486 346.057 217.486C345.701 217.486 345.381 217.569 345.098 217.735C344.814 217.896 344.59 218.121 344.424 218.409C344.263 218.692 344.182 219.021 344.182 219.397H342.637C342.646 218.758 342.798 218.189 343.091 217.691C343.389 217.188 343.794 216.795 344.307 216.512C344.819 216.229 345.4 216.087 346.05 216.087C346.67 216.087 347.222 216.219 347.705 216.482C348.193 216.741 348.579 217.1 348.862 217.559C349.146 218.013 349.287 218.536 349.287 219.126C349.287 219.62 349.189 220.086 348.994 220.525C348.799 220.965 348.528 221.417 348.181 221.88C347.839 222.339 347.441 222.845 346.987 223.396L345.229 225.572V225.63L346.746 225.601H349.485V227H342.651ZM352.001 220.848C351.586 220.848 351.208 220.743 350.866 220.533C350.524 220.318 350.253 220.03 350.053 219.668C349.853 219.307 349.753 218.907 349.753 218.467C349.753 218.008 349.853 217.601 350.053 217.244C350.253 216.883 350.524 216.6 350.866 216.395C351.208 216.189 351.586 216.087 352.001 216.087C352.421 216.087 352.8 216.189 353.137 216.395C353.479 216.6 353.747 216.883 353.942 217.244C354.143 217.601 354.243 218.008 354.243 218.467C354.243 218.907 354.143 219.307 353.942 219.668C353.747 220.03 353.479 220.318 353.137 220.533C352.8 220.743 352.421 220.848 352.001 220.848ZM352.001 219.83C352.343 219.83 352.624 219.7 352.844 219.441C353.063 219.183 353.173 218.858 353.173 218.467C353.173 218.062 353.063 217.737 352.844 217.493C352.624 217.244 352.343 217.12 352.001 217.12C351.787 217.12 351.589 217.176 351.408 217.288C351.232 217.396 351.091 217.552 350.983 217.757C350.881 217.957 350.83 218.194 350.83 218.467C350.83 218.726 350.881 218.958 350.983 219.163C351.091 219.368 351.232 219.532 351.408 219.654C351.589 219.771 351.787 219.83 352.001 219.83ZM355.458 227.117C355.043 227.117 354.665 227.012 354.323 226.802C353.986 226.587 353.718 226.299 353.518 225.938C353.317 225.577 353.217 225.176 353.217 224.737C353.217 224.278 353.317 223.87 353.518 223.514C353.718 223.152 353.986 222.869 354.323 222.664C354.665 222.454 355.043 222.349 355.458 222.349C355.883 222.349 356.264 222.454 356.601 222.664C356.943 222.869 357.211 223.152 357.407 223.514C357.607 223.87 357.707 224.278 357.707 224.737C357.707 225.176 357.607 225.577 357.407 225.938C357.211 226.299 356.943 226.587 356.601 226.802C356.264 227.012 355.883 227.117 355.458 227.117ZM355.458 226.099C355.8 226.099 356.081 225.97 356.301 225.711C356.521 225.452 356.63 225.127 356.63 224.737C356.63 224.332 356.521 224.007 356.301 223.763C356.081 223.514 355.8 223.389 355.458 223.389C355.244 223.389 355.046 223.445 354.865 223.558C354.689 223.665 354.548 223.821 354.44 224.026C354.338 224.227 354.287 224.463 354.287 224.737C354.287 224.996 354.338 225.228 354.44 225.433C354.548 225.638 354.689 225.801 354.865 225.923C355.046 226.041 355.244 226.099 355.458 226.099ZM350.273 224.268L349.687 223.375L353.518 221.243L357.187 218.929L357.773 219.83L353.979 221.939L350.273 224.268Z" fill="#5E5E5E"/>
<path d="M253.156 269V258.2H257.146C257.916 258.2 258.571 258.325 259.111 258.575C259.651 258.825 260.061 259.175 260.341 259.625C260.631 260.065 260.776 260.59 260.776 261.2C260.776 261.81 260.631 262.345 260.341 262.805C260.061 263.255 259.651 263.61 259.111 263.87C258.571 264.12 257.916 264.245 257.146 264.245H254.056V263.165H257.101C257.901 263.165 258.506 262.99 258.916 262.64C259.336 262.29 259.546 261.81 259.546 261.2C259.546 260.6 259.341 260.13 258.931 259.79C258.521 259.45 257.911 259.28 257.101 259.28H254.386V269H253.156ZM259.486 269L253.741 263.645H255.421L261.346 269H259.486ZM265.425 269.15C264.695 269.15 264.05 268.98 263.49 268.64C262.93 268.29 262.49 267.815 262.17 267.215C261.85 266.615 261.69 265.925 261.69 265.145C261.69 264.365 261.845 263.68 262.155 263.09C262.475 262.49 262.92 262.025 263.49 261.695C264.06 261.365 264.715 261.2 265.455 261.2C266.165 261.2 266.78 261.355 267.3 261.665C267.83 261.975 268.235 262.41 268.515 262.97C268.805 263.53 268.95 264.19 268.95 264.95C268.95 265.05 268.945 265.145 268.935 265.235C268.935 265.325 268.925 265.425 268.905 265.535H262.59V264.53H268.17L267.78 265.085C267.78 264.165 267.575 263.46 267.165 262.97C266.765 262.47 266.195 262.22 265.455 262.22C264.695 262.22 264.08 262.485 263.61 263.015C263.15 263.535 262.92 264.24 262.92 265.13C262.92 266.04 263.15 266.77 263.61 267.32C264.08 267.86 264.705 268.13 265.485 268.13C265.975 268.13 266.405 268.025 266.775 267.815C267.145 267.595 267.415 267.285 267.585 266.885H268.725C268.475 267.585 268.055 268.14 267.465 268.55C266.885 268.95 266.205 269.15 265.425 269.15ZM273.637 272.225C272.727 272.225 271.967 272.01 271.357 271.58C270.757 271.16 270.392 270.6 270.262 269.9H271.402C271.512 270.3 271.757 270.615 272.137 270.845C272.527 271.085 273.052 271.205 273.712 271.205C274.492 271.205 275.082 270.99 275.482 270.56C275.882 270.14 276.082 269.52 276.082 268.7V267.065L276.232 267.095C276.062 267.675 275.722 268.14 275.212 268.49C274.702 268.83 274.097 269 273.397 269C272.727 269 272.137 268.84 271.627 268.52C271.117 268.19 270.722 267.735 270.442 267.155C270.162 266.575 270.022 265.9 270.022 265.13C270.022 264.35 270.167 263.665 270.457 263.075C270.747 262.485 271.152 262.03 271.672 261.71C272.202 261.38 272.817 261.215 273.517 261.215C274.237 261.215 274.837 261.39 275.317 261.74C275.807 262.09 276.132 262.59 276.292 263.24L276.157 263.255V261.35H277.282V268.7C277.282 269.79 276.957 270.65 276.307 271.28C275.657 271.91 274.767 272.225 273.637 272.225ZM273.697 267.965C274.447 267.965 275.042 267.705 275.482 267.185C275.922 266.665 276.142 265.96 276.142 265.07C276.142 264.2 275.922 263.515 275.482 263.015C275.042 262.505 274.447 262.25 273.697 262.25C272.937 262.25 272.337 262.505 271.897 263.015C271.467 263.525 271.252 264.225 271.252 265.115C271.252 265.985 271.472 266.68 271.912 267.2C272.352 267.71 272.947 267.965 273.697 267.965ZM282.014 269.15C281.514 269.15 281.069 269.05 280.679 268.85C280.289 268.64 279.984 268.35 279.764 267.98C279.544 267.6 279.434 267.165 279.434 266.675V261.35H280.634V266.36C280.634 266.94 280.774 267.375 281.054 267.665C281.344 267.955 281.754 268.1 282.284 268.1C282.764 268.1 283.189 267.99 283.559 267.77C283.929 267.55 284.219 267.245 284.429 266.855C284.649 266.455 284.759 266 284.759 265.49L284.954 267.305C284.704 267.875 284.314 268.325 283.784 268.655C283.254 268.985 282.664 269.15 282.014 269.15ZM284.834 269V267.2H284.759V261.35H285.959V269H284.834ZM288.192 269V258.2H289.392V269H288.192ZM296.325 269C296.285 268.83 296.255 268.635 296.235 268.415C296.225 268.195 296.22 267.915 296.22 267.575H296.145V263.915C296.145 263.335 296.01 262.91 295.74 262.64C295.48 262.36 295.055 262.22 294.465 262.22C293.885 262.22 293.42 262.34 293.07 262.58C292.73 262.81 292.54 263.14 292.5 263.57H291.345C291.395 262.83 291.705 262.25 292.275 261.83C292.845 261.41 293.59 261.2 294.51 261.2C295.46 261.2 296.165 261.425 296.625 261.875C297.085 262.325 297.315 263 297.315 263.9V267.575C297.315 267.795 297.33 268.025 297.36 268.265C297.39 268.495 297.43 268.74 297.48 269H296.325ZM293.7 269.15C292.91 269.15 292.28 268.96 291.81 268.58C291.35 268.19 291.12 267.66 291.12 266.99C291.12 266.32 291.35 265.8 291.81 265.43C292.27 265.06 292.94 264.8 293.82 264.65L296.49 264.2V265.19L294 265.58C293.44 265.67 293.015 265.82 292.725 266.03C292.435 266.24 292.29 266.545 292.29 266.945C292.29 267.335 292.42 267.63 292.68 267.83C292.95 268.03 293.345 268.13 293.865 268.13C294.535 268.13 295.08 267.98 295.5 267.68C295.93 267.37 296.145 266.97 296.145 266.48L296.34 267.545C296.18 268.055 295.865 268.45 295.395 268.73C294.935 269.01 294.37 269.15 293.7 269.15ZM299.463 269V261.35H300.588V263.3H300.663V269H299.463ZM300.663 265.01L300.468 263.195C300.648 262.545 300.968 262.05 301.428 261.71C301.888 261.37 302.418 261.2 303.018 261.2C303.268 261.2 303.438 261.22 303.528 261.26V262.415C303.478 262.395 303.408 262.385 303.318 262.385C303.228 262.375 303.118 262.37 302.988 262.37C302.228 262.37 301.648 262.6 301.248 263.06C300.858 263.51 300.663 264.16 300.663 265.01ZM304.923 269V258.2H306.123V269H304.923ZM309.022 272.075L310.732 268.1L311.002 267.68L313.507 261.35H314.737L310.297 272.075H309.022ZM310.867 269.075L307.432 261.35H308.752L311.707 268.265L310.867 269.075ZM320.446 269L318.106 261.35H319.321L321.121 267.905H320.821L322.981 261.35H323.956L326.131 267.905H325.831L327.616 261.35H328.771L326.431 269H325.456L323.296 262.595H323.611L321.421 269H320.446ZM333.209 269.15C332.479 269.15 331.834 268.98 331.274 268.64C330.714 268.29 330.274 267.815 329.954 267.215C329.634 266.615 329.474 265.925 329.474 265.145C329.474 264.365 329.629 263.68 329.939 263.09C330.259 262.49 330.704 262.025 331.274 261.695C331.844 261.365 332.499 261.2 333.239 261.2C333.949 261.2 334.564 261.355 335.084 261.665C335.614 261.975 336.019 262.41 336.299 262.97C336.589 263.53 336.734 264.19 336.734 264.95C336.734 265.05 336.729 265.145 336.719 265.235C336.719 265.325 336.709 265.425 336.689 265.535H330.374V264.53H335.954L335.564 265.085C335.564 264.165 335.359 263.46 334.949 262.97C334.549 262.47 333.979 262.22 333.239 262.22C332.479 262.22 331.864 262.485 331.394 263.015C330.934 263.535 330.704 264.24 330.704 265.13C330.704 266.04 330.934 266.77 331.394 267.32C331.864 267.86 332.489 268.13 333.269 268.13C333.759 268.13 334.189 268.025 334.559 267.815C334.929 267.595 335.199 267.285 335.369 266.885H336.509C336.259 267.585 335.839 268.14 335.249 268.55C334.669 268.95 333.989 269.15 333.209 269.15ZM343.027 269C342.987 268.83 342.957 268.635 342.937 268.415C342.927 268.195 342.922 267.915 342.922 267.575H342.847V263.915C342.847 263.335 342.712 262.91 342.442 262.64C342.182 262.36 341.757 262.22 341.167 262.22C340.587 262.22 340.122 262.34 339.772 262.58C339.432 262.81 339.242 263.14 339.202 263.57H338.047C338.097 262.83 338.407 262.25 338.977 261.83C339.547 261.41 340.292 261.2 341.212 261.2C342.162 261.2 342.867 261.425 343.327 261.875C343.787 262.325 344.017 263 344.017 263.9V267.575C344.017 267.795 344.032 268.025 344.062 268.265C344.092 268.495 344.132 268.74 344.182 269H343.027ZM340.402 269.15C339.612 269.15 338.982 268.96 338.512 268.58C338.052 268.19 337.822 267.66 337.822 266.99C337.822 266.32 338.052 265.8 338.512 265.43C338.972 265.06 339.642 264.8 340.522 264.65L343.192 264.2V265.19L340.702 265.58C340.142 265.67 339.717 265.82 339.427 266.03C339.137 266.24 338.992 266.545 338.992 266.945C338.992 267.335 339.122 267.63 339.382 267.83C339.652 268.03 340.047 268.13 340.567 268.13C341.237 268.13 341.782 267.98 342.202 267.68C342.632 267.37 342.847 266.97 342.847 266.48L343.042 267.545C342.882 268.055 342.567 268.45 342.097 268.73C341.637 269.01 341.072 269.15 340.402 269.15ZM346.165 269V261.35H347.29V263.3H347.365V269H346.165ZM347.365 265.01L347.17 263.195C347.35 262.545 347.67 262.05 348.13 261.71C348.59 261.37 349.12 261.2 349.72 261.2C349.97 261.2 350.14 261.22 350.23 261.26V262.415C350.18 262.395 350.11 262.385 350.02 262.385C349.93 262.375 349.82 262.37 349.69 262.37C348.93 262.37 348.35 262.6 347.95 263.06C347.56 263.51 347.365 264.16 347.365 265.01ZM354.463 269V258.2H355.663V269H354.463ZM359.938 269V263.99C359.938 263.41 359.793 262.975 359.503 262.685C359.213 262.395 358.783 262.25 358.213 262.25C357.713 262.25 357.268 262.36 356.878 262.58C356.498 262.8 356.198 263.105 355.978 263.495C355.768 263.885 355.663 264.34 355.663 264.86L355.468 263.045C355.728 262.475 356.123 262.025 356.653 261.695C357.193 261.365 357.803 261.2 358.483 261.2C359.283 261.2 359.923 261.43 360.403 261.89C360.893 262.34 361.138 262.935 361.138 263.675V269H359.938ZM367.928 269C367.888 268.83 367.858 268.635 367.838 268.415C367.828 268.195 367.823 267.915 367.823 267.575H367.748V263.915C367.748 263.335 367.613 262.91 367.343 262.64C367.083 262.36 366.658 262.22 366.068 262.22C365.488 262.22 365.023 262.34 364.673 262.58C364.333 262.81 364.143 263.14 364.103 263.57H362.948C362.998 262.83 363.308 262.25 363.878 261.83C364.448 261.41 365.193 261.2 366.113 261.2C367.063 261.2 367.768 261.425 368.228 261.875C368.688 262.325 368.918 263 368.918 263.9V267.575C368.918 267.795 368.933 268.025 368.963 268.265C368.993 268.495 369.033 268.74 369.083 269H367.928ZM365.303 269.15C364.513 269.15 363.883 268.96 363.413 268.58C362.953 268.19 362.723 267.66 362.723 266.99C362.723 266.32 362.953 265.8 363.413 265.43C363.873 265.06 364.543 264.8 365.423 264.65L368.093 264.2V265.19L365.603 265.58C365.043 265.67 364.618 265.82 364.328 266.03C364.038 266.24 363.893 266.545 363.893 266.945C363.893 267.335 364.023 267.63 364.283 267.83C364.553 268.03 364.948 268.13 365.468 268.13C366.138 268.13 366.683 267.98 367.103 267.68C367.533 267.37 367.748 266.97 367.748 266.48L367.943 267.545C367.783 268.055 367.468 268.45 366.998 268.73C366.538 269.01 365.973 269.15 365.303 269.15ZM371.066 269V258.2H372.266V269H371.066ZM375.135 269V260.27C375.135 259.57 375.335 259.025 375.735 258.635C376.145 258.245 376.765 258.05 377.595 258.05C377.795 258.05 377.95 258.06 378.06 258.08C378.18 258.1 378.28 258.125 378.36 258.155V259.1C378.29 259.08 378.19 259.06 378.06 259.04C377.94 259.02 377.81 259.01 377.67 259.01C377.21 259.01 376.87 259.125 376.65 259.355C376.44 259.585 376.335 259.91 376.335 260.33V269H375.135ZM373.56 262.37V261.35H378.195V262.37H373.56ZM385.66 269.15C384.91 269.15 384.25 268.975 383.68 268.625C383.11 268.275 382.665 267.8 382.345 267.2C382.035 266.59 381.88 265.905 381.88 265.145C381.88 264.375 382.04 263.695 382.36 263.105C382.68 262.515 383.12 262.05 383.68 261.71C384.25 261.37 384.91 261.2 385.66 261.2C386.42 261.2 387.08 261.37 387.64 261.71C388.21 262.05 388.65 262.515 388.96 263.105C389.28 263.695 389.44 264.375 389.44 265.145C389.44 265.905 389.28 266.59 388.96 267.2C388.65 267.8 388.21 268.275 387.64 268.625C387.08 268.975 386.42 269.15 385.66 269.15ZM385.66 268.13C386.18 268.13 386.63 268.005 387.01 267.755C387.39 267.495 387.685 267.14 387.895 266.69C388.105 266.24 388.21 265.72 388.21 265.13C388.21 264.25 387.975 263.545 387.505 263.015C387.045 262.485 386.43 262.22 385.66 262.22C384.9 262.22 384.285 262.485 383.815 263.015C383.345 263.545 383.11 264.25 383.11 265.13C383.11 265.72 383.215 266.24 383.425 266.69C383.635 267.14 383.93 267.495 384.31 267.755C384.7 268.005 385.15 268.13 385.66 268.13ZM391.075 269V261.35H392.2V263.3H392.275V269H391.075ZM392.275 265.01L392.08 263.195C392.26 262.545 392.58 262.05 393.04 261.71C393.5 261.37 394.03 261.2 394.63 261.2C394.88 261.2 395.05 261.22 395.14 261.26V262.415C395.09 262.395 395.02 262.385 394.93 262.385C394.84 262.375 394.73 262.37 394.6 262.37C393.84 262.37 393.26 262.6 392.86 263.06C392.47 263.51 392.275 264.16 392.275 265.01ZM399.373 269V258.2H400.573V269H399.373ZM405.947 269.15C405.217 269.15 404.572 268.98 404.012 268.64C403.452 268.29 403.012 267.815 402.692 267.215C402.372 266.615 402.212 265.925 402.212 265.145C402.212 264.365 402.367 263.68 402.677 263.09C402.997 262.49 403.442 262.025 404.012 261.695C404.582 261.365 405.237 261.2 405.977 261.2C406.687 261.2 407.302 261.355 407.822 261.665C408.352 261.975 408.757 262.41 409.037 262.97C409.327 263.53 409.472 264.19 409.472 264.95C409.472 265.05 409.467 265.145 409.457 265.235C409.457 265.325 409.447 265.425 409.427 265.535H403.112V264.53H408.692L408.302 265.085C408.302 264.165 408.097 263.46 407.687 262.97C407.287 262.47 406.717 262.22 405.977 262.22C405.217 262.22 404.602 262.485 404.132 263.015C403.672 263.535 403.442 264.24 403.442 265.13C403.442 266.04 403.672 266.77 404.132 267.32C404.602 267.86 405.227 268.13 406.007 268.13C406.497 268.13 406.927 268.025 407.297 267.815C407.667 267.595 407.937 267.285 408.107 266.885H409.247C408.997 267.585 408.577 268.14 407.987 268.55C407.407 268.95 406.727 269.15 405.947 269.15ZM413.708 269.15C412.768 269.15 412.018 268.935 411.458 268.505C410.898 268.065 410.578 267.445 410.498 266.645H411.653C411.723 267.135 411.938 267.51 412.298 267.77C412.658 268.03 413.138 268.16 413.738 268.16C414.268 268.16 414.683 268.06 414.983 267.86C415.283 267.66 415.433 267.375 415.433 267.005C415.433 266.745 415.348 266.52 415.178 266.33C415.008 266.13 414.668 265.965 414.158 265.835L412.928 265.52C412.228 265.34 411.703 265.065 411.353 264.695C411.003 264.315 410.828 263.865 410.828 263.345C410.828 262.685 411.073 262.165 411.563 261.785C412.053 261.395 412.718 261.2 413.558 261.2C414.388 261.2 415.063 261.4 415.583 261.8C416.103 262.2 416.398 262.755 416.468 263.465H415.313C415.243 263.055 415.053 262.74 414.743 262.52C414.433 262.3 414.023 262.19 413.513 262.19C413.023 262.19 412.643 262.285 412.373 262.475C412.103 262.655 411.968 262.915 411.968 263.255C411.968 263.515 412.063 263.74 412.253 263.93C412.453 264.12 412.783 264.28 413.243 264.41L414.443 264.74C415.153 264.93 415.688 265.22 416.048 265.61C416.408 266 416.588 266.47 416.588 267.02C416.588 267.69 416.333 268.215 415.823 268.595C415.313 268.965 414.608 269.15 413.708 269.15ZM420.78 269.15C419.84 269.15 419.09 268.935 418.53 268.505C417.97 268.065 417.65 267.445 417.57 266.645H418.725C418.795 267.135 419.01 267.51 419.37 267.77C419.73 268.03 420.21 268.16 420.81 268.16C421.34 268.16 421.755 268.06 422.055 267.86C422.355 267.66 422.505 267.375 422.505 267.005C422.505 266.745 422.42 266.52 422.25 266.33C422.08 266.13 421.74 265.965 421.23 265.835L420 265.52C419.3 265.34 418.775 265.065 418.425 264.695C418.075 264.315 417.9 263.865 417.9 263.345C417.9 262.685 418.145 262.165 418.635 261.785C419.125 261.395 419.79 261.2 420.63 261.2C421.46 261.2 422.135 261.4 422.655 261.8C423.175 262.2 423.47 262.755 423.54 263.465H422.385C422.315 263.055 422.125 262.74 421.815 262.52C421.505 262.3 421.095 262.19 420.585 262.19C420.095 262.19 419.715 262.285 419.445 262.475C419.175 262.655 419.04 262.915 419.04 263.255C419.04 263.515 419.135 263.74 419.325 263.93C419.525 264.12 419.855 264.28 420.315 264.41L421.515 264.74C422.225 264.93 422.76 265.22 423.12 265.61C423.48 266 423.66 266.47 423.66 267.02C423.66 267.69 423.405 268.215 422.895 268.595C422.385 268.965 421.68 269.15 420.78 269.15ZM431.128 269.15C430.378 269.15 429.718 268.975 429.148 268.625C428.578 268.275 428.133 267.8 427.813 267.2C427.503 266.59 427.348 265.905 427.348 265.145C427.348 264.375 427.508 263.695 427.828 263.105C428.148 262.515 428.588 262.05 429.148 261.71C429.718 261.37 430.378 261.2 431.128 261.2C431.888 261.2 432.548 261.37 433.108 261.71C433.678 262.05 434.118 262.515 434.428 263.105C434.748 263.695 434.908 264.375 434.908 265.145C434.908 265.905 434.748 266.59 434.428 267.2C434.118 267.8 433.678 268.275 433.108 268.625C432.548 268.975 431.888 269.15 431.128 269.15ZM431.128 268.13C431.648 268.13 432.098 268.005 432.478 267.755C432.858 267.495 433.153 267.14 433.363 266.69C433.573 266.24 433.678 265.72 433.678 265.13C433.678 264.25 433.443 263.545 432.973 263.015C432.513 262.485 431.898 262.22 431.128 262.22C430.368 262.22 429.753 262.485 429.283 263.015C428.813 263.545 428.578 264.25 428.578 265.13C428.578 265.72 428.683 266.24 428.893 266.69C429.103 267.14 429.398 267.495 429.778 267.755C430.168 268.005 430.618 268.13 431.128 268.13ZM437.099 269V260.27C437.099 259.57 437.299 259.025 437.699 258.635C438.109 258.245 438.729 258.05 439.559 258.05C439.759 258.05 439.914 258.06 440.024 258.08C440.144 258.1 440.244 258.125 440.324 258.155V259.1C440.254 259.08 440.154 259.06 440.024 259.04C439.904 259.02 439.774 259.01 439.634 259.01C439.174 259.01 438.834 259.125 438.614 259.355C438.404 259.585 438.299 259.91 438.299 260.33V269H437.099ZM435.524 262.37V261.35H440.159V262.37H435.524ZM254.591 292.135C253.741 292.135 253.121 291.945 252.731 291.565C252.351 291.175 252.161 290.615 252.161 289.885V282.565L253.361 282.115V289.87C253.361 290.3 253.471 290.615 253.691 290.815C253.911 291.015 254.271 291.115 254.771 291.115C254.971 291.115 255.141 291.105 255.281 291.085C255.431 291.055 255.551 291.02 255.641 290.98V292C255.541 292.04 255.396 292.07 255.206 292.09C255.026 292.12 254.821 292.135 254.591 292.135ZM250.586 285.37V284.35H255.641V285.37H250.586ZM257.02 292V281.2H258.22V292H257.02ZM262.495 292V286.99C262.495 286.41 262.35 285.975 262.06 285.685C261.77 285.395 261.34 285.25 260.77 285.25C260.27 285.25 259.825 285.36 259.435 285.58C259.055 285.8 258.755 286.105 258.535 286.495C258.325 286.885 258.22 287.34 258.22 287.86L258.025 286.045C258.285 285.475 258.68 285.025 259.21 284.695C259.75 284.365 260.36 284.2 261.04 284.2C261.84 284.2 262.48 284.43 262.96 284.89C263.45 285.34 263.695 285.935 263.695 286.675V292H262.495ZM268.97 292.15C268.24 292.15 267.595 291.98 267.035 291.64C266.475 291.29 266.035 290.815 265.715 290.215C265.395 289.615 265.235 288.925 265.235 288.145C265.235 287.365 265.39 286.68 265.7 286.09C266.02 285.49 266.465 285.025 267.035 284.695C267.605 284.365 268.26 284.2 269 284.2C269.71 284.2 270.325 284.355 270.845 284.665C271.375 284.975 271.78 285.41 272.06 285.97C272.35 286.53 272.495 287.19 272.495 287.95C272.495 288.05 272.49 288.145 272.48 288.235C272.48 288.325 272.47 288.425 272.45 288.535H266.135V287.53H271.715L271.325 288.085C271.325 287.165 271.12 286.46 270.71 285.97C270.31 285.47 269.74 285.22 269 285.22C268.24 285.22 267.625 285.485 267.155 286.015C266.695 286.535 266.465 287.24 266.465 288.13C266.465 289.04 266.695 289.77 267.155 290.32C267.625 290.86 268.25 291.13 269.03 291.13C269.52 291.13 269.95 291.025 270.32 290.815C270.69 290.595 270.96 290.285 271.13 289.885H272.27C272.02 290.585 271.6 291.14 271.01 291.55C270.43 291.95 269.75 292.15 268.97 292.15ZM280.005 292.15C279.305 292.15 278.68 291.98 278.13 291.64C277.59 291.29 277.16 290.815 276.84 290.215C276.53 289.605 276.375 288.915 276.375 288.145C276.375 287.375 276.53 286.695 276.84 286.105C277.16 285.515 277.59 285.05 278.13 284.71C278.68 284.37 279.3 284.2 279.99 284.2C280.56 284.2 281.07 284.31 281.52 284.53C281.98 284.75 282.355 285.065 282.645 285.475C282.945 285.875 283.135 286.345 283.215 286.885H282.105C282.005 286.395 281.775 285.995 281.415 285.685C281.055 285.375 280.59 285.22 280.02 285.22C279.53 285.22 279.105 285.34 278.745 285.58C278.385 285.82 278.105 286.16 277.905 286.6C277.705 287.04 277.605 287.555 277.605 288.145C277.605 288.735 277.705 289.255 277.905 289.705C278.105 290.155 278.385 290.505 278.745 290.755C279.115 291.005 279.545 291.13 280.035 291.13C280.585 291.13 281.045 290.98 281.415 290.68C281.785 290.37 282.02 289.97 282.12 289.48H283.23C283.14 290.01 282.94 290.48 282.63 290.89C282.33 291.29 281.955 291.6 281.505 291.82C281.055 292.04 280.555 292.15 280.005 292.15ZM284.808 292V281.2H286.008V292H284.808ZM291.426 292.15C290.676 292.15 290.016 291.975 289.446 291.625C288.876 291.275 288.431 290.8 288.111 290.2C287.801 289.59 287.646 288.905 287.646 288.145C287.646 287.375 287.806 286.695 288.126 286.105C288.446 285.515 288.886 285.05 289.446 284.71C290.016 284.37 290.676 284.2 291.426 284.2C292.186 284.2 292.846 284.37 293.406 284.71C293.976 285.05 294.416 285.515 294.726 286.105C295.046 286.695 295.206 287.375 295.206 288.145C295.206 288.905 295.046 289.59 294.726 290.2C294.416 290.8 293.976 291.275 293.406 291.625C292.846 291.975 292.186 292.15 291.426 292.15ZM291.426 291.13C291.946 291.13 292.396 291.005 292.776 290.755C293.156 290.495 293.451 290.14 293.661 289.69C293.871 289.24 293.976 288.72 293.976 288.13C293.976 287.25 293.741 286.545 293.271 286.015C292.811 285.485 292.196 285.22 291.426 285.22C290.666 285.22 290.051 285.485 289.581 286.015C289.111 286.545 288.876 287.25 288.876 288.13C288.876 288.72 288.981 289.24 289.191 289.69C289.401 290.14 289.696 290.495 290.076 290.755C290.466 291.005 290.916 291.13 291.426 291.13ZM299.828 292.135C298.978 292.135 298.358 291.945 297.968 291.565C297.588 291.175 297.398 290.615 297.398 289.885V282.565L298.598 282.115V289.87C298.598 290.3 298.708 290.615 298.928 290.815C299.148 291.015 299.508 291.115 300.008 291.115C300.208 291.115 300.378 291.105 300.518 291.085C300.668 291.055 300.788 291.02 300.878 290.98V292C300.778 292.04 300.633 292.07 300.443 292.09C300.263 292.12 300.058 292.135 299.828 292.135ZM295.823 285.37V284.35H300.878V285.37H295.823ZM302.257 292V281.2H303.457V292H302.257ZM307.732 292V286.99C307.732 286.41 307.587 285.975 307.297 285.685C307.007 285.395 306.577 285.25 306.007 285.25C305.507 285.25 305.062 285.36 304.672 285.58C304.292 285.8 303.992 286.105 303.772 286.495C303.562 286.885 303.457 287.34 303.457 287.86L303.262 286.045C303.522 285.475 303.917 285.025 304.447 284.695C304.987 284.365 305.597 284.2 306.277 284.2C307.077 284.2 307.717 284.43 308.197 284.89C308.687 285.34 308.932 285.935 308.932 286.675V292H307.732ZM314.206 292.15C313.476 292.15 312.831 291.98 312.271 291.64C311.711 291.29 311.271 290.815 310.951 290.215C310.631 289.615 310.471 288.925 310.471 288.145C310.471 287.365 310.626 286.68 310.936 286.09C311.256 285.49 311.701 285.025 312.271 284.695C312.841 284.365 313.496 284.2 314.236 284.2C314.946 284.2 315.561 284.355 316.081 284.665C316.611 284.975 317.016 285.41 317.296 285.97C317.586 286.53 317.731 287.19 317.731 287.95C317.731 288.05 317.726 288.145 317.716 288.235C317.716 288.325 317.706 288.425 317.686 288.535H311.371V287.53H316.951L316.561 288.085C316.561 287.165 316.356 286.46 315.946 285.97C315.546 285.47 314.976 285.22 314.236 285.22C313.476 285.22 312.861 285.485 312.391 286.015C311.931 286.535 311.701 287.24 311.701 288.13C311.701 289.04 311.931 289.77 312.391 290.32C312.861 290.86 313.486 291.13 314.266 291.13C314.756 291.13 315.186 291.025 315.556 290.815C315.926 290.595 316.196 290.285 316.366 289.885H317.506C317.256 290.585 316.836 291.14 316.246 291.55C315.666 291.95 314.986 292.15 314.206 292.15ZM321.968 292.15C321.028 292.15 320.278 291.935 319.718 291.505C319.158 291.065 318.838 290.445 318.758 289.645H319.913C319.983 290.135 320.198 290.51 320.558 290.77C320.918 291.03 321.398 291.16 321.998 291.16C322.528 291.16 322.943 291.06 323.243 290.86C323.543 290.66 323.693 290.375 323.693 290.005C323.693 289.745 323.608 289.52 323.438 289.33C323.268 289.13 322.928 288.965 322.418 288.835L321.188 288.52C320.488 288.34 319.963 288.065 319.613 287.695C319.263 287.315 319.088 286.865 319.088 286.345C319.088 285.685 319.333 285.165 319.823 284.785C320.313 284.395 320.978 284.2 321.818 284.2C322.648 284.2 323.323 284.4 323.843 284.8C324.363 285.2 324.658 285.755 324.728 286.465H323.573C323.503 286.055 323.313 285.74 323.003 285.52C322.693 285.3 322.283 285.19 321.773 285.19C321.283 285.19 320.903 285.285 320.633 285.475C320.363 285.655 320.228 285.915 320.228 286.255C320.228 286.515 320.323 286.74 320.513 286.93C320.713 287.12 321.043 287.28 321.503 287.41L322.703 287.74C323.413 287.93 323.948 288.22 324.308 288.61C324.668 289 324.848 289.47 324.848 290.02C324.848 290.69 324.593 291.215 324.083 291.595C323.573 291.965 322.868 292.15 321.968 292.15ZM329.136 292V284.35H330.336V292H329.136ZM329.046 282.61V281.2H330.426V282.61H329.046ZM332.574 292V284.35H333.699V286.15H333.774V292H332.574ZM338.049 292V286.99C338.049 286.41 337.904 285.975 337.614 285.685C337.324 285.395 336.894 285.25 336.324 285.25C335.824 285.25 335.379 285.36 334.989 285.58C334.609 285.8 334.309 286.105 334.089 286.495C333.879 286.885 333.774 287.34 333.774 287.86L333.579 286.045C333.839 285.475 334.234 285.025 334.764 284.695C335.304 284.365 335.914 284.2 336.594 284.2C337.394 284.2 338.034 284.43 338.514 284.89C339.004 285.34 339.249 285.935 339.249 286.675V292H338.049ZM347.287 292.135C346.437 292.135 345.817 291.945 345.427 291.565C345.047 291.175 344.857 290.615 344.857 289.885V282.565L346.057 282.115V289.87C346.057 290.3 346.167 290.615 346.387 290.815C346.607 291.015 346.967 291.115 347.467 291.115C347.667 291.115 347.837 291.105 347.977 291.085C348.127 291.055 348.247 291.02 348.337 290.98V292C348.237 292.04 348.092 292.07 347.902 292.09C347.722 292.12 347.517 292.135 347.287 292.135ZM343.282 285.37V284.35H348.337V285.37H343.282ZM349.716 292V281.2H350.916V292H349.716ZM355.191 292V286.99C355.191 286.41 355.046 285.975 354.756 285.685C354.466 285.395 354.036 285.25 353.466 285.25C352.966 285.25 352.521 285.36 352.131 285.58C351.751 285.8 351.451 286.105 351.231 286.495C351.021 286.885 350.916 287.34 350.916 287.86L350.721 286.045C350.981 285.475 351.376 285.025 351.906 284.695C352.446 284.365 353.056 284.2 353.736 284.2C354.536 284.2 355.176 284.43 355.656 284.89C356.146 285.34 356.391 285.935 356.391 286.675V292H355.191ZM361.666 292.15C360.936 292.15 360.291 291.98 359.731 291.64C359.171 291.29 358.731 290.815 358.411 290.215C358.091 289.615 357.931 288.925 357.931 288.145C357.931 287.365 358.086 286.68 358.396 286.09C358.716 285.49 359.161 285.025 359.731 284.695C360.301 284.365 360.956 284.2 361.696 284.2C362.406 284.2 363.021 284.355 363.541 284.665C364.071 284.975 364.476 285.41 364.756 285.97C365.046 286.53 365.191 287.19 365.191 287.95C365.191 288.05 365.186 288.145 365.176 288.235C365.176 288.325 365.166 288.425 365.146 288.535H358.831V287.53H364.411L364.021 288.085C364.021 287.165 363.816 286.46 363.406 285.97C363.006 285.47 362.436 285.22 361.696 285.22C360.936 285.22 360.321 285.485 359.851 286.015C359.391 286.535 359.161 287.24 359.161 288.13C359.161 289.04 359.391 289.77 359.851 290.32C360.321 290.86 360.946 291.13 361.726 291.13C362.216 291.13 362.646 291.025 363.016 290.815C363.386 290.595 363.656 290.285 363.826 289.885H364.966C364.716 290.585 364.296 291.14 363.706 291.55C363.126 291.95 362.446 292.15 361.666 292.15ZM366.832 292V284.35H368.032V292H366.832ZM366.742 282.61V281.2H368.122V282.61H366.742ZM370.271 292V284.35H371.396V286.3H371.471V292H370.271ZM371.471 288.01L371.276 286.195C371.456 285.545 371.776 285.05 372.236 284.71C372.696 284.37 373.226 284.2 373.826 284.2C374.076 284.2 374.246 284.22 374.336 284.26V285.415C374.286 285.395 374.216 285.385 374.126 285.385C374.036 285.375 373.926 285.37 373.796 285.37C373.036 285.37 372.456 285.6 372.056 286.06C371.666 286.51 371.471 287.16 371.471 288.01ZM380.129 292L377.789 284.35H379.004L380.804 290.905H380.504L382.664 284.35H383.639L385.814 290.905H385.514L387.299 284.35H388.454L386.114 292H385.139L382.979 285.595H383.294L381.104 292H380.129ZM394.408 292C394.368 291.83 394.338 291.635 394.318 291.415C394.308 291.195 394.303 290.915 394.303 290.575H394.228V286.915C394.228 286.335 394.093 285.91 393.823 285.64C393.563 285.36 393.138 285.22 392.548 285.22C391.968 285.22 391.503 285.34 391.153 285.58C390.813 285.81 390.623 286.14 390.583 286.57H389.428C389.478 285.83 389.788 285.25 390.358 284.83C390.928 284.41 391.673 284.2 392.593 284.2C393.543 284.2 394.248 284.425 394.708 284.875C395.168 285.325 395.398 286 395.398 286.9V290.575C395.398 290.795 395.413 291.025 395.443 291.265C395.473 291.495 395.513 291.74 395.563 292H394.408ZM391.783 292.15C390.993 292.15 390.363 291.96 389.893 291.58C389.433 291.19 389.203 290.66 389.203 289.99C389.203 289.32 389.433 288.8 389.893 288.43C390.353 288.06 391.023 287.8 391.903 287.65L394.573 287.2V288.19L392.083 288.58C391.523 288.67 391.098 288.82 390.808 289.03C390.518 289.24 390.373 289.545 390.373 289.945C390.373 290.335 390.503 290.63 390.763 290.83C391.033 291.03 391.428 291.13 391.948 291.13C392.618 291.13 393.163 290.98 393.583 290.68C394.013 290.37 394.228 289.97 394.228 289.48L394.423 290.545C394.263 291.055 393.948 291.45 393.478 291.73C393.018 292.01 392.453 292.15 391.783 292.15ZM397.546 292V284.35H398.671V286.3H398.746V292H397.546ZM398.746 288.01L398.551 286.195C398.731 285.545 399.051 285.05 399.511 284.71C399.971 284.37 400.501 284.2 401.101 284.2C401.351 284.2 401.521 284.22 401.611 284.26V285.415C401.561 285.395 401.491 285.385 401.401 285.385C401.311 285.375 401.201 285.37 401.071 285.37C400.311 285.37 399.731 285.6 399.331 286.06C398.941 286.51 398.746 287.16 398.746 288.01ZM408.322 292V290.215L408.472 290.26C408.282 290.84 407.932 291.3 407.422 291.64C406.922 291.98 406.322 292.15 405.622 292.15C404.932 292.15 404.327 291.985 403.807 291.655C403.297 291.325 402.897 290.865 402.607 290.275C402.327 289.685 402.187 288.995 402.187 288.205C402.187 287.405 402.332 286.705 402.622 286.105C402.912 285.505 403.317 285.04 403.837 284.71C404.357 284.38 404.967 284.215 405.667 284.215C406.387 284.215 406.992 284.39 407.482 284.74C407.972 285.09 408.307 285.585 408.487 286.225L408.247 286.255V281.2H409.447V292H408.322ZM405.847 291.1C406.617 291.1 407.217 290.84 407.647 290.32C408.087 289.79 408.307 289.07 408.307 288.16C408.307 287.27 408.087 286.565 407.647 286.045C407.207 285.525 406.607 285.265 405.847 285.265C405.087 285.265 404.492 285.525 404.062 286.045C403.632 286.565 403.417 287.285 403.417 288.205C403.417 289.105 403.632 289.815 404.062 290.335C404.492 290.845 405.087 291.1 405.847 291.1ZM411.688 292V284.35H412.813V286.3H412.888V292H411.688ZM412.888 288.01L412.693 286.195C412.873 285.545 413.193 285.05 413.653 284.71C414.113 284.37 414.643 284.2 415.243 284.2C415.493 284.2 415.663 284.22 415.753 284.26V285.415C415.703 285.395 415.633 285.385 415.543 285.385C415.453 285.375 415.343 285.37 415.213 285.37C414.453 285.37 413.873 285.6 413.473 286.06C413.083 286.51 412.888 287.16 412.888 288.01ZM420.328 292.15C419.578 292.15 418.918 291.975 418.348 291.625C417.778 291.275 417.333 290.8 417.013 290.2C416.703 289.59 416.548 288.905 416.548 288.145C416.548 287.375 416.708 286.695 417.028 286.105C417.348 285.515 417.788 285.05 418.348 284.71C418.918 284.37 419.578 284.2 420.328 284.2C421.088 284.2 421.748 284.37 422.308 284.71C422.878 285.05 423.318 285.515 423.628 286.105C423.948 286.695 424.108 287.375 424.108 288.145C424.108 288.905 423.948 289.59 423.628 290.2C423.318 290.8 422.878 291.275 422.308 291.625C421.748 291.975 421.088 292.15 420.328 292.15ZM420.328 291.13C420.848 291.13 421.298 291.005 421.678 290.755C422.058 290.495 422.353 290.14 422.563 289.69C422.773 289.24 422.878 288.72 422.878 288.13C422.878 287.25 422.643 286.545 422.173 286.015C421.713 285.485 421.098 285.22 420.328 285.22C419.568 285.22 418.953 285.485 418.483 286.015C418.013 286.545 417.778 287.25 417.778 288.13C417.778 288.72 417.883 289.24 418.093 289.69C418.303 290.14 418.598 290.495 418.978 290.755C419.368 291.005 419.818 291.13 420.328 291.13ZM429.523 292.135C428.803 292.135 428.198 291.96 427.708 291.61C427.218 291.26 426.883 290.765 426.703 290.125L426.868 290.095V292H425.743V281.2H426.943V286.135L426.778 286.09C426.968 285.5 427.313 285.04 427.813 284.71C428.323 284.37 428.928 284.2 429.628 284.2C430.308 284.2 430.898 284.365 431.398 284.695C431.908 285.025 432.303 285.485 432.583 286.075C432.863 286.665 433.003 287.355 433.003 288.145C433.003 288.945 432.858 289.645 432.568 290.245C432.278 290.845 431.873 291.31 431.353 291.64C430.833 291.97 430.223 292.135 429.523 292.135ZM429.343 291.085C430.103 291.085 430.698 290.825 431.128 290.305C431.558 289.775 431.773 289.055 431.773 288.145C431.773 287.245 431.558 286.54 431.128 286.03C430.698 285.51 430.103 285.25 429.343 285.25C428.583 285.25 427.983 285.515 427.543 286.045C427.103 286.565 426.883 287.28 426.883 288.19C426.883 289.08 427.103 289.785 427.543 290.305C427.983 290.825 428.583 291.085 429.343 291.085ZM437.81 292.15C437.08 292.15 436.435 291.98 435.875 291.64C435.315 291.29 434.875 290.815 434.555 290.215C434.235 289.615 434.075 288.925 434.075 288.145C434.075 287.365 434.23 286.68 434.54 286.09C434.86 285.49 435.305 285.025 435.875 284.695C436.445 284.365 437.1 284.2 437.84 284.2C438.55 284.2 439.165 284.355 439.685 284.665C440.215 284.975 440.62 285.41 440.9 285.97C441.19 286.53 441.335 287.19 441.335 287.95C441.335 288.05 441.33 288.145 441.32 288.235C441.32 288.325 441.31 288.425 441.29 288.535H434.975V287.53H440.555L440.165 288.085C440.165 287.165 439.96 286.46 439.55 285.97C439.15 285.47 438.58 285.22 437.84 285.22C437.08 285.22 436.465 285.485 435.995 286.015C435.535 286.535 435.305 287.24 435.305 288.13C435.305 289.04 435.535 289.77 435.995 290.32C436.465 290.86 437.09 291.13 437.87 291.13C438.36 291.13 438.79 291.025 439.16 290.815C439.53 290.595 439.8 290.285 439.97 289.885H441.11C440.86 290.585 440.44 291.14 439.85 291.55C439.27 291.95 438.59 292.15 437.81 292.15Z" fill="#1E1E1E"/>
<path d="M413.75 104.482C414.302 104.482 414.751 104.929 414.743 105.482C414.584 116.308 411.846 126.949 406.749 136.526C401.495 146.399 393.893 154.842 384.606 161.121C375.319 167.4 364.629 171.324 353.468 172.55C342.307 173.776 331.015 172.267 320.575 168.154C310.135 164.042 300.864 157.451 293.572 148.957C286.28 140.462 281.187 130.322 278.737 119.42C276.288 108.519 276.556 97.1861 279.519 86.4112C282.394 75.9555 287.722 66.3328 295.058 58.3312C295.43 57.9256 296.061 57.9062 296.463 58.2819L345.626 104.212C345.812 104.385 346.056 104.482 346.309 104.482H413.75Z" fill="#DDE8FC"/>
</svg>
