<svg width="261" height="45" viewBox="0 0 261 45" fill="none" xmlns="http://www.w3.org/2000/svg">
<rect width="261" height="45" rx="22.5" fill="black" fill-opacity="0.2"/>
<circle cx="16" cy="23" r="3" fill="white" fill-opacity="0.5"/>
<path d="M33.5449 28.1016C32.7451 28.1016 32.0448 27.9006 31.4438 27.4985C30.8429 27.0965 30.3753 26.5358 30.041 25.8164C29.7067 25.097 29.5396 24.2633 29.5396 23.3154C29.5396 22.3717 29.7046 21.5423 30.0347 20.8271C30.369 20.1077 30.8345 19.547 31.4312 19.145C32.0321 18.743 32.7282 18.542 33.5195 18.542C33.9089 18.542 34.3215 18.6203 34.7573 18.7769C35.1974 18.9334 35.5677 19.1408 35.8682 19.3989L35.373 20.5986C35.1911 20.3659 34.9287 20.1712 34.5859 20.0146C34.2474 19.8538 33.8962 19.7734 33.5322 19.7734C32.999 19.7734 32.5335 19.9215 32.1357 20.2178C31.738 20.514 31.429 20.9266 31.209 21.4556C30.9889 21.9845 30.8789 22.596 30.8789 23.29C30.8789 23.9967 30.9889 24.6209 31.209 25.1626C31.4333 25.7 31.7464 26.119 32.1484 26.4194C32.5505 26.7199 33.0223 26.8701 33.564 26.8701C33.9152 26.8701 34.2601 26.7876 34.5986 26.6226C34.9414 26.4575 35.208 26.248 35.3984 25.9941L35.8936 27.1812C35.5889 27.452 35.2207 27.6742 34.7891 27.8477C34.3574 28.0169 33.9427 28.1016 33.5449 28.1016ZM37.1319 28V18.6436H38.4839V26.7749H42.4385V28H37.1319ZM45.5684 28V18.6436H46.9141V28H45.5684ZM43.6641 28V26.8066H48.8184V28H43.6641ZM43.6641 19.8369V18.6436H48.8184V19.8369H43.6641ZM53.9224 28.1016C53.1226 28.1016 52.4223 27.9006 51.8213 27.4985C51.2204 27.0965 50.7528 26.5358 50.4185 25.8164C50.0842 25.097 49.9171 24.2633 49.9171 23.3154C49.9171 22.3717 50.0821 21.5423 50.4122 20.8271C50.7465 20.1077 51.212 19.547 51.8087 19.145C52.4096 18.743 53.1057 18.542 53.897 18.542C54.2864 18.542 54.699 18.6203 55.1348 18.7769C55.5749 18.9334 55.9452 19.1408 56.2457 19.3989L55.7505 20.5986C55.5686 20.3659 55.3062 20.1712 54.9634 20.0146C54.6249 19.8538 54.2737 19.7734 53.9097 19.7734C53.3765 19.7734 52.911 19.9215 52.5132 20.2178C52.1155 20.514 51.8065 20.9266 51.5865 21.4556C51.3664 21.9845 51.2564 22.596 51.2564 23.29C51.2564 23.9967 51.3664 24.6209 51.5865 25.1626C51.8108 25.7 52.1239 26.119 52.5259 26.4194C52.928 26.7199 53.3998 26.8701 53.9415 26.8701C54.2927 26.8701 54.6376 26.7876 54.9761 26.6226C55.3189 26.4575 55.5855 26.248 55.7759 25.9941L56.2711 27.1812C55.9664 27.452 55.5982 27.6742 55.1666 27.8477C54.7349 28.0169 54.3202 28.1016 53.9224 28.1016ZM57.0777 28V18.6436H58.398V22.9409H58.7598L58.2457 23.1948L61.5465 18.6436H63.1842L59.4581 23.6582V22.9663L63.3682 28H61.7115L58.2457 23.4805L58.7598 23.709H58.398V28H57.0777ZM72.7384 28V19.6338H74.0841V28H72.7384ZM70.2692 19.8687V18.6436H76.5533V19.8687H70.2692ZM80.1911 28.1016C79.5182 28.1016 78.9406 27.909 78.4581 27.5239C77.9757 27.1388 77.6054 26.5887 77.3473 25.8735C77.0892 25.1584 76.9601 24.3057 76.9601 23.3154C76.9601 22.3294 77.0892 21.4788 77.3473 20.7637C77.6054 20.0485 77.9757 19.5005 78.4581 19.1196C78.9406 18.7345 79.5182 18.542 80.1911 18.542C80.8681 18.542 81.45 18.7345 81.9367 19.1196C82.4233 19.5005 82.7957 20.0485 83.0538 20.7637C83.3162 21.4788 83.4474 22.3294 83.4474 23.3154C83.4474 24.3057 83.3162 25.1584 83.0538 25.8735C82.7957 26.5887 82.4233 27.1388 81.9367 27.5239C81.45 27.909 80.8681 28.1016 80.1911 28.1016ZM80.1911 26.8701C80.61 26.8701 80.9634 26.7284 81.2511 26.4448C81.5389 26.1613 81.7568 25.755 81.9049 25.2261C82.0573 24.6971 82.1313 24.0602 82.1271 23.3154C82.1229 22.5706 82.0425 21.9338 81.8859 21.4048C81.7335 20.8758 81.5135 20.4717 81.2257 20.1924C80.9422 19.9131 80.5973 19.7734 80.1911 19.7734C79.789 19.7734 79.4441 19.9173 79.1564 20.2051C78.8729 20.4928 78.6549 20.9012 78.5026 21.4302C78.3545 21.9591 78.2804 22.5876 78.2804 23.3154C78.2804 24.0433 78.3545 24.6738 78.5026 25.207C78.6549 25.7402 78.8729 26.1507 79.1564 26.4385C79.4441 26.7262 79.789 26.8701 80.1911 26.8701ZM93.1159 28V19.6338H94.4616V28H93.1159ZM90.6467 19.8687V18.6436H96.9308V19.8687H90.6467ZM98.6833 24.3311V23.1821H100.391C100.704 23.1821 100.983 23.1123 101.229 22.9727C101.478 22.833 101.673 22.6362 101.813 22.3823C101.952 22.1284 102.022 21.8322 102.022 21.4937C102.022 20.9816 101.863 20.5838 101.546 20.3003C101.229 20.0125 100.822 19.8687 100.327 19.8687H98.6833V18.6436H100.53C101.055 18.6436 101.529 18.7515 101.952 18.9673C102.38 19.1831 102.718 19.4941 102.968 19.9004C103.222 20.3066 103.349 20.7954 103.349 21.3667C103.349 21.9168 103.222 22.4162 102.968 22.8647C102.714 23.3133 102.356 23.6709 101.895 23.9375C101.434 24.1999 100.888 24.3311 100.258 24.3311H98.6833ZM97.7565 28V18.6436H99.0832V28H97.7565ZM102.371 28L100.207 24.1279L101.197 23.3218L103.876 28H102.371ZM106.707 28V24.0645L103.8 18.6436H105.317L106.428 20.8652L107.348 22.7441H107.399L108.32 20.8652L109.43 18.6436H110.947L108.04 24.0645V28H106.707ZM120.286 28V19.6338H121.632V28H120.286ZM117.817 19.8687V18.6436H124.101V19.8687H117.817ZM124.819 28V18.6436H126.158V22.6172H129.345V18.6436H130.684V28H129.345V23.8359H126.158V28H124.819ZM132.087 28V18.6436H137.33V19.8687H133.433V22.6426H136.715V23.8486H133.433V26.7749H137.33V28H132.087ZM145.812 28V18.6436H151.207V19.8687H147.158V22.814H150.636V24.0327H147.158V28H145.812ZM154.921 28.1016C154.316 28.1016 153.793 27.9683 153.353 27.7017C152.918 27.4308 152.581 27.05 152.344 26.5591C152.107 26.064 151.989 25.4757 151.989 24.7944V18.6436H153.315V24.8325C153.315 25.4673 153.457 25.9666 153.741 26.3306C154.028 26.6945 154.422 26.8765 154.921 26.8765C155.425 26.8765 155.818 26.6945 156.102 26.3306C156.385 25.9666 156.527 25.4673 156.527 24.8325V18.6436H157.854V24.7944C157.854 25.4757 157.735 26.064 157.498 26.5591C157.261 27.05 156.925 27.4308 156.489 27.7017C156.053 27.9683 155.531 28.1016 154.921 28.1016ZM159.397 28V18.6436H160.749V26.7749H164.703V28H159.397ZM166.189 28V18.6436H167.541V26.7749H171.496V28H166.189ZM180.574 24.4326V23.2139H182.193C182.527 23.2139 182.817 23.1419 183.062 22.998C183.312 22.8542 183.507 22.6553 183.646 22.4014C183.786 22.1432 183.856 21.8449 183.856 21.5063C183.856 20.9943 183.697 20.5944 183.38 20.3066C183.062 20.0146 182.643 19.8687 182.123 19.8687H180.574V18.6436H182.218C182.815 18.6436 183.335 18.7599 183.78 18.9927C184.228 19.2254 184.575 19.5534 184.821 19.9766C185.066 20.3997 185.189 20.897 185.189 21.4683C185.189 22.0438 185.068 22.5537 184.827 22.998C184.586 23.4424 184.245 23.7936 183.805 24.0518C183.369 24.3057 182.859 24.4326 182.275 24.4326H180.574ZM179.552 28V18.6436H180.898V28H179.552ZM186.986 24.3311V23.1821H188.693C189.006 23.1821 189.286 23.1123 189.531 22.9727C189.781 22.833 189.976 22.6362 190.115 22.3823C190.255 22.1284 190.325 21.8322 190.325 21.4937C190.325 20.9816 190.166 20.5838 189.849 20.3003C189.531 20.0125 189.125 19.8687 188.63 19.8687H186.986V18.6436H188.833C189.358 18.6436 189.832 18.7515 190.255 18.9673C190.682 19.1831 191.021 19.4941 191.27 19.9004C191.524 20.3066 191.651 20.7954 191.651 21.3667C191.651 21.9168 191.524 22.4162 191.27 22.8647C191.017 23.3133 190.659 23.6709 190.198 23.9375C189.736 24.1999 189.191 24.3311 188.56 24.3311H186.986ZM186.059 28V18.6436H187.386V28H186.059ZM190.674 28L188.509 24.1279L189.499 23.3218L192.178 28H190.674ZM195.664 28.1016C194.991 28.1016 194.413 27.909 193.931 27.5239C193.448 27.1388 193.078 26.5887 192.82 25.8735C192.562 25.1584 192.433 24.3057 192.433 23.3154C192.433 22.3294 192.562 21.4788 192.82 20.7637C193.078 20.0485 193.448 19.5005 193.931 19.1196C194.413 18.7345 194.991 18.542 195.664 18.542C196.341 18.542 196.923 18.7345 197.409 19.1196C197.896 19.5005 198.268 20.0485 198.526 20.7637C198.789 21.4788 198.92 22.3294 198.92 23.3154C198.92 24.3057 198.789 25.1584 198.526 25.8735C198.268 26.5887 197.896 27.1388 197.409 27.5239C196.923 27.909 196.341 28.1016 195.664 28.1016ZM195.664 26.8701C196.083 26.8701 196.436 26.7284 196.724 26.4448C197.011 26.1613 197.229 25.755 197.377 25.2261C197.53 24.6971 197.604 24.0602 197.6 23.3154C197.595 22.5706 197.515 21.9338 197.358 21.4048C197.206 20.8758 196.986 20.4717 196.698 20.1924C196.415 19.9131 196.07 19.7734 195.664 19.7734C195.262 19.7734 194.917 19.9173 194.629 20.2051C194.345 20.4928 194.127 20.9012 193.975 21.4302C193.827 21.9591 193.753 22.5876 193.753 23.3154C193.753 24.0433 193.827 24.6738 193.975 25.207C194.127 25.7402 194.345 26.1507 194.629 26.4385C194.917 26.7262 195.262 26.8701 195.664 26.8701ZM201.796 28V19.6338H203.142V28H201.796ZM199.327 19.8687V18.6436H205.611V19.8687H199.327ZM209.249 28.1016C208.576 28.1016 207.998 27.909 207.516 27.5239C207.033 27.1388 206.663 26.5887 206.405 25.8735C206.147 25.1584 206.018 24.3057 206.018 23.3154C206.018 22.3294 206.147 21.4788 206.405 20.7637C206.663 20.0485 207.033 19.5005 207.516 19.1196C207.998 18.7345 208.576 18.542 209.249 18.542C209.926 18.542 210.508 18.7345 210.994 19.1196C211.481 19.5005 211.853 20.0485 212.111 20.7637C212.374 21.4788 212.505 22.3294 212.505 23.3154C212.505 24.3057 212.374 25.1584 212.111 25.8735C211.853 26.5887 211.481 27.1388 210.994 27.5239C210.508 27.909 209.926 28.1016 209.249 28.1016ZM209.249 26.8701C209.667 26.8701 210.021 26.7284 210.309 26.4448C210.596 26.1613 210.814 25.755 210.962 25.2261C211.115 24.6971 211.189 24.0602 211.185 23.3154C211.18 22.5706 211.1 21.9338 210.943 21.4048C210.791 20.8758 210.571 20.4717 210.283 20.1924C210 19.9131 209.655 19.7734 209.249 19.7734C208.847 19.7734 208.502 19.9173 208.214 20.2051C207.93 20.4928 207.712 20.9012 207.56 21.4302C207.412 21.9591 207.338 22.5876 207.338 23.3154C207.338 24.0433 207.412 24.6738 207.56 25.207C207.712 25.7402 207.93 26.1507 208.214 26.4385C208.502 26.7262 208.847 26.8701 209.249 26.8701ZM215.381 28V19.6338H216.727V28H215.381ZM212.912 19.8687V18.6436H219.196V19.8687H212.912ZM222.18 28V24.0645L219.273 18.6436H220.79L221.9 20.8652L222.821 22.7441H222.872L223.792 20.8652L224.903 18.6436H226.42L223.513 24.0645V28H222.18ZM228.122 24.4326V23.2139H229.74C230.075 23.2139 230.364 23.1419 230.61 22.998C230.86 22.8542 231.054 22.6553 231.194 22.4014C231.334 22.1432 231.403 21.8449 231.403 21.5063C231.403 20.9943 231.245 20.5944 230.927 20.3066C230.61 20.0146 230.191 19.8687 229.67 19.8687H228.122V18.6436H229.766C230.362 18.6436 230.883 18.7599 231.327 18.9927C231.776 19.2254 232.123 19.5534 232.368 19.9766C232.614 20.3997 232.736 20.897 232.736 21.4683C232.736 22.0438 232.616 22.5537 232.375 22.998C232.133 23.4424 231.793 23.7936 231.353 24.0518C230.917 24.3057 230.407 24.4326 229.823 24.4326H228.122ZM227.1 28V18.6436H228.445V28H227.1ZM233.975 28V18.6436H239.218V19.8687H235.32V22.6426H238.602V23.8486H235.32V26.7749H239.218V28H233.975Z" fill="white"/>
</svg>
