<svg width="32" height="32" viewBox="0 0 32 32" fill="none" xmlns="http://www.w3.org/2000/svg">
<path d="M11.6185 26.5446C10.9723 26.5446 10.3538 26.36 9.76308 25.9908C9.17231 25.64 8.69231 25.1785 8.32308 24.6062C7.95385 24.0338 7.76923 23.4431 7.76923 22.8338C7.76923 22.0954 7.97231 21.3938 8.37846 20.7292C8.78462 20.0462 9.29231 19.4646 9.90154 18.9846C10.5292 18.4862 11.1477 18.1262 11.7569 17.9046C11.1292 18.0892 10.4831 18.1815 9.81846 18.1815C8.96923 18.1815 8.17538 18.0246 7.43692 17.7108C6.69846 17.3969 6.10769 16.9538 5.66462 16.3815C5.22154 15.7908 5 15.0985 5 14.3046C5 13.5108 5.16615 12.8185 5.49846 12.2277C5.84923 11.6185 6.31077 11.1477 6.88308 10.8154C7.45538 10.4831 8.08308 10.3169 8.76615 10.3169C9.57846 10.3169 10.4092 10.5569 11.2585 11.0369C12.1262 11.4985 12.8462 12.0892 13.4185 12.8092C13.1046 12.3477 12.8277 11.7846 12.5877 11.12C12.3662 10.4369 12.2554 9.72615 12.2554 8.98769C12.2554 8.24923 12.4123 7.58461 12.7262 6.99385C13.0585 6.38461 13.5108 5.90462 14.0831 5.55385C14.6738 5.18462 15.3569 5 16.1323 5C17.2769 5 18.2 5.38769 18.9015 6.16308C19.6031 6.92 19.9538 7.86154 19.9538 8.98769C19.9538 9.67077 19.8523 10.3538 19.6492 11.0369C19.4462 11.7015 19.16 12.2923 18.7908 12.8092L18.9015 12.6708C19.4923 11.9323 20.1846 11.36 20.9785 10.9538C21.7908 10.5292 22.6308 10.3169 23.4985 10.3169C24.1631 10.3169 24.7815 10.4831 25.3538 10.8154C25.9262 11.1292 26.3877 11.5815 26.7385 12.1723C27.0892 12.7631 27.2646 13.4646 27.2646 14.2769C27.2646 15.0892 27.0246 15.7908 26.5446 16.3815C26.0831 16.9723 25.4831 17.4246 24.7446 17.7385C24.0062 18.0338 23.2308 18.1815 22.4185 18.1815C21.9938 18.1631 21.6154 18.1354 21.2831 18.0985C20.9508 18.0431 20.6738 17.9785 20.4523 17.9046C21.0985 18.1262 21.7262 18.4862 22.3354 18.9846C22.9631 19.4646 23.48 20.0369 23.8862 20.7015C24.2923 21.3662 24.4954 22.0954 24.4954 22.8892C24.4954 23.4431 24.3108 24.0062 23.9415 24.5785C23.5908 25.1323 23.12 25.5938 22.5292 25.9631C21.9385 26.3508 21.3015 26.5446 20.6185 26.5446C19.7138 26.5446 18.92 26.2585 18.2369 25.6862C17.5723 25.1323 17.0554 24.3846 16.6862 23.4431C16.5015 22.9631 16.3631 22.5292 16.2708 22.1415C16.1785 21.7354 16.1323 21.3754 16.1323 21.0615C15.9292 22.76 15.4308 24.0985 14.6369 25.0769C13.8615 26.0554 12.8554 26.5446 11.6185 26.5446ZM14.5815 13.2523L15.4677 12.92C15.56 12.7169 15.6154 12.5231 15.6338 12.3385C15.6708 12.1538 15.6892 11.9969 15.6892 11.8677C15.6892 11.6831 15.6523 11.4523 15.5785 11.1754C15.5046 10.88 15.4677 10.6677 15.4677 10.5385C15.4677 10.28 15.5231 10.0585 15.6338 9.87385C15.7446 9.68923 15.9108 9.59692 16.1323 9.59692C16.3538 9.59692 16.52 9.68923 16.6308 9.87385C16.7415 10.0585 16.7969 10.28 16.7969 10.5385C16.7969 10.7231 16.7508 10.9446 16.6585 11.2031C16.5662 11.4615 16.52 11.6831 16.52 11.8677C16.52 12.1815 16.5938 12.5323 16.7415 12.92L17.6277 13.2523C17.9969 12.8831 18.2923 12.3938 18.5138 11.7846C18.7354 11.1569 18.8462 10.52 18.8462 9.87385C18.8462 9.00615 18.5969 8.31385 18.0985 7.79692C17.6 7.26154 16.9446 6.99385 16.1323 6.99385C15.3385 6.99385 14.6738 7.26154 14.1385 7.79692C13.6215 8.31385 13.3631 9.00615 13.3631 9.87385C13.3631 10.52 13.4738 11.1569 13.6954 11.7846C13.9169 12.3938 14.2123 12.8831 14.5815 13.2523ZM10.5385 17.5169C11.2954 17.5169 11.9415 17.3692 12.4769 17.0738V16.1323C12.3846 15.9846 12.2 15.8554 11.9231 15.7446C11.6462 15.6338 11.2769 15.56 10.8154 15.5231C9.91077 15.4308 9.45846 15.1538 9.45846 14.6923C9.45846 14.4892 9.52308 14.3415 9.65231 14.2492C9.8 14.1569 9.95692 14.1108 10.1231 14.1108C10.2338 14.1108 10.3815 14.1477 10.5662 14.2215C10.7692 14.2769 10.9908 14.3785 11.2308 14.5262C11.7108 14.8215 12.2185 14.9692 12.7538 14.9692H12.8646L13.4185 14.1938C13.2338 13.8062 12.9385 13.4369 12.5323 13.0862C12.1262 12.7169 11.6646 12.4123 11.1477 12.1723C10.6308 11.9323 10.0954 11.8123 9.54154 11.8123C8.76615 11.8123 8.12923 12.0892 7.63077 12.6431C7.15077 13.1969 6.91077 13.8615 6.91077 14.6369C6.91077 15.4677 7.24308 16.16 7.90769 16.7138C8.59077 17.2492 9.46769 17.5169 10.5385 17.5169ZM21.6985 17.5169C22.7877 17.5169 23.6646 17.2492 24.3292 16.7138C25.0123 16.16 25.3538 15.4677 25.3538 14.6369C25.3538 13.8246 25.0954 13.1508 24.5785 12.6154C24.08 12.08 23.4523 11.8123 22.6954 11.8123C22.1415 11.8123 21.5969 11.9323 21.0615 12.1723C20.5262 12.4123 20.0554 12.7169 19.6492 13.0862C19.2615 13.4554 18.9754 13.8246 18.7908 14.1938L19.4 14.9692H19.5108L19.7323 14.9415C19.9538 14.9046 20.1754 14.8585 20.3969 14.8031C20.6185 14.7477 20.84 14.6554 21.0615 14.5262C21.5046 14.2492 21.8462 14.1108 22.0862 14.1108C22.5292 14.1108 22.7508 14.3138 22.7508 14.72C22.7508 15.1815 22.3908 15.4308 21.6708 15.4677C20.9323 15.5046 20.3046 15.7262 19.7877 16.1323L19.7323 17.0738C20.2677 17.3692 20.9231 17.5169 21.6985 17.5169ZM12.0615 24.7723C12.6892 24.7723 13.2431 24.5415 13.7231 24.08C14.2215 23.6185 14.6092 23.0646 14.8862 22.4185C15.1815 21.7538 15.3292 21.1354 15.3292 20.5631V20.2862L15.3015 20.0646L14.4154 19.7877C13.7692 20.1754 13.3631 20.6831 13.1969 21.3108C13.0308 21.9385 12.7262 22.2523 12.2831 22.2523C12.1169 22.2523 11.9692 22.1877 11.84 22.0585C11.7292 21.9108 11.6738 21.7631 11.6738 21.6154C11.6738 21.2462 11.9138 20.8954 12.3938 20.5631C12.8738 20.2308 13.1969 19.7323 13.3631 19.0677L12.8646 18.2923C12.3846 18.3846 11.8585 18.6062 11.2862 18.9569C10.7138 19.3077 10.2246 19.7508 9.81846 20.2862C9.43077 20.8215 9.23692 21.4123 9.23692 22.0585C9.23692 22.5385 9.37538 22.9908 9.65231 23.4154C9.92923 23.8215 10.28 24.1538 10.7046 24.4123C11.1477 24.6523 11.6 24.7723 12.0615 24.7723ZM20.0369 24.7723C20.5169 24.7723 20.9692 24.6431 21.3938 24.3846C21.8369 24.1262 22.1877 23.7938 22.4462 23.3877C22.7231 22.9631 22.8615 22.52 22.8615 22.0585C22.8615 21.4123 22.6585 20.8308 22.2523 20.3138C21.8646 19.7785 21.3846 19.3354 20.8123 18.9846C20.2585 18.6338 19.7323 18.4031 19.2338 18.2923L18.7354 19.0677C18.8092 19.3815 18.92 19.6585 19.0677 19.8985C19.2338 20.1385 19.4369 20.36 19.6769 20.5631C20.1569 20.9508 20.3969 21.32 20.3969 21.6708C20.3969 21.8185 20.3323 21.9569 20.2031 22.0862C20.0923 22.1969 19.9631 22.2523 19.8154 22.2523C19.4092 22.2523 19.0954 21.9385 18.8738 21.3108C18.6708 20.7385 18.2738 20.2308 17.6831 19.7877L16.7969 20.0646L16.7692 20.2862V20.5631C16.7692 20.8954 16.8338 21.2923 16.9631 21.7538C17.1108 22.1969 17.3046 22.64 17.5446 23.0831C17.8031 23.5077 18.0985 23.8585 18.4308 24.1354C18.9477 24.56 19.4831 24.7723 20.0369 24.7723Z" fill="#FF5B6E"/>
</svg>
