<svg width="520" height="360" viewBox="0 0 520 360" fill="none" xmlns="http://www.w3.org/2000/svg">
  <rect width="520" height="360" fill="white"/>
  <rect x="132" y="46" width="116" height="252" rx="30" fill="#111111"/>
  <rect x="140" y="58" width="100" height="228" rx="23" fill="#20242B"/>
  <rect x="174" y="66" width="32" height="6" rx="3" fill="#050505"/>
  <text x="154" y="96" fill="#AEB5C0" font-family="Arial" font-size="8">Good Morning, user.name</text>
  <text x="154" y="114" fill="#FFFFFF" font-family="Arial" font-size="10" font-weight="700">What are you</text>
  <text x="154" y="127" fill="#FFFFFF" font-family="Arial" font-size="10" font-weight="700">wearing today?</text>
  <rect x="154" y="142" width="19" height="28" rx="4" fill="#EEF0F4"/>
  <rect x="179" y="142" width="19" height="28" rx="4" fill="#EEF0F4"/>
  <rect x="204" y="142" width="19" height="28" rx="4" fill="#EEF0F4"/>
  <rect x="154" y="184" width="25" height="42" rx="5" fill="#3A404B"/>
  <rect x="185" y="184" width="25" height="42" rx="5" fill="#3A404B"/>
  <rect x="216" y="184" width="14" height="42" rx="5" fill="#3A404B"/>
  <path d="M166 246C175 246 182 254 182 264V280H150V264C150 254 157 246 166 246Z" fill="url(#personA)"/>
  <path d="M205 246C214 246 221 254 221 264V280H189V264C189 254 196 246 205 246Z" fill="url(#personB)"/>
  <rect x="268" y="46" width="116" height="252" rx="30" fill="#111111"/>
  <rect x="276" y="58" width="100" height="228" rx="23" fill="#1B1E25"/>
  <rect x="310" y="66" width="32" height="6" rx="3" fill="#050505"/>
  <text x="291" y="102" fill="#DDE2EA" font-family="Arial" font-size="10" font-weight="700">Outfit</text>
  <text x="291" y="116" fill="#DDE2EA" font-family="Arial" font-size="10" font-weight="700">Recommendations</text>
  <path d="M316 145H344L366 169L349 183V257H311V183L294 169L316 145Z" fill="url(#dress)"/>
  <circle cx="312" cy="274" r="12" fill="#2C313B"/>
  <circle cx="349" cy="274" r="12" fill="#2C313B"/>
  <defs>
    <linearGradient id="personA" x1="150" y1="246" x2="184" y2="279" gradientUnits="userSpaceOnUse">
      <stop stop-color="#EEE8DF"/>
      <stop offset="1" stop-color="#676B73"/>
    </linearGradient>
    <linearGradient id="personB" x1="189" y1="246" x2="223" y2="279" gradientUnits="userSpaceOnUse">
      <stop stop-color="#E7D7C9"/>
      <stop offset="1" stop-color="#4E5561"/>
    </linearGradient>
    <linearGradient id="dress" x1="294" y1="145" x2="374" y2="247" gradientUnits="userSpaceOnUse">
      <stop stop-color="#F2F2F2"/>
      <stop offset="1" stop-color="#8B8B8B"/>
    </linearGradient>
  </defs>
</svg>
