<svg width="520" height="360" viewBox="0 0 520 360" fill="none" xmlns="http://www.w3.org/2000/svg">
  <rect width="520" height="360" fill="white"/>
  <circle cx="126" cy="177" r="38" fill="white" stroke="#F2F2F2" stroke-width="8"/>
  <path d="M126 139A38 38 0 1 1 91 162" stroke="#FFD342" stroke-width="8" stroke-linecap="round"/>
  <text x="105" y="185" fill="#7D7D7D" font-family="Arial" font-size="22" font-weight="700">60%</text>
  <rect x="160" y="122" width="92" height="118" rx="7" fill="white" stroke="#E4E4E4"/>
  <rect x="160" y="122" width="92" height="27" rx="7" fill="#273040"/>
  <rect x="176" y="165" width="58" height="8" rx="4" fill="#EDEDED"/>
  <rect x="176" y="187" width="46" height="8" rx="4" fill="#EDEDED"/>
  <rect x="176" y="209" width="66" height="8" rx="4" fill="#EDEDED"/>
  <rect x="242" y="58" width="128" height="248" rx="31" fill="#171717"/>
  <rect x="251" y="70" width="110" height="224" rx="24" fill="white"/>
  <rect x="289" y="79" width="34" height="6" rx="3" fill="#050505"/>
  <circle cx="306" cy="129" r="8" fill="#FFD342"/>
  <circle cx="306" cy="176" r="8" fill="#FFD342"/>
  <circle cx="306" cy="223" r="8" fill="#FFD342"/>
  <path d="M306 137V168M306 184V215" stroke="#FFD342" stroke-width="3" stroke-linecap="round"/>
  <rect x="269" y="243" width="74" height="36" rx="10" fill="#252B37"/>
  <rect x="348" y="111" width="104" height="156" rx="8" fill="#FFF3C6" stroke="#FFE190" transform="rotate(-16 348 111)"/>
  <rect x="366" y="142" width="62" height="8" rx="4" fill="#F3CF52" transform="rotate(-16 366 142)"/>
  <rect x="376" y="177" width="62" height="8" rx="4" fill="#F3CF52" transform="rotate(-16 376 177)"/>
  <rect x="386" y="212" width="48" height="8" rx="4" fill="#F3CF52" transform="rotate(-16 386 212)"/>
</svg>
